<?xml version="1.0" encoding="utf-8"?>
<!-- Generator: Adobe Illustrator 27.1.1, SVG Export Plug-In . SVG Version: 6.00 Build 0)  -->
<svg version="1.1" id="Layer_1" xmlns="http://www.w3.org/2000/svg" xmlns:xlink="http://www.w3.org/1999/xlink" x="0px" y="0px"
	 viewBox="0 0 50.7 46.5" style="enable-background:new 0 0 50.7 46.5;" xml:space="preserve">
<style type="text/css">
	.st0{fill-rule:evenodd;clip-rule:evenodd;fill:#F16531;}
	.st1{fill-rule:evenodd;clip-rule:evenodd;fill:#FFFFFF;}
	.st2{fill:#F16531;}
</style>
<g>
	<g>
		<path class="st0" d="M33,14.9c3.1-5,0.8-11.3,0.2-12.7c-6.7,1.6-9.7,10.2-9.7,10.2l-0.2,0.7l-0.4-0.6C17.1,4.2,8.7,4.2,7,4.3
			c-0.7,10.8,8.2,14.6,8.2,14.6l0.6,0.3l-0.6,0.4C1.5,27.7,2.5,40.3,2.8,42.6c3.8-0.8,7.3-2.9,10.3-5.4c4.7-4.1,8.1-9.2,9.5-11.8
			l0.4-0.7l0.3,0.7c0.1,0.3,0.2,0.7,0.4,1.1C24.8,30,27.2,37,34.1,37.3c1-1.9,1.6-4.3,1.7-6.6c0.1-2.4-0.3-4.8-1.1-6.5l-0.2-0.5
			l0.6,0c9.5-0.3,11.9-5.7,12.4-7c-5.6-1.8-7.7-1.7-11.2-1.4c-0.8,0.1-1.8,0.1-2.8,0.2l-0.7,0L33,14.9z"/>
		<path class="st1" d="M39,31c0-6.7-5.5-12.2-12.2-12.2c-6.7,0-12.2,5.5-12.2,12.2c0,6.7,5.5,12.2,12.2,12.2
			C33.6,43.2,39,37.7,39,31"/>
	</g>
	<g>
		<path class="st2" d="M21.3,35.1l5.1-4.1c0.1-0.1,0.3-0.2,0.4-0.3c0.1-0.1,0.3-0.2,0.4-0.4c0.1-0.1,0.2-0.3,0.3-0.4
			s0.1-0.3,0.2-0.5c0.1-0.4,0-0.7-0.3-0.9s-0.6-0.3-1-0.3c-0.5,0-0.8,0.1-1.1,0.4s-0.5,0.6-0.6,1.1l-2.5-0.2
			c0.1-0.6,0.3-1.1,0.6-1.6c0.3-0.4,0.6-0.8,1-1.1c0.4-0.3,0.9-0.5,1.4-0.7c0.5-0.1,1.1-0.2,1.6-0.2c0.5,0,1,0.1,1.5,0.2
			c0.4,0.1,0.8,0.4,1.1,0.7c0.3,0.3,0.5,0.7,0.6,1.1c0.1,0.4,0.2,1,0.1,1.5c-0.1,0.7-0.3,1.4-0.7,1.8c-0.4,0.5-0.8,0.9-1.3,1.3
			l-4,3.1h5.2l-0.3,2.2h-8.1L21.3,35.1z"/>
		<path class="st2" d="M30.7,36.3c0-0.2,0.1-0.4,0.2-0.6c0.1-0.2,0.2-0.3,0.4-0.5c0.2-0.1,0.3-0.2,0.5-0.3c0.2-0.1,0.4-0.1,0.6-0.1
			c0.4,0,0.8,0.1,1,0.4s0.4,0.7,0.3,1.1c0,0.2-0.1,0.4-0.2,0.6c-0.1,0.2-0.2,0.3-0.4,0.5s-0.3,0.2-0.5,0.3s-0.4,0.1-0.6,0.1
			s-0.4,0-0.6-0.1s-0.3-0.2-0.4-0.3c-0.1-0.1-0.2-0.3-0.3-0.5C30.7,36.7,30.6,36.5,30.7,36.3z"/>
	</g>
</g>
</svg>
