<?xml version="1.0" encoding="utf-8"?>
<!-- Generator: Adobe Illustrator 27.1.1, SVG Export Plug-In . SVG Version: 6.00 Build 0)  -->
<svg version="1.1" id="Layer_1" xmlns="http://www.w3.org/2000/svg" xmlns:xlink="http://www.w3.org/1999/xlink" x="0px" y="0px"
	 viewBox="0 0 57 88.5" style="enable-background:new 0 0 57 88.5;" xml:space="preserve">
<style type="text/css">
	.st0{fill:#FFFFFF;}
</style>
<g>
	<g>
		<g>
			<path class="st0" d="M20.9,84.2v-6.1h1.8v4.1h1.8v-3.8h1.8v3.8h3.5v2H20.9z"/>
			<path class="st0" d="M29.2,73L29.2,73c0.3,0.2,0.6,0.5,0.7,0.9c0.1,0.4,0.2,0.7,0.2,1.1c0,0.3,0,0.6-0.1,0.8
				c-0.1,0.3-0.2,0.5-0.4,0.7c-0.2,0.2-0.4,0.4-0.6,0.5c-0.2,0.1-0.5,0.2-0.8,0.2c-0.4,0-0.7-0.1-0.9-0.2c-0.2-0.1-0.5-0.3-0.6-0.5
				c-0.2-0.2-0.3-0.5-0.4-0.8s-0.2-0.6-0.2-0.9S26,74.2,26,73.9s0-0.6,0-0.9c-0.3,0-0.6,0.1-0.8,0.4c-0.2,0.2-0.3,0.5-0.3,0.9
				c0,0.3,0.1,0.6,0.2,0.9c0.1,0.3,0.3,0.5,0.5,0.7l-1.1,1c-0.3-0.4-0.6-0.8-0.8-1.3s-0.3-1-0.3-1.5c0-0.6,0.1-1,0.2-1.4
				c0.1-0.4,0.3-0.7,0.6-0.9c0.3-0.2,0.6-0.4,1-0.5c0.4-0.1,0.9-0.1,1.4-0.1h3.2V73H29.2z M27.2,73.5c0,0.1,0,0.3,0,0.5
				c0,0.2,0,0.4,0.1,0.6c0.1,0.2,0.1,0.4,0.3,0.5c0.1,0.1,0.3,0.2,0.5,0.2c0.2,0,0.4-0.1,0.5-0.3c0.1-0.2,0.2-0.4,0.2-0.6
				c0-0.2,0-0.4-0.1-0.5c-0.1-0.2-0.1-0.3-0.2-0.5s-0.2-0.2-0.4-0.3C28,73.1,27.8,73,27.6,73h-0.4V73.5z"/>
			<path class="st0" d="M23.7,70v-1.9h1v0c-0.4-0.2-0.7-0.4-0.9-0.7c-0.2-0.3-0.3-0.6-0.3-1.1c0-0.1,0-0.2,0-0.3
				c0-0.1,0-0.2,0.1-0.3h1.8c0,0.1-0.1,0.3-0.1,0.4c0,0.1,0,0.3,0,0.4c0,0.4,0.1,0.7,0.2,0.9s0.2,0.4,0.4,0.5s0.4,0.2,0.7,0.2
				s0.5,0.1,0.8,0.1h2.6V70H23.7z"/>
			<path class="st0" d="M23.7,64.8V63h0.8v0c-0.1-0.1-0.2-0.1-0.4-0.3c-0.1-0.1-0.2-0.2-0.3-0.4c-0.1-0.2-0.2-0.3-0.2-0.5
				c-0.1-0.2-0.1-0.4-0.1-0.6c0-0.4,0.1-0.8,0.3-1.2s0.5-0.6,0.8-0.8c-0.4-0.2-0.7-0.5-0.9-0.8c-0.2-0.3-0.3-0.7-0.3-1.2
				c0-0.4,0.1-0.8,0.2-1.1c0.1-0.3,0.3-0.5,0.6-0.7c0.2-0.2,0.5-0.3,0.9-0.4c0.3-0.1,0.7-0.1,1.1-0.1h3.7v1.9h-3.6
				c-0.3,0-0.5,0.1-0.8,0.2s-0.3,0.3-0.3,0.7c0,0.2,0,0.4,0.1,0.6c0.1,0.2,0.2,0.3,0.3,0.4s0.3,0.2,0.4,0.2c0.2,0,0.4,0.1,0.5,0.1
				h3.3v1.9h-3.3c-0.1,0-0.2,0-0.4,0c-0.2,0-0.3,0-0.5,0.1c-0.1,0.1-0.3,0.1-0.4,0.3c-0.1,0.1-0.2,0.3-0.2,0.5c0,0.2,0,0.4,0.1,0.6
				c0.1,0.2,0.2,0.3,0.4,0.4s0.3,0.1,0.5,0.2s0.4,0,0.6,0h3.1v1.9H23.7z"/>
			<path class="st0" d="M29.2,49.7L29.2,49.7c0.3,0.2,0.6,0.5,0.7,0.9c0.1,0.4,0.2,0.7,0.2,1.1c0,0.3,0,0.6-0.1,0.8
				c-0.1,0.3-0.2,0.5-0.4,0.7c-0.2,0.2-0.4,0.4-0.6,0.5c-0.2,0.1-0.5,0.2-0.8,0.2c-0.4,0-0.7-0.1-0.9-0.2c-0.2-0.1-0.5-0.3-0.6-0.5
				c-0.2-0.2-0.3-0.5-0.4-0.8s-0.2-0.6-0.2-0.9S26,50.9,26,50.6s0-0.6,0-0.9c-0.3,0-0.6,0.1-0.8,0.4c-0.2,0.2-0.3,0.5-0.3,0.9
				c0,0.3,0.1,0.6,0.2,0.9c0.1,0.3,0.3,0.5,0.5,0.7l-1.1,1c-0.3-0.4-0.6-0.8-0.8-1.3s-0.3-1-0.3-1.5c0-0.6,0.1-1,0.2-1.4
				c0.1-0.4,0.3-0.7,0.6-0.9c0.3-0.2,0.6-0.4,1-0.5c0.4-0.1,0.9-0.1,1.4-0.1h3.2v1.8H29.2z M27.2,50.2c0,0.1,0,0.3,0,0.5
				c0,0.2,0,0.4,0.1,0.6c0.1,0.2,0.1,0.4,0.3,0.5c0.1,0.1,0.3,0.2,0.5,0.2c0.2,0,0.4-0.1,0.5-0.3c0.1-0.2,0.2-0.4,0.2-0.6
				c0-0.2,0-0.4-0.1-0.5c-0.1-0.2-0.1-0.3-0.2-0.5s-0.2-0.2-0.4-0.3c-0.1-0.1-0.3-0.1-0.5-0.1h-0.4V50.2z"/>
			<path class="st0" d="M25.7,42.5c-0.1,0.1-0.3,0.2-0.3,0.4c-0.1,0.2-0.1,0.4-0.1,0.6c0,0.5,0.1,0.9,0.4,1.1s0.7,0.4,1.1,0.4
				c0.5,0,0.9-0.1,1.1-0.4s0.4-0.6,0.4-1.1c0-0.2,0-0.4-0.1-0.6c-0.1-0.2-0.2-0.3-0.3-0.4l1.3-1.3c0.3,0.3,0.5,0.7,0.6,1.1
				s0.2,0.8,0.2,1.2c0,0.5-0.1,0.9-0.2,1.4c-0.2,0.4-0.4,0.8-0.7,1.1s-0.6,0.6-1,0.7s-0.9,0.3-1.3,0.3c-0.5,0-0.9-0.1-1.3-0.3
				s-0.7-0.4-1-0.7s-0.5-0.7-0.7-1.1c-0.2-0.4-0.2-0.9-0.2-1.4c0-0.4,0.1-0.8,0.2-1.2c0.1-0.4,0.3-0.8,0.6-1.1L25.7,42.5z"/>
			<path class="st0" d="M21.7,40.7c-0.3,0-0.6-0.1-0.8-0.3c-0.2-0.2-0.3-0.5-0.3-0.8c0-0.3,0.1-0.6,0.3-0.8c0.2-0.2,0.5-0.3,0.8-0.3
				s0.6,0.1,0.8,0.3c0.2,0.2,0.3,0.5,0.3,0.8c0,0.3-0.1,0.6-0.3,0.8C22.3,40.6,22,40.7,21.7,40.7z M23.7,40.5v-1.9h6.2v1.9H23.7z"/>
			<path class="st0" d="M29.2,33.3L29.2,33.3c0.3,0.2,0.6,0.5,0.7,0.9c0.1,0.4,0.2,0.7,0.2,1.1c0,0.3,0,0.6-0.1,0.8
				c-0.1,0.3-0.2,0.5-0.4,0.7c-0.2,0.2-0.4,0.4-0.6,0.5c-0.2,0.1-0.5,0.2-0.8,0.2c-0.4,0-0.7-0.1-0.9-0.2c-0.2-0.1-0.5-0.3-0.6-0.5
				c-0.2-0.2-0.3-0.5-0.4-0.8s-0.2-0.6-0.2-0.9S26,34.5,26,34.2s0-0.6,0-0.9c-0.3,0-0.6,0.1-0.8,0.4c-0.2,0.2-0.3,0.5-0.3,0.9
				c0,0.3,0.1,0.6,0.2,0.9c0.1,0.3,0.3,0.5,0.5,0.7l-1.1,1c-0.3-0.4-0.6-0.8-0.8-1.3s-0.3-1-0.3-1.5c0-0.6,0.1-1,0.2-1.4
				c0.1-0.4,0.3-0.7,0.6-0.9c0.3-0.2,0.6-0.4,1-0.5c0.4-0.1,0.9-0.1,1.4-0.1h3.2v1.8H29.2z M27.2,33.8c0,0.1,0,0.3,0,0.5
				c0,0.2,0,0.4,0.1,0.6c0.1,0.2,0.1,0.4,0.3,0.5c0.1,0.1,0.3,0.2,0.5,0.2c0.2,0,0.4-0.1,0.5-0.3c0.1-0.2,0.2-0.4,0.2-0.6
				c0-0.2,0-0.4-0.1-0.5c-0.1-0.2-0.1-0.3-0.2-0.5s-0.2-0.2-0.4-0.3c-0.1-0.1-0.3-0.1-0.5-0.1h-0.4V33.8z"/>
		</g>
	</g>
	<path class="st0" d="M38,19.8l-1.7,1.7l-3.3-3.3l0.2-0.3c0,0,0,0,0,0l1.4-1.4c0.9-0.9,2.4-0.9,3.3,0c0.4,0.5,0.7,1.1,0.7,1.7
		C38.7,18.8,38.5,19.4,38,19.8 M34.1,23.8c-0.9,0.9-2.4,0.9-3.3,0c-0.9-0.9-0.9-2.4,0-3.3l1.7-1.7l0.2,0.2l3.1,3.1L34.1,23.8z
		 M19,24.4c-0.5,0-1-0.4-1-1v-14c0-0.5,0.4-1,1-1h1.3c0,0,0,0,0.1,0h9.8c0,0,0,0,0.1,0h1.3c0.5,0,1,0.4,1,1v1h-5.1
		c-1,0-1.8,0.8-1.8,1.8v8.4c0,1,0.8,1.8,1.8,1.8h1.8c0.1,0.7,0.4,1.3,0.9,1.8c0,0,0,0,0,0c0,0,0,0,0.1,0.1H19z M19.5,2.5
		c0-0.5,0.4-1,1-1h9.8c0.5,0,1,0.4,1,1V5h-0.9c0,0,0,0-0.1,0h-6.8c0,0,0,0,0,0h-2.9c0,0,0,0,0,0c0,0,0,0-0.1,0h-0.9V2.5z M20.9,7.7
		V5.9h8.9v1.8H20.9z M29.2,21.7h-1.8c-0.5,0-1-0.4-1-1v-8.4c0-0.5,0.4-1,1-1h5.1v6l-0.4,0.4l-2,2C29.6,20.3,29.3,21,29.2,21.7
		 M38.6,15.9C38.6,15.9,38.6,15.9,38.6,15.9c-1.3-1.3-3.3-1.3-4.6,0l-0.6,0.7v-5.6c0,0,0-0.1,0-0.1V9.5c0-1-0.8-1.8-1.8-1.8h-1V5.9
		h1c0.2,0,0.4-0.2,0.4-0.4V2.5c0-1-0.8-1.8-1.8-1.8h-9.8c-1,0-1.8,0.8-1.8,1.8v2.9c0,0.1,0,0.2,0.1,0.3c0.1,0.1,0.2,0.1,0.3,0.1h1
		v1.8h-1c-1,0-1.8,0.8-1.8,1.8v14c0,1,0.8,1.8,1.8,1.8h12.6c0.1,0,0.2,0,0.2-0.1c0.2,0,0.4,0.1,0.6,0.1c0.9,0,1.7-0.3,2.3-0.9l2-2
		l2-2c0,0,0,0,0,0c0.6-0.6,0.9-1.4,0.9-2.3C39.6,17.3,39.3,16.5,38.6,15.9"/>
</g>
</svg>
