<?xml version="1.0" encoding="utf-8"?>
<!-- Generator: Adobe Illustrator 27.1.1, SVG Export Plug-In . SVG Version: 6.00 Build 0)  -->
<svg version="1.1" id="Layer_1" xmlns="http://www.w3.org/2000/svg" xmlns:xlink="http://www.w3.org/1999/xlink" x="0px" y="0px"
	 viewBox="0 0 56 58" style="enable-background:new 0 0 56 58;" xml:space="preserve">
<style type="text/css">
	.st0{fill:none;stroke:#FFFFFF;stroke-width:1.4787;stroke-linecap:round;stroke-linejoin:round;stroke-miterlimit:10;}
</style>
<g>
	<path class="st0" d="M40.6,18.8c0,0,0,6.1-6,9.9c-3.5,2.3-5.5,4.2-6.5,5.4c0.7,0.8,1.7,2.2,2.5,4C32.4,30.3,42.4,29.5,40.6,18.8z
		 M29.9,27c0-2-1.3-3.6-2.8-3.6c-1.5,0-2.8,1.6-2.8,3.6c0,2,1.3,3.6,2.8,3.6C28.7,30.6,29.9,29,29.9,27z M28.1,50.6
		c1.8-2.3,2.7-5.4,2.3-8.4l0,0c0-0.2,0-0.4-0.1-0.6c0-0.4-0.1-0.7-0.2-1.1c-1-3.1-4.6-8-10.5-11.8c-6-3.8-6-9.9-6-9.9
		c-2.2,12.4,11.6,11.5,10.2,23.3c-0.6,4.9-1.1,8.1,0.6,12.4C25.9,53.3,27.1,51.9,28.1,50.6z"/>
	<path class="st0" d="M13,9.9c-0.1,3.5,0.4,6.1,2.7,7.9c2.3,1.8,6,1.6,6,1.6s0.3-4.4-2.2-7C17.3,10.2,13,9.9,13,9.9z"/>
	<path class="st0" d="M27.6,3.4C25.2,5.8,23.8,8,24.2,11c0.4,3,3.2,5.5,3.2,5.5s3.1-2.9,3.1-6.6C30.5,6.8,27.6,3.4,27.6,3.4z"/>
	<path class="st0" d="M42,9.9c-3.3,0-5.8,0.5-7.5,3c-1.6,2.5-1.3,6.3-1.3,6.3s4.2,0.2,6.6-2.5C41.8,14.4,42,9.9,42,9.9z"/>
</g>
</svg>
