<?xml version="1.0" encoding="utf-8"?>
<!-- Generator: Adobe Illustrator 27.1.1, SVG Export Plug-In . SVG Version: 6.00 Build 0)  -->
<svg version="1.1" id="Layer_1" xmlns="http://www.w3.org/2000/svg" xmlns:xlink="http://www.w3.org/1999/xlink" x="0px" y="0px"
	 viewBox="0 0 56 58" style="enable-background:new 0 0 56 58;" xml:space="preserve">
<style type="text/css">
	.st0{fill:#FFFFFF;}
</style>
<g>
	<path class="st0" d="M48.3,39C48.3,39,48.3,39.1,48.3,39c-2.6,3.9-11.1,6.6-20.8,6.6c-9.7,0-18.2-2.7-20.8-6.6c0,0,0,0,0,0
		c-0.8-1.1-1-2.3-0.6-3.4c0.8-2.4,4.1-4.6,8.9-6c0.6,1,1.4,2,2.2,2.9c0.8,0.8,1.6,1.5,2.5,2v3.3c0,0.3,0.2,0.6,0.4,0.7
		c2.2,1.4,4.8,2.1,7.4,2.1s5.2-0.7,7.4-2.1c0.2-0.2,0.4-0.4,0.4-0.7v-3.3c0.9-0.6,1.8-1.3,2.5-2c0.9-0.9,1.6-1.8,2.2-2.9
		c4.8,1.4,8.1,3.7,8.9,6C49.3,36.8,49.1,37.9,48.3,39 M21.5,35.5c1.9,0.8,3.9,1.3,6,1.3c2.1,0,4.1-0.4,6-1.3v1.8
		c-3.7,2.1-8.4,2.1-12,0V35.5z M14.8,19.3c0.7,0.5,1.6,0.9,2.8,1.4c2.7,0.9,6.2,1.5,10,1.5c3.8,0,7.3-0.5,10-1.5
		c1.2-0.4,2.1-0.9,2.8-1.4v3c0,7-5.7,12.7-12.7,12.7c-7,0-12.7-5.7-12.7-12.7V19.3z M36.2,19.3c-2.2,0.7-5.1,1.1-8.7,1.1
		c-3.5,0-6.5-0.5-8.6-1.1c0.9-1,4-2,8.2-2.1C31.5,17.2,35,18.2,36.2,19.3 M18.1,13.7c2.5-0.9,5.8-1.4,9.4-1.4s6.9,0.5,9.4,1.4
		c2.1,0.8,3.4,1.8,3.4,2.7c0,0.7-0.8,1.5-2.4,2.2c0,0,0-0.1-0.1-0.1c-1.5-2.1-6.5-3.1-10.8-3.1h0c-4,0.1-8.6,1-9.9,3.2
		c-1.6-0.7-2.4-1.5-2.4-2.2C14.8,15.5,16,14.5,18.1,13.7 M42,22.3v-2.5c1-0.7,2.2-0.8,3.2-0.3c0.8,0.5,1.2,1.5,1,2.6v0
		c-0.3,1.6-1.5,2.9-3.6,3.7c0,0-0.1,0-0.1,0l-1.1,0.6C41.8,25.1,42,23.7,42,22.3 M50.6,35.1L50.6,35.1c-1-2.7-4.1-5.1-8.9-6.7
		l1.6-0.9c2.6-1.1,4.2-2.8,4.6-5c0.4-1.9-0.3-3.6-1.8-4.5c-1.2-0.7-2.7-0.8-4.1-0.2v-1.4c0-1.2-0.8-3-4.5-4.4c-2.6-1-6.2-1.5-10-1.5
		s-7.3,0.5-10,1.5c-3.7,1.4-4.5,3.1-4.5,4.4v5.8c0,2,0.4,3.9,1.2,5.7c-5.2,1.6-8.7,4.2-9.7,7c-0.6,1.7-0.3,3.4,0.8,5
		c1.5,2.2,4.4,4.1,8.5,5.4c4,1.3,8.7,2,13.7,2c5,0,9.8-0.7,13.7-2c4.1-1.3,7.1-3.2,8.5-5.4C50.9,38.5,51.2,36.7,50.6,35.1"/>
</g>
</svg>
