<?xml version="1.0" encoding="utf-8"?>
<!-- Generator: Adobe Illustrator 27.1.1, SVG Export Plug-In . SVG Version: 6.00 Build 0)  -->
<svg version="1.1" id="Layer_1" xmlns="http://www.w3.org/2000/svg" xmlns:xlink="http://www.w3.org/1999/xlink" x="0px" y="0px"
	 viewBox="0 0 23 23" style="enable-background:new 0 0 23 23;" xml:space="preserve">
<style type="text/css">
	.st0{fill:#FFFFFF;stroke:#FFFFFF;stroke-width:0.267;stroke-miterlimit:10;}
	.st1{fill:#FFFFFF;}
</style>
<g>
	<path class="st0" d="M17.7,5.3C16,3.5,13.6,2.5,11,2.5c-2.6,0-5,1.1-6.7,2.8S1.4,9.3,1.4,12c0,2.6,1.1,5,2.8,6.7
		c1.7,1.7,4.1,2.8,6.7,2.8c2.6,0,5-1.1,6.7-2.8c1.7-1.7,2.8-4.1,2.8-6.7C20.5,9.4,19.4,7,17.7,5.3 M11,1.7c2.9,0,5.4,1.2,7.3,3
		c1.9,1.9,3,4.5,3,7.3c0,2.9-1.2,5.4-3,7.3c-1.9,1.9-4.5,3-7.3,3c-2.9,0-5.4-1.2-7.3-3c-1.9-1.9-3-4.5-3-7.3c0-2.9,1.2-5.4,3-7.3
		C5.5,2.8,8.1,1.6,11,1.7"/>
	<path class="st1" d="M11.8,9.9l0-0.8c0-0.4,0.3-0.5,0.5-0.5c0.2,0,1.2,0,1.2,0l0-1.8l-1.6,0C10,6.7,9.6,8,9.6,8.9l0,0.9l-1.1,0
		l0,1.3l0,0.8l1.1,0c0,2.4,0,5.3,0,5.3l2.1,0c0,0,0-2.9,0-5.3l1.6,0l0.1-0.8l0.1-1.3L11.8,9.9z"/>
</g>
</svg>
