<?xml version="1.0" encoding="utf-8"?>
<!-- Generator: Adobe Illustrator 27.1.1, SVG Export Plug-In . SVG Version: 6.00 Build 0)  -->
<svg version="1.1" id="Layer_1" xmlns="http://www.w3.org/2000/svg" xmlns:xlink="http://www.w3.org/1999/xlink" x="0px" y="0px"
	 viewBox="0 0 55 52" style="enable-background:new 0 0 55 52;" xml:space="preserve">
<style type="text/css">
	.st0{fill:#F16531;}
</style>
<g>
	<g>
		<path class="st0" d="M27.3,48.5c-12.5,0-22.7-10.2-22.7-22.7C4.6,13.2,14.8,3,27.3,3c12.5,0,22.7,10.2,22.7,22.7
			C50.1,38.3,39.9,48.5,27.3,48.5z M27.3,4c-12,0-21.8,9.8-21.8,21.8c0,12,9.8,21.8,21.8,21.8s21.8-9.8,21.8-21.8
			C49.1,13.7,39.4,4,27.3,4z"/>
		<g id="g3eYB1_00000075162305128749007140000006487841270428176520_">
			<g>
				<path class="st0" d="M27.8,11.6c0.2,0.2,0.3,0.4,0.3,0.6c0,1.3,0,2.7,0,4c0,0.1,0,0.2,0,0.3c-0.1,0.3-0.2,0.4-0.5,0.4
					c-0.2,0-0.4-0.2-0.5-0.4c0-0.1,0-0.1,0-0.2c0-1.4,0-2.7,0-4.1c0-0.3,0.1-0.5,0.3-0.6C27.6,11.6,27.7,11.6,27.8,11.6z"/>
				<path class="st0" d="M14.9,38.3c0.1-2.2,0.1-4.4,0.2-6.6c0-0.3,0-0.5,0-0.8c0-0.3,0.2-0.6,0.5-0.6c0.9,0.1,1.7,0,2.6,0.1
					c0.3,0,0.6,0,0.9,0c0.4,0,0.6,0.2,0.6,0.6c0,0.6,0,0.6,0.6,0.4c1.6-0.6,3.2-0.5,4.8,0.2c0.6,0.3,1.1,0.6,1.7,0.6
					c0.1,0,0.2,0,0.3,0c1,0,2,0,3,0.1c0.9,0,1.6,0.2,2.3,0.8c0.2,0.2,0.3,0.3,0.4,0.5c0.1,0.2,0.2,0.2,0.4,0.1
					c1.1-0.5,2.2-1,3.2-1.5c0.6-0.3,1.3-0.4,2-0.1c0.5,0.2,0.8,0.5,1.1,0.9c0.3,0.4,0.2,0.7-0.2,0.9c-1.9,1.2-3.9,2.5-5.8,3.7
					c-0.7,0.4-1.3,0.9-2,1.3c-0.8,0.5-1.7,0.7-2.6,0.8c-1.2,0.1-2.2-0.3-3.3-0.6c-1.3-0.4-2.6-0.7-3.9-1.1c-0.5-0.2-1-0.1-1.5,0.2
					c-0.1,0.1-0.2,0.1-0.4,0.2c-0.3,0.1-0.5,0.2-0.4,0.6c0,0.3-0.2,0.5-0.6,0.5c-0.8,0-1.7,0-2.5-0.1c-0.3,0-0.7,0-1,0
					c-0.4,0-0.6-0.2-0.6-0.6C14.9,38.7,14.9,38.5,14.9,38.3C14.9,38.3,14.9,38.3,14.9,38.3z M19.6,36.8
					C19.6,36.8,19.6,36.8,19.6,36.8c0,0.2,0,0.3,0,0.5c0,0.3,0,0.3,0.3,0.2c0.7-0.4,1.5-0.5,2.3-0.2c1.4,0.4,2.8,0.8,4.2,1.2
					c1,0.3,2,0.6,3,0.4c0.6-0.1,1.1-0.2,1.6-0.5c0.9-0.6,1.9-1.2,2.8-1.8c1.5-1,3-2,4.6-3c0.1,0,0.2-0.1,0.2-0.2
					c0-0.1-0.1-0.1-0.2-0.2c-0.4-0.2-0.8-0.2-1.2,0c-1.1,0.5-2.1,1-3.2,1.5c-0.4,0.2-0.6,0.3-0.5,0.8c0,0.4-0.2,0.6-0.6,0.6
					c-0.1,0-0.3,0-0.4,0c-1.1,0-2.3,0-3.4-0.1c-0.5,0-1,0-1.6,0c-0.4,0-0.6-0.3-0.5-0.6c0-0.2,0.3-0.4,0.6-0.4c0.6,0,1.2,0,1.8,0
					c1,0,1.9,0.1,2.9,0.1c0.2,0,0.2,0,0.2-0.2c-0.2-0.7-1-1.3-1.8-1.3c-1,0-2,0-2.9-0.1c-0.3,0-0.6,0-0.9-0.1
					c-0.6-0.1-1.1-0.3-1.7-0.6c-1.6-0.8-3.3-0.8-4.9,0.1c-0.2,0.1-0.3,0.2-0.3,0.4C19.7,34.3,19.6,35.6,19.6,36.8z M15.9,37.6
					C15.9,37.6,15.9,37.6,15.9,37.6c0,0.2,0,0.5,0,0.7c0,0.2,0.1,0.2,0.2,0.2c0.7,0,1.5,0,2.2,0.1c0.2,0,0.3-0.1,0.3-0.3
					c0-1,0-2,0.1-3c0-0.2,0-0.3,0-0.5c0-1,0.1-2.1,0.1-3.1c0-0.1-0.1-0.2-0.2-0.2c-0.8,0-1.5,0-2.3-0.1c-0.2,0-0.2,0.1-0.2,0.2
					C16,33.6,16,35.6,15.9,37.6z"/>
				<path class="st0" d="M34.4,24.5c0,3.6-2.9,6.7-6.8,6.7c-3.9,0-6.8-3.2-6.7-6.8c0-3.5,2.8-6.7,6.8-6.7
					C31.6,17.7,34.4,20.9,34.4,24.5z M27.6,30.2c2.9,0,5.7-2.3,5.7-5.7c0-3.4-2.7-5.7-5.7-5.8c-3,0-5.7,2.3-5.8,5.7
					C21.9,27.8,24.6,30.2,27.6,30.2z"/>
				<path class="st0" d="M24.7,15.4c0,0.3,0,0.6,0,0.9c0,0.4-0.2,0.6-0.5,0.6c-0.3,0-0.5-0.2-0.5-0.6c0-0.6,0-1.3,0-1.9
					c0-0.4,0.2-0.6,0.5-0.6c0.3,0,0.5,0.2,0.5,0.6C24.7,14.7,24.7,15.1,24.7,15.4z"/>
				<path class="st0" d="M31.6,15.4c0,0.3,0,0.6,0,1c0,0.4-0.2,0.6-0.5,0.6c-0.3,0-0.5-0.2-0.5-0.6c0-0.6,0-1.3,0-1.9
					c0-0.4,0.2-0.6,0.5-0.6c0.3,0,0.5,0.2,0.5,0.6C31.6,14.7,31.6,15.1,31.6,15.4z"/>
				<path class="st0" d="M29.6,25.9c0,0.8-0.5,1.6-1.3,1.9c-0.2,0.1-0.3,0.2-0.3,0.4c0,0.4-0.2,0.6-0.5,0.6c-0.3,0-0.5-0.2-0.5-0.6
					c0-0.3-0.1-0.4-0.3-0.5c-0.7-0.4-1.1-1-1.1-1.8c0-0.3,0.2-0.5,0.5-0.5c0.3,0,0.5,0.2,0.5,0.5c0,0.5,0.3,0.8,0.7,1
					c0.4,0.1,0.7,0,1-0.3c0.3-0.3,0.4-0.7,0.2-1.1c-0.2-0.4-0.4-0.6-0.9-0.6c-1.1-0.1-1.8-0.6-2-1.5c-0.2-1,0.2-1.9,1.1-2.3
					c0.2-0.1,0.3-0.2,0.3-0.5c0-0.3,0.2-0.6,0.5-0.6c0.3,0,0.5,0.2,0.5,0.6c0,0.2,0.1,0.3,0.3,0.4c0.8,0.3,1.3,1,1.2,1.8
					c0,0.3-0.2,0.5-0.5,0.5c-0.3,0-0.5-0.2-0.5-0.5c-0.1-0.7-0.5-1-1.1-1c-0.5,0-1,0.4-1,1c0,0.5,0.4,1,1,1c0.6,0,1.1,0.2,1.5,0.6
					C29.4,24.9,29.6,25.4,29.6,25.9z"/>
			</g>
		</g>
	</g>
</g>
</svg>
