<?xml version="1.0" encoding="utf-8"?>
<!-- Generator: Adobe Illustrator 27.1.1, SVG Export Plug-In . SVG Version: 6.00 Build 0)  -->
<svg version="1.1" id="Layer_1" xmlns="http://www.w3.org/2000/svg" xmlns:xlink="http://www.w3.org/1999/xlink" x="0px" y="0px"
	 viewBox="0 0 23 23" style="enable-background:new 0 0 23 23;" xml:space="preserve">
<style type="text/css">
	.st0{fill:#FFFFFF;}
</style>
<g id="Wr6FI6_00000062894170979604484690000008883404792108844222_">
	<g>
		<path class="st0" d="M5.4,21c0.1,0,0.1,0,0.2,0c0.1,0,0.2,0,0.3,0.1c1.1,0.6,2.3,1.1,3.6,1.3c0.2,0,0.3,0,0.5,0.1l0.2,0l1.7,0
			c0.7-0.1,1.4-0.2,2-0.4c3.9-1.3,6.3-3.9,7.2-7.9c0.1-0.3,0.1-0.6,0.1-0.9c0-0.1,0-0.2,0-0.3l0-1.8c-0.1-0.7-0.2-1.4-0.4-2
			c-1.3-4-3.9-6.4-7.9-7.2c-3.7-0.8-6.9,0.2-9.6,3C2,6.3,1.1,8.2,0.7,10.4c-0.4,2.4,0,4.6,1.2,6.7C2,17.3,2.1,17.4,2,17.6
			c-0.4,1.3-0.9,2.6-1.3,4c-0.1,0.4-0.1,0.6,0.3,0.8h0.4l1-0.3C3.3,21.7,4.4,21.3,5.4,21z M2.1,20.9c-0.1-0.1,0-0.2,0-0.3
			c0,0,0,0,0,0l0.2-0.7c0.3-0.8,0.5-1.5,0.8-2.3c0.1-0.3,0.1-0.5-0.1-0.7c-0.8-1.3-1.2-2.6-1.4-4C1.4,9.9,2.4,7.4,4.4,5.3
			C5.9,3.8,7.7,3,9.8,2.7c3.1-0.4,5.7,0.6,7.9,2.7c1.4,1.4,2.3,3.1,2.6,5c0.5,3.2-0.4,5.9-2.7,8.2c-1.3,1.3-3,2.2-5,2.5
			c-0.4,0.1-0.8,0.1-1.1,0.1c-0.1,0-0.2,0-0.3,0h0h0c-1.9,0-3.5-0.5-5-1.4c-0.2-0.1-0.4-0.1-0.6-0.1c-0.9,0.3-1.7,0.6-2.6,0.9
			l-0.5,0.2c0,0,0,0,0,0C2.3,20.9,2.2,21,2.1,20.9z"/>
		<path class="st0" d="M12.8,14.8c0.3,0.4,0.7,0.7,1.1,0.8c0.6,0.1,1.2,0,1.8-0.4c0.5-0.4,0.8-0.9,1.1-1.6c0.5-1.3,0.5-2.5,0.2-3.6
			c-0.9-2.6-3.3-4.3-6-4.3c-0.4,0-0.9,0-1.3,0.1c-3.2,0.7-5.4,3.8-4.9,7.1c0.2,1.5,0.9,2.8,2.1,3.8c1.1,1,2.5,1.5,3.9,1.5
			c0,0,0,0,0,0c0.3,0,0.5-0.2,0.5-0.5c0-0.3-0.2-0.5-0.5-0.5l-0.2,0c-0.2,0-0.4,0-0.6-0.1c-2.8-0.5-4.7-3.2-4.2-6
			C6.2,8.6,8.4,6.8,11,6.7c0.9,0,1.8,0.2,2.7,0.7c1.9,1.1,3.2,3.5,2.1,6.1c-0.3,0.6-0.6,0.9-1.2,1.1c-0.3,0.1-0.5,0-0.7-0.1
			c-0.2-0.1-0.3-0.3-0.4-0.6c0-0.1,0-0.2,0-0.3l0-2.5h0l0-0.3c0-0.3,0-0.6,0-0.9c0-0.1,0-0.3,0-0.4c0-0.3,0-0.6,0-0.9
			c0-0.2-0.2-0.4-0.5-0.4c-0.2,0-0.4,0.1-0.5,0.3c0,0.1,0,0.2,0,0.3c0,0.1,0,0.2-0.1,0.3c-0.1,0.1-0.2,0-0.3,0
			C11,8.3,9.6,8.5,8.7,9.5C7.4,11,7.5,13.4,9,14.7c1,0.9,2.4,0.9,3.3,0.1c0.1-0.1,0.2-0.1,0.3-0.1C12.7,14.7,12.7,14.8,12.8,14.8z
			 M11.8,13.8c-0.3,0.3-0.7,0.5-1,0.6c0,0-0.1,0-0.1,0c-0.4,0-0.7-0.1-1-0.4c-0.5-0.4-0.8-1.1-0.8-1.9c0-0.8,0.2-1.5,0.7-1.9
			c0.4-0.4,0.9-0.6,1.5-0.5c0.5,0.1,0.9,0.4,1.2,1c0.2,0.4,0.3,0.8,0.3,1.2C12.5,12.7,12.3,13.3,11.8,13.8z"/>
	</g>
</g>
</svg>
