<?xml version="1.0" encoding="utf-8"?>
<!-- Generator: Adobe Illustrator 27.1.1, SVG Export Plug-In . SVG Version: 6.00 Build 0)  -->
<svg version="1.1" id="Layer_1" xmlns="http://www.w3.org/2000/svg" xmlns:xlink="http://www.w3.org/1999/xlink" x="0px" y="0px"
	 viewBox="0 0 23 23" style="enable-background:new 0 0 23 23;" xml:space="preserve">
<style type="text/css">
	.st0{fill:#FFFFFF;stroke:#FFFFFF;stroke-width:0.267;stroke-miterlimit:10;}
	.st1{fill:#FFFFFF;}
</style>
<g>
	<path class="st0" d="M17.7,5.3C16,3.5,13.6,2.5,11,2.5c-2.6,0-5,1.1-6.7,2.8C2.5,6.9,1.4,9.3,1.4,12c0,2.6,1.1,5,2.8,6.7
		c1.7,1.7,4.1,2.8,6.7,2.8c2.6,0,5-1.1,6.7-2.8c1.7-1.7,2.8-4.1,2.8-6.7C20.5,9.4,19.4,7,17.7,5.3 M11,1.7c2.9,0,5.4,1.2,7.3,3
		c1.9,1.9,3,4.5,3,7.3c0,2.8-1.2,5.4-3,7.3c-1.9,1.9-4.5,3-7.3,3c-2.9,0-5.4-1.2-7.3-3c-1.9-1.9-3-4.5-3-7.3c0-2.9,1.2-5.4,3-7.3
		C5.5,2.8,8.1,1.6,11,1.7"/>
	<path class="st1" d="M14.2,12.3c0-1.8-1.4-3.2-3.2-3.2c-1.8,0-3.2,1.4-3.2,3.2c0,1.8,1.4,3.2,3.2,3.2
		C12.7,15.5,14.2,14.1,14.2,12.3 M14.1,8.7c-0.3,0-0.5,0.2-0.5,0.5c0,0.3,0.2,0.5,0.5,0.5c0.3,0,0.5-0.2,0.5-0.5
		C14.6,8.9,14.4,8.7,14.1,8.7 M8.3,7.9h5.2c1,0,1.8,0.8,1.8,1.8v5.2c0,1-0.8,1.8-1.8,1.8H8.3c-1,0-1.8-0.8-1.8-1.8V9.7
		C6.6,8.7,7.4,7.9,8.3,7.9 M13.6,7.3H8.3C7.1,7.3,6,8.4,6,9.7v5.2c0,1.3,1.1,2.3,2.3,2.3h5.2c1.3,0,2.3-1.1,2.3-2.3V9.7
		C15.9,8.4,14.9,7.3,13.6,7.3 M8.4,12.3c0-1.4,1.1-2.5,2.5-2.5c1.4,0,2.5,1.1,2.5,2.5c0,1.4-1.1,2.5-2.5,2.5
		C9.6,14.8,8.4,13.7,8.4,12.3"/>
	<path class="st1" d="M14.2,12.3c0-1.8-1.4-3.2-3.2-3.2c-1.8,0-3.2,1.4-3.2,3.2c0,1.8,1.4,3.2,3.2,3.2
		C12.7,15.5,14.2,14.1,14.2,12.3z M14.1,8.7c-0.3,0-0.5,0.2-0.5,0.5c0,0.3,0.2,0.5,0.5,0.5c0.3,0,0.5-0.2,0.5-0.5
		C14.6,8.9,14.4,8.7,14.1,8.7z M8.3,7.9h5.2c1,0,1.8,0.8,1.8,1.8v5.2c0,1-0.8,1.8-1.8,1.8H8.3c-1,0-1.8-0.8-1.8-1.8V9.7
		C6.6,8.7,7.4,7.9,8.3,7.9z M13.6,7.3H8.3C7.1,7.3,6,8.4,6,9.7v5.2c0,1.3,1.1,2.3,2.3,2.3h5.2c1.3,0,2.3-1.1,2.3-2.3V9.7
		C15.9,8.4,14.9,7.3,13.6,7.3z M8.4,12.3c0-1.4,1.1-2.5,2.5-2.5c1.4,0,2.5,1.1,2.5,2.5c0,1.4-1.1,2.5-2.5,2.5
		C9.6,14.8,8.4,13.7,8.4,12.3z"/>
</g>
</svg>
