<?xml version="1.0" encoding="utf-8"?>
<!-- Generator: Adobe Illustrator 27.1.1, SVG Export Plug-In . SVG Version: 6.00 Build 0)  -->
<svg version="1.1" id="Layer_1" xmlns="http://www.w3.org/2000/svg" xmlns:xlink="http://www.w3.org/1999/xlink" x="0px" y="0px"
	 viewBox="0 0 55 52" style="enable-background:new 0 0 55 52;" xml:space="preserve">
<style type="text/css">
	.st0{fill:#F16531;}
</style>
<g>
	<path class="st0" d="M27.3,48.5c-12.5,0-22.7-10.2-22.7-22.7C4.6,13.2,14.8,3,27.3,3c12.5,0,22.7,10.2,22.7,22.7
		C50.1,38.3,39.9,48.5,27.3,48.5z M27.3,4c-12,0-21.8,9.8-21.8,21.8c0,12,9.8,21.8,21.8,21.8s21.8-9.8,21.8-21.8
		C49.1,13.7,39.4,4,27.3,4z"/>
	<g id="_x36_r3Vmc_00000139292617529296151250000005445273144421466752_">
		<g>
			<path class="st0" d="M19.5,39.6c-1.1-0.3-1.4-1.2-1.5-2.2c0-0.1,0-0.2,0-0.3c0-0.3,0.1-0.5,0.4-0.5c0.3,0,0.5,0.1,0.5,0.4
				c0,0.3,0.1,0.6,0.1,0.8c0.1,0.6,0.4,0.9,1,1c0.1,0,0.2,0,0.3,0c5.1,0,10.1,0,15.2,0c0.1,0,0.3,0,0.4,0c0.5-0.1,0.8-0.4,0.9-0.9
				c0.2-1.4,0.3-2.8,0.5-4.2c0-0.1,0-0.2-0.1-0.3c-0.9-1.5-1.8-3-2.7-4.5c-0.1-0.2-0.2-0.2-0.4-0.2c-1.8,0-3.5,0-5.3,0
				c-2.4,0-4.7,0-7.1,0c-0.2,0-0.4,0.1-0.5,0.3c-0.8,1.3-1.5,2.6-2.4,3.9c-0.3,0.5-0.4,1-0.3,1.6c0.1,0.3,0.1,0.6,0.1,0.9
				c0,0.3-0.1,0.5-0.4,0.5c-0.3,0-0.5-0.1-0.5-0.4c0-0.2-0.1-0.4-0.1-0.6c-0.1,0-0.2,0.1-0.2,0.2c-0.4,0.6-0.7,1.2-1.1,1.8
				c-0.2,0.4-0.6,0.6-1.1,0.5c-0.5,0-0.9-0.3-1-0.8c-0.2-0.4-0.1-0.8,0.2-1.2c0.6-1,1.2-2.1,1.9-3.1c0.2-0.4,0.4-0.7,0.6-1
				c0.3-0.3,0.3-0.7,0.2-1.1c-0.1-0.4-0.1-0.8-0.1-1.2c0-0.2-0.1-0.3-0.3-0.3c-0.8,0-1.3-0.5-1.3-1.3c0-0.4,0-0.8,0-1.2
				c0-0.8,0.5-1.3,1.3-1.3c0.4,0,0.9,0,1.3,0c0.2,0,0.2,0,0.1-0.2c-0.6-1.1-1.1-2.1-1.7-3.2c-0.6-1.1-1.1-2.1-1.7-3.2
				c-1.3-2.4,0.2-5.2,2.9-5.6c1.5-0.2,3,0.5,3.8,1.9c0.3,0.4,0.5,0.9,0.7,1.3c0.1,0.3,0.1,0.5-0.1,0.7c-0.2,0.1-0.5,0-0.7-0.2
				c-0.2-0.5-0.5-0.9-0.7-1.4c-0.6-1.1-1.9-1.6-3-1.4c-1.2,0.2-2.2,1.2-2.4,2.4c-0.1,0.7,0,1.4,0.4,2c0.3,0.5,0.3,0.5,0.8,0.3
				c0.5-0.2,1-0.3,1.6-0.4c0.2,0,0.4,0,0.6,0.1c0.7,0.2,0.9,0.7,0.7,1.4c-0.2,0.5-0.5,0.8-0.9,1.2c-0.3,0.2-0.6,0.4-0.9,0.6
				c-0.1,0.1-0.2,0.2-0.1,0.3c0.1,0.2,0.2,0.6,0.4,0.7c0.2,0.1,0.5-0.2,0.7-0.2c0.6-0.2,1.2-0.4,1.9-0.3c0.7,0.1,1,0.7,0.7,1.4
				c-0.2,0.5-0.6,0.9-1.1,1.2c-0.2,0.2-0.5,0.3-0.7,0.5c-0.1,0-0.1,0.1-0.1,0.1c0,0.1,0.1,0.1,0.2,0.1c0.5,0,1,0,1.6,0
				c0.1,0,0.2,0,0.2-0.2c0.1-0.8,0.4-1.6,1-2.2c0.1-0.1,0-0.2-0.1-0.2c-0.4-0.3-0.8-0.6-1.1-0.9c-0.6-0.5-0.7-1.3-0.3-1.9
				c0.3-0.6,1-0.9,1.6-0.8c0.2,0,0.2,0,0.2-0.2c-0.1-0.5-0.2-1,0-1.5c0.3-0.9,1.2-1.6,2.2-1.6c1.1,0.1,2,0.8,2.1,1.9
				c0,0.1,0,0.1,0,0.2c0,0.2,0.1,0.1,0.2,0.1c0.3-0.2,0.6-0.4,0.5-0.9c0-0.2,0-0.4,0-0.6c0-0.2,0-0.3-0.1-0.4
				c-0.1-0.1-0.1-0.3-0.1-0.4c0-0.7,0-1.5,0-2.2c0-0.8,0.6-1.4,1.4-1.4c0.6,0,1.1,0,1.7,0c0.7,0,1.3,0.6,1.4,1.2
				c0.1,0.8,0,1.6,0,2.4c0,0.1,0,0.3-0.1,0.4c-0.3,0.2-0.2,0.5-0.2,0.8c0,0.1,0,0.3,0,0.4c0,0.3,0.1,0.5,0.4,0.7
				c0.5,0.3,1,0.6,1.3,1.1c0.3,0.4,0.6,0.4,0.9,0.4c0.3,0,0.7,0,1,0c0.5,0,0.9,0.4,0.9,0.9c0,0.4,0,0.8,0,1.2c0,0.2,0.1,0.3,0.2,0.4
				c0.4,0.5,0.7,0.9,1.1,1.4c0.2,0.2,0.3,0.4,0.2,0.7c0,0.3,0,0.7,0,1c0,0.2,0.1,0.3,0.3,0.3c0.4,0,0.8,0,1.2,0
				c0.8,0,1.3,0.5,1.3,1.3c0,0.4,0,0.8,0,1.3c0,0.7-0.5,1.2-1.2,1.2c-0.3,0-0.4,0.1-0.4,0.3c0,0.5-0.1,1-0.2,1.5
				c0,0.2,0,0.4,0.1,0.5c0.9,1.5,1.8,2.9,2.6,4.4c0.3,0.6,0.3,1.1,0,1.5c-0.5,0.7-1.5,0.6-2-0.1c-0.4-0.5-0.7-1.1-1-1.7
				c-0.1-0.1-0.1-0.2-0.2-0.4c-0.1,0.5-0.1,1-0.2,1.4c-0.1,0.6-0.1,1.3-0.2,1.9c-0.1,0.8-0.7,1.3-1.4,1.5
				C30.7,39.6,25.1,39.6,19.5,39.6z M27.9,25.8c-3.7,0-7.3,0-11,0c-0.5,0-0.5,0.1-0.5,0.5c0,0.3,0,0.7,0,1c0,0.3,0.1,0.4,0.4,0.4
				c0.7,0,1.4,0,2,0c0.2,0,0.3-0.1,0.4-0.2c0.2-0.4,0.4-0.8,0.7-1.1c0.3-0.5,1-0.6,1.5-0.4c0.5,0.3,0.8,0.9,0.6,1.4
				c-0.1,0.3-0.1,0.3,0.3,0.3c3.7,0,7.4,0,11.1,0c0.1,0,0.1,0,0.2,0c0.2,0,0.3,0,0.2-0.2c-0.1-0.2-0.1-0.3-0.1-0.5
				c0.1-0.6,0.4-1,1-1.1c0.5-0.1,1,0.1,1.3,0.6c0.2,0.3,0.4,0.7,0.6,1c0.1,0.1,0.2,0.2,0.3,0.2c0.7,0,1.4,0,2.1,0
				c0.3,0,0.4-0.1,0.4-0.4c0-0.3,0-0.7,0-1c0-0.5-0.1-0.5-0.5-0.5C35.2,25.8,31.6,25.8,27.9,25.8z M32.3,19c-0.4-0.3-0.7-0.5-1-0.8
				c-0.4-0.3-0.6-0.6-0.7-1c0-0.3,0-0.6,0-0.9c0-0.3-0.1-0.4-0.3-0.3c-0.3,0-0.7,0-1,0c-0.8,0-0.8,0-0.8,0.8c0,0.7-0.3,1.2-0.8,1.6
				c-0.2,0.1-0.3,0.2-0.5,0.4c0.8,0.1,1.4,0.5,1.6,1.2c0.2,0.8-0.1,1.3-0.7,1.8c-0.3,0.2-0.6,0.5-0.9,0.7c-0.1,0.1-0.1,0.1,0,0.2
				c0.6,0.6,0.9,1.3,1,2.1c0,0.2,0.1,0.2,0.3,0.2c0.2,0,0.2-0.2,0.2-0.3c0-0.4,0-0.7,0-1.1c0-0.2,0.1-0.4,0.2-0.6
				c0.3-0.4,0.6-0.8,0.9-1.1c0.3-0.4,0.5-0.7,0.4-1.2c0-0.2,0-0.5,0-0.7c0-0.6,0.4-1,1-1C31.5,19,31.9,19,32.3,19z M36.2,23
				c-0.2-0.3-0.4-0.5-0.6-0.7C35.5,22,35.3,22,35.1,22c-1.1,0-2.2,0.1-3.2,0c-0.8-0.1-1.3,0.2-1.7,0.8c-0.4,0.5-0.7,1.1-0.6,1.8
				c0,0.4,0,0.4,0.4,0.4c2.1,0,4.2,0,6.4,0c0.4,0,0.4,0,0.4-0.4c0-0.7,0-0.7-0.6-0.7c-0.5,0-1.1,0-1.6,0c-0.3,0-0.4-0.2-0.5-0.4
				c0-0.2,0.1-0.4,0.4-0.5c0.1,0,0.2,0,0.4,0C35.2,23,35.6,23,36.2,23z M23.4,17.7c0,0.1,0,0.2,0,0.3c0.2,1.1,0.5,2.3,0.7,3.4
				c0,0.2,0.1,0.3,0.3,0.2c0.2,0,0.3,0,0.5,0c0.2,0.1,0.3,0,0.3-0.2c0.2-1.1,0.5-2.3,0.7-3.4c0.1-0.5-0.1-1-0.5-1.3
				c-0.4-0.3-0.9-0.4-1.4-0.1C23.6,16.8,23.4,17.2,23.4,17.7z M24.7,24.9c0.8,0,1.5,0,2.3,0c0.2,0,0.3-0.1,0.2-0.3
				c-0.3-1.2-1.3-2.1-2.5-2.2c-1.3,0-2.3,0.9-2.6,2.1c0,0.2,0,0.3,0.2,0.3C23.2,24.9,23.9,24.9,24.7,24.9z M40.7,36.1
				c0-0.1-0.1-0.2-0.2-0.3c-1.7-2.9-3.5-5.8-5.2-8.7c-0.2-0.3-0.4-0.4-0.6-0.3c-0.2,0.1-0.2,0.3,0,0.6c1.7,2.9,3.5,5.8,5.2,8.7
				c0.1,0.1,0.1,0.2,0.2,0.3c0.1,0.1,0.2,0.1,0.4,0C40.6,36.4,40.7,36.3,40.7,36.1z M21.2,27.1c0-0.2-0.1-0.3-0.3-0.3
				c-0.2,0-0.3,0.1-0.3,0.3c-1,1.6-1.9,3.2-2.9,4.9c-0.8,1.3-1.6,2.6-2.4,4c-0.1,0.2-0.1,0.4,0.1,0.5c0.2,0.1,0.3,0.1,0.5-0.2
				c0,0,0-0.1,0.1-0.1c1.7-2.9,3.5-5.8,5.2-8.7C21.2,27.3,21.2,27.2,21.2,27.1z M29.6,15c0.4,0,0.7,0,1.1,0c0.2,0,0.3,0,0.2-0.2
				c0-0.5,0-1.1,0-1.6c0-0.4-0.2-0.6-0.6-0.7c-0.5,0-1,0-1.5,0c-0.4,0-0.6,0.2-0.6,0.7c0,0.5,0,1.1,0,1.6c0,0.2,0.1,0.3,0.3,0.3
				C28.9,15,29.2,15,29.6,15z M33.1,21.1c0.6,0,1.2,0,1.8,0c0.2,0,0.3-0.1,0.3-0.3c0-0.3,0-0.5,0-0.8c0-0.1-0.1-0.2-0.2-0.2
				c-1.2,0-2.5,0-3.7,0c-0.2,0-0.2,0.1-0.2,0.2c0,0.2,0,0.5,0,0.7c0,0.2,0.1,0.3,0.3,0.3C31.9,21.1,32.5,21.1,33.1,21.1z M21.5,20.4
				c0,0.1,0.1,0.3,0.2,0.4c0.4,0.4,0.9,0.7,1.3,1.1c0.1,0,0.1,0.1,0.2,0c0.1,0,0.1-0.1,0.1-0.2c-0.1-0.5-0.2-0.9-0.3-1.4
				c0-0.2-0.1-0.4-0.3-0.5c-0.2-0.2-0.5-0.3-0.8-0.2C21.6,19.7,21.5,20,21.5,20.4z M27.2,19.6c-0.3,0-0.5,0.1-0.6,0.4
				c-0.3,0.5-0.3,1.2-0.4,1.7c0,0.1,0,0.1,0.1,0.2c0.1,0.1,0.1,0,0.2,0c0.4-0.4,0.9-0.7,1.3-1.1c0.2-0.2,0.3-0.5,0.2-0.8
				C27.8,19.8,27.5,19.6,27.2,19.6z M18.1,18.8c-0.5,0-1.1,0.2-1.6,0.5c-0.1,0.1-0.1,0.1-0.1,0.2c0.1,0.2,0.3,0.5,0.4,0.7
				c0.1,0.1,0.1,0.1,0.2,0.1c0.5-0.3,1-0.6,1.3-1.1c0.1-0.1,0.2-0.2,0.1-0.3C18.4,18.8,18.3,18.8,18.1,18.8z M20,22.4
				c-0.6,0-1.1,0.2-1.6,0.5c-0.1,0.1-0.1,0.1-0.1,0.2c0.1,0.2,0.3,0.5,0.4,0.7c0.1,0.1,0.1,0.2,0.3,0.1c0.5-0.3,0.9-0.6,1.2-1
				c0.1-0.1,0.2-0.2,0.1-0.4C20.3,22.4,20.2,22.5,20,22.4z M37.8,29.5c0-0.2,0.1-0.4,0.1-0.6c0-0.1,0-0.2-0.1-0.2
				c-0.1,0-0.3,0-0.5,0c0,0,0,0.1,0,0.1C37.5,29,37.6,29.3,37.8,29.5z M18,29.6c0.2-0.3,0.3-0.5,0.4-0.6c0.1-0.2,0.1-0.2-0.1-0.2
				c-0.3,0-0.3,0-0.3,0.3C18,29.2,18,29.3,18,29.6z"/>
			<path class="st0" d="M23.7,31.5c0,0.2,0,0.5,0,0.7c0,0.6-0.5,1.1-1.1,1.1c-0.5,0-1.1-0.3-1.1-0.9c-0.1-0.6-0.1-1.2,0-1.8
				c0.1-0.6,0.6-0.9,1.2-0.9c0.6,0,1,0.5,1,1.1C23.7,31.1,23.7,31.3,23.7,31.5z M22.8,31.5C22.8,31.5,22.8,31.5,22.8,31.5
				c0-0.2,0-0.4,0-0.7c0-0.1-0.1-0.2-0.2-0.2c-0.1,0-0.2,0.1-0.2,0.2c0,0.4,0,0.9,0,1.3c0,0.1,0.1,0.2,0.2,0.2
				c0.2,0,0.2-0.1,0.2-0.3C22.8,32,22.8,31.8,22.8,31.5z"/>
			<path class="st0" d="M34.4,31.5c0,0.2,0,0.5,0,0.7c0,0.6-0.5,1-1.1,1.1c-0.5,0.1-1.1-0.3-1.2-0.9c-0.1-0.6-0.1-1.2,0-1.8
				c0.1-0.6,0.6-0.9,1.2-0.9c0.6,0.1,1,0.5,1,1.1C34.4,31.1,34.4,31.3,34.4,31.5z M33,31.5c0,0.2,0,0.4,0,0.7c0,0.2,0.1,0.3,0.2,0.3
				c0.2,0,0.2-0.1,0.2-0.3c0-0.4,0-0.9,0-1.3c0-0.2-0.1-0.3-0.2-0.3c-0.2,0-0.2,0.1-0.2,0.3C33,31.1,33,31.3,33,31.5z"/>
			<path class="st0" d="M26.8,31.5c0-0.2,0-0.5,0-0.7c0-0.6,0.5-1.1,1-1.1c0.6,0,1.1,0.3,1.2,0.9c0.1,0.6,0.1,1.2,0,1.8
				c-0.1,0.6-0.6,1-1.2,0.9c-0.6-0.1-1-0.5-1-1.1C26.8,32,26.8,31.8,26.8,31.5z M28.2,31.5c0-0.2,0-0.4,0-0.6c0-0.2,0-0.3-0.2-0.3
				c-0.2,0-0.2,0.1-0.2,0.3c0,0.4,0,0.8,0,1.2c0,0.2,0.1,0.3,0.2,0.3c0.2,0,0.2-0.1,0.2-0.3C28.2,31.9,28.2,31.7,28.2,31.5z"/>
			<path class="st0" d="M26.4,36c0,0.2,0,0.5,0,0.7c0,0.6-0.5,1.1-1.1,1.1c-0.6,0-1.1-0.5-1.1-1.1c0-0.5,0-0.9,0-1.4
				c0-0.6,0.5-1.1,1.1-1.1c0.6,0,1.1,0.5,1.1,1.1C26.4,35.5,26.4,35.8,26.4,36z M25,36C25,36,25,36,25,36c0,0.2,0,0.4,0,0.7
				c0,0.1,0.1,0.3,0.2,0.3c0.2,0,0.2-0.1,0.2-0.3c0-0.4,0-0.9,0-1.3c0-0.1-0.1-0.3-0.2-0.3c-0.2,0-0.2,0.1-0.2,0.3
				C25,35.5,25,35.7,25,36z"/>
			<path class="st0" d="M29.5,36c0-0.2,0-0.5,0-0.7c0-0.6,0.5-1.1,1.1-1.1c0.6,0,1.1,0.5,1.1,1.1c0,0.5,0,1,0,1.5
				c0,0.6-0.5,1.1-1.1,1.1c-0.6,0-1.1-0.5-1.1-1.1C29.5,36.5,29.5,36.2,29.5,36z M30.3,35.9C30.3,35.9,30.3,35.9,30.3,35.9
				c0,0.2,0,0.4,0,0.6c0,0.2,0.1,0.3,0.2,0.3c0.2,0,0.3-0.1,0.3-0.3c0-0.4,0-0.8,0-1.2c0-0.1-0.1-0.3-0.2-0.3
				c-0.2,0-0.2,0.1-0.3,0.3C30.3,35.6,30.3,35.7,30.3,35.9z"/>
		</g>
	</g>
</g>
</svg>
