<?xml version="1.0" encoding="utf-8"?>
<!-- Generator: Adobe Illustrator 27.1.1, SVG Export Plug-In . SVG Version: 6.00 Build 0)  -->
<svg version="1.1" id="Layer_1" xmlns="http://www.w3.org/2000/svg" xmlns:xlink="http://www.w3.org/1999/xlink" x="0px" y="0px"
	 viewBox="0 0 23 23" style="enable-background:new 0 0 23 23;" xml:space="preserve">
<style type="text/css">
	.st0{fill:#FFFFFF;stroke:#FFFFFF;stroke-width:0.267;stroke-miterlimit:10;}
	.st1{fill:#FFFFFF;}
</style>
<g>
	<path class="st0" d="M17.7,5.3C16,3.5,13.6,2.5,11,2.5c-2.6,0-5,1.1-6.7,2.8C2.5,6.9,1.4,9.3,1.4,12c0,2.6,1.1,5,2.8,6.7
		c1.7,1.7,4.1,2.8,6.7,2.8c2.6,0,5-1.1,6.7-2.8c1.7-1.7,2.8-4.1,2.8-6.7C20.5,9.4,19.4,7,17.7,5.3 M11,1.7c2.9,0,5.4,1.2,7.3,3
		c1.9,1.9,3,4.5,3,7.3c0,2.8-1.2,5.4-3,7.3c-1.9,1.9-4.5,3-7.3,3c-2.9,0-5.4-1.2-7.3-3c-1.9-1.9-3-4.5-3-7.3c0-2.9,1.2-5.4,3-7.3
		C5.5,2.8,8.1,1.6,11,1.7"/>
	<g id="O20YDO_00000144335327499808247740000012824813745019484336_">
		<g>
			<path class="st1" d="M3.9,7.1C4,6.8,4.2,6.5,4.5,6.4c0.1-0.1,0.3-0.1,0.4-0.1c0.4,0,0.7,0,1.1,0c0.2,0,0.3,0.1,0.3,0.3
				c0,0.2-0.1,0.3-0.3,0.3c-0.3,0-0.6,0-1,0C4.6,6.8,4.4,7,4.4,7.4c0,1.1,0,2.2,0,3.3c0,0.4,0.2,0.6,0.6,0.6c1.3,0,2.6,0,3.9,0
				c0.1,0,0.2,0,0.2-0.1c0.3-0.5,0.8-1,1.3-1.2c0.1-0.1,0.1-0.1,0.1-0.2c-0.1-0.2-0.2-0.5-0.4-0.7c0,0,0-0.1-0.1-0.1
				c0,0,0,0-0.1,0.1C10,9.4,9.9,9.6,9.8,9.9c-0.1,0.1-0.1,0.2-0.3,0.2c-0.1,0-0.2-0.1-0.3-0.2C9,9.5,8.8,9,8.6,8.6
				c0-0.1-0.1-0.1-0.1-0.2c0-0.1,0.1-0.2,0.2-0.3c0.1,0,0.2,0,0.3,0.1c0.1,0.2,0.2,0.3,0.3,0.5C9.4,8.9,9.4,9,9.5,9.1
				c0,0.1,0.1,0.1,0.1,0c0.1-0.2,0.2-0.5,0.3-0.7C10,8.3,10,8.1,10.2,8.1c0.2,0,0.2,0.1,0.3,0.2c0.1,0.3,0.3,0.5,0.4,0.8
				c0.1-0.2,0.2-0.5,0.3-0.7c0-0.1,0-0.1,0.1-0.2c0.1-0.2,0.2-0.2,0.4-0.2c0.2,0.1,0.2,0.2,0.1,0.4c-0.1,0.2-0.2,0.3-0.2,0.5
				c-0.1,0.2-0.2,0.4-0.3,0.6c0,0,0,0.1,0,0.1c0,0,0.1,0,0.1,0c0.4-0.1,0.8-0.1,1.2-0.1c0.1,0,0.1,0,0.1-0.1
				c-0.2-0.3-0.3-0.6-0.5-0.9c0,0,0-0.1-0.1-0.1c-0.1-0.2,0-0.3,0.1-0.4c0.1-0.1,0.3,0,0.4,0.1c0.1,0.1,0.2,0.3,0.2,0.4
				C12.9,8.9,13,9,13,9.1c0.1,0,0.1-0.1,0.1-0.1c0.1-0.2,0.2-0.5,0.3-0.7c0.1-0.1,0.1-0.2,0.3-0.2c0.1,0,0.2,0.1,0.3,0.2
				c0.1,0.2,0.2,0.5,0.4,0.7c0,0,0,0.1,0.1,0.1c0.1-0.2,0.2-0.4,0.3-0.7c0-0.1,0.1-0.1,0.1-0.2c0.1-0.2,0.2-0.2,0.4-0.1
				c0.1,0.1,0.2,0.2,0.1,0.4c-0.1,0.2-0.2,0.4-0.3,0.5c-0.1,0.3-0.2,0.5-0.4,0.8c-0.1,0.1-0.1,0.2-0.3,0.2c-0.1,0-0.2-0.1-0.3-0.2
				c-0.1-0.3-0.3-0.5-0.4-0.8c-0.1,0-0.1,0-0.1,0.1c-0.1,0.2-0.2,0.4-0.3,0.5c-0.1,0.1,0,0.2,0.1,0.2c0.3,0.1,0.6,0.3,0.8,0.5
				c0.3,0.3,0.6,0.6,0.8,0.9c0.1,0.1,0.1,0.1,0.2,0.1c0.3,0,0.7,0,1,0c0.4,0,0.6-0.2,0.6-0.6c0-1.1,0-2.2,0-3.3
				c0-0.4-0.2-0.6-0.6-0.6c-2.6,0-5.3,0-7.9,0c-0.1,0-0.1,0-0.2,0c-0.1,0-0.2-0.1-0.2-0.3c0-0.1,0.1-0.2,0.2-0.3c0,0,0.1,0,0.1,0
				c2.7,0,5.3,0,8,0c0.6,0,1,0.3,1.1,0.9c0,0.1,0,0.2,0,0.3c0,1.2,0,2.3,0,3.5c0,0.7-0.5,1.1-1.1,1.1c-0.3,0-0.6,0-0.9,0
				c-0.1,0-0.1,0-0.1,0.1c0.2,0.7,0.2,1.4,0,2.1c-0.2,0.6-0.5,1.1-1,1.5c-0.2,0.2-0.2,0.1,0,0.3c0.6,0.6,1.2,1.2,1.8,1.8
				c0.1,0.1,0.2,0.2,0.3,0.2c0.3,0,0.4-0.3,0.3-0.5c0-0.1-0.1-0.1-0.1-0.2c-0.2-0.2-0.5-0.5-0.7-0.7c-0.1-0.1-0.1-0.2-0.1-0.3
				c0.1-0.1,0.2-0.2,0.3-0.1c0.1,0,0.1,0.1,0.2,0.1c0.3,0.3,0.5,0.5,0.8,0.8c0.5,0.5,0.3,1.4-0.4,1.5c-0.4,0.1-0.6,0-0.9-0.3
				c-0.6-0.6-1.3-1.3-1.9-1.9c-0.1-0.1-0.2-0.1-0.3-0.1c-1.3,0.7-2.8,0.4-3.9-0.5C9,15,8.6,14,8.7,12.8c0-0.2,0.1-0.5,0.1-0.7
				c0-0.2,0-0.2-0.1-0.2c-1.2,0-2.4,0-3.6,0c-0.7,0-1.1-0.3-1.3-0.9C3.9,9.8,3.9,8.4,3.9,7.1z M12.2,10.2c-1.5,0-2.9,1.2-2.9,2.9
				c0,1.5,1.2,2.9,2.9,2.9c1.5,0,2.9-1.2,2.9-2.9C15.1,11.6,14,10.2,12.2,10.2z"/>
			<path class="st1" d="M6,9.1C6.1,9,6.2,8.8,6.3,8.7c0-0.1,0.1-0.2,0.1-0.3c0.1-0.1,0.1-0.2,0.3-0.2c0.2,0,0.2,0.1,0.3,0.2
				C7.1,8.6,7.2,8.8,7.3,9c0,0,0,0.1,0.1,0.1C7.5,9,7.6,8.9,7.6,8.7c0.1-0.1,0.1-0.3,0.2-0.4c0.1-0.2,0.2-0.2,0.4-0.1
				c0.1,0.1,0.2,0.2,0.1,0.4C8.1,9,7.9,9.5,7.7,9.9c-0.1,0.2-0.4,0.2-0.5,0C7,9.7,6.9,9.5,6.8,9.2c0,0,0-0.1-0.1-0.1
				c-0.1,0-0.1,0-0.1,0.1C6.5,9.4,6.4,9.6,6.3,9.9C6.2,10,6.2,10.1,6,10.1c-0.1,0-0.2-0.1-0.3-0.2C5.5,9.5,5.3,9,5.1,8.6
				C5,8.4,5,8.2,5.2,8.2c0.2-0.1,0.3,0,0.4,0.2C5.7,8.6,5.8,8.8,5.9,9C6,9.1,6,9.1,6,9.1z"/>
			<path class="st1" d="M7,6.5c0-0.2,0.1-0.3,0.3-0.3c0.2,0,0.3,0.1,0.3,0.3c0,0.2-0.1,0.3-0.3,0.3C7.1,6.8,7,6.7,7,6.5z"/>
			<path class="st1" d="M16,15.7c0,0.2-0.1,0.3-0.3,0.3c-0.2,0-0.3-0.1-0.3-0.3c0-0.1,0.1-0.3,0.3-0.3C15.8,15.4,16,15.6,16,15.7z"
				/>
			<path class="st1" d="M12.2,15.5c-1.3,0-2.4-1.1-2.4-2.4c0-1.3,1.1-2.4,2.4-2.4c1.3,0,2.4,1.1,2.4,2.4
				C14.6,14.4,13.5,15.5,12.2,15.5z M14,13.1c0-1-0.8-1.8-1.8-1.8c-1,0-1.8,0.8-1.8,1.8c0,1,0.8,1.8,1.8,1.8
				C13.2,14.9,14,14.1,14,13.1z"/>
			<path class="st1" d="M13.4,13.1c0,0.2-0.1,0.3-0.2,0.3c-0.2,0-0.3-0.1-0.3-0.3c-0.1-0.4-0.2-0.6-0.7-0.7c-0.2,0-0.3-0.1-0.3-0.3
				c0-0.2,0.1-0.3,0.3-0.3C12.9,11.9,13.4,12.5,13.4,13.1z"/>
		</g>
	</g>
</g>
</svg>
