<?xml version="1.0" encoding="utf-8"?>
<!-- Generator: Adobe Illustrator 27.1.1, SVG Export Plug-In . SVG Version: 6.00 Build 0)  -->
<svg version="1.1" id="Layer_1" xmlns="http://www.w3.org/2000/svg" xmlns:xlink="http://www.w3.org/1999/xlink" x="0px" y="0px"
	 viewBox="0 0 23 23" style="enable-background:new 0 0 23 23;" xml:space="preserve">
<style type="text/css">
	.st0{fill:#FFFFFF;stroke:#FFFFFF;stroke-width:0.267;stroke-miterlimit:10;}
</style>
<g id="BpyQfy_00000062174350640622269190000005785478621479409334_">
	<g>
		<path class="st0" d="M10.9,1.5c5-0.1,9.5,3.6,10.4,8.6c0.6,3.4-0.3,6.4-2.6,9c-1.7,1.8-3.7,2.9-6.2,3.3c-2.4,0.3-4.6-0.1-6.7-1.3
			C5.6,21,5.5,21,5.3,21c-1.4,0.5-2.8,0.9-4.2,1.4c-0.2,0.1-0.3,0.1-0.5,0c-0.1-0.1-0.1-0.3,0-0.5C1,20.5,1.5,19,1.9,17.6
			c0.1-0.2,0-0.3,0-0.4c-0.8-1.3-1.2-2.8-1.4-4.3C0.1,8.7,2.4,4.6,6.2,2.7C7.4,2,8.6,1.7,10,1.5C10.3,1.5,10.6,1.5,10.9,1.5z
			 M11,21.8c0.4,0,0.9,0,1.3-0.1c2.3-0.3,4.2-1.3,5.8-3c2.3-2.4,3.1-5.3,2.5-8.6c-0.9-4.6-5.1-8.1-9.9-7.9C9.3,2.3,8.1,2.6,6.9,3.1
			C3.1,4.8,0.8,8.8,1.3,13c0.2,1.4,0.6,2.7,1.3,3.9c0.2,0.3,0.2,0.5,0.1,0.8c-0.4,1.2-0.8,2.3-1.1,3.5c0,0.1-0.1,0.2,0,0.2
			c0.1,0.1,0.1,0,0.2,0C2.9,21,4,20.7,5.2,20.3c0.2-0.1,0.4-0.1,0.7,0.1C7.4,21.3,9.1,21.8,11,21.8z"/>
		<path class="st0" d="M13.9,17.1c-0.9,0-1.7-0.2-2.6-0.5c-1.5-0.5-2.9-1.3-4-2.5c-1-1.1-1.9-2.3-2.2-3.7C4.8,9.1,5.3,7.9,6.4,7
			c0.1-0.1,0.3-0.2,0.4-0.2c0.3-0.1,0.6-0.1,0.9,0c0.4,0.1,0.7,0.3,0.8,0.7c0.3,0.7,0.5,1.4,0.8,2c0.2,0.5,0.1,0.9-0.2,1.3
			C9,10.9,8.9,11,8.8,11.2c-0.2,0.2-0.2,0.3,0,0.6c0.5,0.7,1.1,1.3,1.9,1.7c0.3,0.2,0.7,0.4,1,0.5c0.2,0.1,0.3,0,0.5-0.1
			c0.1-0.2,0.3-0.4,0.4-0.6c0.2-0.3,0.6-0.5,1-0.4c0.8,0.1,1.5,0.2,2.3,0.4c0.5,0.1,0.8,0.4,0.9,0.9c0.4,1.1-0.2,1.7-0.9,2.4
			c-0.4,0.4-0.9,0.6-1.4,0.7C14.3,17.2,14.1,17.1,13.9,17.1z M13.6,16.4c1.2,0,2-0.6,2.5-1.5c0-0.1,0.1-0.2,0-0.3
			c0-0.2-0.1-0.3-0.1-0.5c0-0.1-0.1-0.2-0.2-0.2c-0.8-0.1-1.6-0.2-2.3-0.4c-0.1,0-0.3,0-0.3,0.2c-0.1,0.2-0.2,0.4-0.4,0.5
			c-0.4,0.6-0.8,0.7-1.5,0.4C10,14.1,9,13.3,8.1,12.1c-0.4-0.5-0.3-1,0.1-1.4c0.2-0.2,0.3-0.3,0.5-0.5c0.1-0.1,0.2-0.2,0.1-0.4
			C8.5,9.1,8.2,8.4,7.9,7.7C7.8,7.6,7.7,7.5,7.6,7.5c-0.2,0-0.4,0-0.5,0c-0.1,0-0.1,0-0.2,0.1C6.2,8.1,5.7,8.9,5.8,9.8
			c0,0.6,0.2,1.2,0.5,1.8c1.1,2,2.7,3.4,4.8,4.3C11.9,16.2,12.8,16.4,13.6,16.4z"/>
	</g>
</g>
</svg>
