<?xml version="1.0" encoding="utf-8"?>
<!-- Generator: Adobe Illustrator 27.1.1, SVG Export Plug-In . SVG Version: 6.00 Build 0)  -->
<svg version="1.1" id="Layer_1" xmlns="http://www.w3.org/2000/svg" xmlns:xlink="http://www.w3.org/1999/xlink" x="0px" y="0px"
	 viewBox="0 0 312 75.3" style="enable-background:new 0 0 312 75.3;" xml:space="preserve">
<style type="text/css">
	.st0{fill:#FFFFFF;}
	.st1{opacity:0.8;fill:#FFFFFF;enable-background:new    ;}
</style>
<g id="Logo_Blanco_" transform="translate(0 0)">
	<path id="Path_1" class="st0" d="M181.5,24c-2.3-0.7-3.7,1.1-4.2,2.7c-1.6,5.7-3.9,13.1-6.9,18.3c-0.7,1.1-2.2,4.5-5.4,4.5
		s-4.7-3.4-5.4-4.5c-3-5.2-5.3-12.7-6.9-18.3c-0.5-1.6-1.9-3.3-4.2-2.7c-2.6,0.7-2.1,3.5-1.8,4.7c1.5,5.6,3.4,11,5.8,16.3
		c2.4,5,5.5,10.7,12.5,10.7s10.1-5.7,12.5-10.7c2.4-5.3,4.3-10.7,5.8-16.3C183.7,27.5,184.2,24.7,181.5,24z"/>
	<path id="Path_2" class="st0" d="M82.9,20.8c1,1.2,2.2,2.2,3.7,2.8c-0.8,2.5-1.7,5-1.7,7.9c2.5-1.7,3.3-4.2,4.9-6.3
		c1.7,1.2,3,3.2,4.9,4.1c0.4-1.5-1.6-4.1-2.6-5.4c1.2-1.2,3.7-1.7,4.7-2.9c-1-1.2-3.3,0.1-5.2,0.7c-0.7-0.4,0.7-1.5-0.1-2.7
		c-1.7,0.5-2.1,1.7-2.9,2.6C86.8,21.5,84.5,20.2,82.9,20.8z"/>
	<path id="Path_3" class="st1" d="M82.9,20.8c1,1.2,2.2,2.2,3.7,2.8c-0.8,2.5-1.7,5-1.7,7.9c2.5-1.7,3.3-4.2,4.9-6.3
		c1.7,1.2,3,3.2,4.9,4.1c0.4-1.5-1.6-4.1-2.6-5.4c1.2-1.2,3.7-1.7,4.7-2.9c-1-1.2-3.3,0.1-5.2,0.7c-0.7-0.4,0.7-1.5-0.1-2.7
		c-1.7,0.5-2.1,1.7-2.9,2.6C86.8,21.5,84.5,20.2,82.9,20.8z"/>
	<path id="Path_4" class="st0" d="M55.8,24c-8.7,0-15.7,7-15.7,15.7s7,15.7,15.7,15.7s15.7-7,15.7-15.7l0,0C71.5,31,64.5,24,55.8,24
		C55.8,24,55.8,24,55.8,24z M55.8,48.8c-5,0-9.1-4.1-9.1-9.1s4.1-9.1,9.1-9.1s9.1,4.1,9.1,9.1c0,0,0,0,0,0
		C64.9,44.7,60.8,48.8,55.8,48.8C55.8,48.8,55.8,48.8,55.8,48.8z"/>
	<path id="Path_5" class="st0" d="M56.1,65.7L56.1,65.7c-12.2,0-20.6-5.7-25.9-17.3c-1.1-2.6-2.1-5.2-2.8-7.9
		c-2.6-8.4-4.2-11.7-9.2-11.4c-7,0.4-11,19.5-11.8,28.7c-0.2,1.7-1.7,3-3.4,2.9s-3-1.7-2.9-3.4l0,0c0.6-5.4,1.6-10.8,3-16.1
		c3.3-11.8,8.3-18,14.8-18.4c10.5-0.7,13.3,8.5,15.6,15.9c0.7,2.4,1.6,4.9,2.6,7.2c4.2,9.2,10.5,13.5,20,13.5h0.1
		c4.8,0,9.4-1.8,13-5c1.2-1.3,3.2-1.3,4.5-0.1s1.3,3.2,0.1,4.5c0,0,0,0-0.1,0.1C68.8,63.2,62.5,65.7,56.1,65.7z"/>
	<path id="Path_6" class="st0" d="M127.4,13.5L127.4,13.5c-12.1,1.3-19.9,7.8-23.9,19.9c-0.8,2.7-1.5,5.4-2,8.2
		c-1.7,8.6-2.9,12.1-8,12.3c-7,0.3-13-18.3-14.8-27.3c-0.3-1.7-1.9-2.9-3.6-2.6c-1.7,0.3-2.9,1.9-2.6,3.6c0,0.1,0,0.1,0,0.2
		c1.1,5.3,2.7,10.6,4.7,15.7c4.5,11.4,10.1,17,16.6,16.7c10.5-0.4,12.4-9.9,13.9-17.4c0.5-2.5,1.1-5,1.8-7.4
		c3.2-9.6,9.1-14.6,18.5-15.6c0,0,0,0,0.1,0c4.8-0.5,9.5,0.8,13.4,3.6c1.3,1.1,3.3,0.9,4.5-0.4s0.9-3.3-0.4-4.5
		C140.3,14.7,133.8,12.9,127.4,13.5L127.4,13.5z"/>
	<path id="Path_7" class="st0" d="M82.9,20.8c1,1.2,2.2,2.2,3.7,2.8c-0.8,2.5-1.7,5-1.7,7.9c2.5-1.7,3.3-4.2,4.9-6.3
		c1.7,1.2,3,3.2,4.9,4.1c0.4-1.5-1.6-4.1-2.6-5.4c1.2-1.2,3.7-1.7,4.7-2.9c-1-1.2-3.3,0.1-5.2,0.7c-0.7-0.4,0.7-1.5-0.1-2.7
		c-1.7,0.5-2.1,1.7-2.9,2.6C86.8,21.5,84.5,20.2,82.9,20.8z"/>
	<path id="Path_8" class="st0" d="M55.8,24c-8.7,0-15.7,7-15.7,15.7s7,15.7,15.7,15.7s15.7-7,15.7-15.7l0,0C71.5,31,64.5,24,55.8,24
		C55.8,24,55.8,24,55.8,24z M55.8,48.8c-5,0-9.1-4.1-9.1-9.1s4.1-9.1,9.1-9.1s9.1,4.1,9.1,9.1c0,0,0,0,0,0
		C64.9,44.7,60.8,48.8,55.8,48.8C55.8,48.8,55.8,48.8,55.8,48.8z"/>
	<path id="Path_9" class="st0" d="M233.2,24c2,0,3.9,0.4,5.7,1.1c1.8,0.7,3.4,1.8,4.8,3.2c1.4,1.4,2.5,3,3.3,4.8
		c0.8,1.9,1.3,4,1.2,6v13.1c0,0.8-0.3,1.6-0.9,2.2c-0.6,0.6-1.3,0.9-2.1,1c-0.8,0-1.6-0.3-2.1-0.8c-0.6-0.6-0.9-1.3-0.9-2.1V39.7
		c0-1.2-0.2-2.5-0.7-3.6c-0.4-1.1-1.1-2.1-1.9-3c-0.8-0.9-1.8-1.5-2.9-2c-1.1-0.5-2.3-0.8-3.6-0.7c-1.2,0-2.3,0.2-3.4,0.7
		c-1.1,0.4-2,1.1-2.8,1.9c-0.8,0.8-1.5,1.8-1.9,2.9c-0.5,1.1-0.7,2.3-0.7,3.5v12.9c0,0.8-0.3,1.7-0.9,2.2c-0.6,0.6-1.4,0.9-2.2,0.9
		c-0.8,0-1.6-0.3-2.2-0.8c-0.6-0.5-1-1.3-0.9-2.1V39.7c0.1-4.1,1.6-8.1,4.4-11.1c1.3-1.4,2.9-2.6,4.7-3.4
		C229.1,24.4,231.1,23.9,233.2,24z"/>
	<path id="Path_10" class="st0" d="M254.9,14.1c0.9,0,1.7,0.3,2.3,1c0.6,0.7,1,1.6,1,2.5v5.8h17.3c0.8,0,1.6,0.4,2.2,1
		c1.2,1.3,1.2,3.3-0.1,4.6c-0.5,0.6-1.3,1-2.1,1h-17.3v9.4c0,1.2,0.2,2.4,0.7,3.6c0.4,1.1,1.1,2.1,1.9,3c0.8,0.9,1.8,1.6,2.8,2.1
		c1.1,0.5,2.3,0.8,3.5,0.8c1.2,0,2.4-0.2,3.6-0.6c1-0.4,1.8-1,2.6-1.7h-0.1c1.3-1.2,3.3-1.2,4.6,0.1c0.6,0.6,0.9,1.4,0.9,2.3
		c0,0.4-0.1,0.7-0.2,1.1c-0.1,0.4-0.3,0.7-0.6,0.9h0.1c-1.4,1.4-3,2.5-4.7,3.4c-1.8,0.8-3.7,1.2-5.6,1.2c-2.1,0-4.1-0.4-6.1-1.1
		c-1.9-0.7-3.6-1.8-5-3.2c-1.5-1.4-2.6-3.2-3.4-5c-0.9-2.1-1.4-4.3-1.4-6.6V17.6c0-0.9,0.3-1.7,0.9-2.4
		C253.2,14.5,254,14.1,254.9,14.1z"/>
	<path id="Path_11" class="st0" d="M213.3,33.8c-0.8-1.8-1.9-3.5-3.3-5c-1.4-1.4-3-2.6-4.8-3.5c-3.6-1.8-7.8-1.8-11.4,0
		c-1.8,0.9-3.4,2-4.8,3.5c-1.4,1.4-2.5,3.1-3.3,5c-0.8,1.9-1.2,3.9-1.2,5.9c0,2.1,0.4,4.2,1.2,6.1c0.8,1.9,1.9,3.6,3.3,5.1
		c1.4,1.4,3,2.6,4.8,3.4c1.8,0.8,3.8,1.2,5.7,1.1c0.2,0,0.4,0,0.6-0.1c1.6,0,3.2-0.4,4.7-1.1c1.7-0.8,3.2-1.8,4.4-3.1l0.2-0.2
		c0.2-0.2,0.3-0.4,0.3-0.7c0.1-0.3,0.1-0.7,0.1-1c0-0.8-0.3-1.6-0.8-2.1c-1.2-1.2-3.1-1.2-4.3-0.1l0,0.1c-0.3,0.3-0.6,0.6-1,0.8
		c-0.6,0.4-1.3,0.6-2,0.8c-0.7,0.2-1.5,0.3-2.2,0.3c-1.7,0-3.3-0.5-4.7-1.4c-1.8-1.2-3.2-2.8-4.1-4.7h20.6c0.9,0.1,1.7-0.3,2.3-0.9
		c0.6-0.6,0.9-1.4,0.9-2.3C214.5,37.7,214.1,35.7,213.3,33.8z M190.6,36.5c0-0.1,0.1-0.2,0.1-0.3c0.9-1.6,2.1-3,3.6-4.1
		c3.1-2.2,7.2-2.2,10.3,0c1.6,1.1,2.8,2.5,3.8,4.2v0.1c0,0,0,0.1,0.1,0.1L190.6,36.5z"/>
	<path id="Path_12" class="st0" d="M131.1,23.9c1.9,0.2,3.8,0.8,5.5,1.7c1.7,0.9,3.2,2.1,4.4,3.5c1.2,1.4,2.2,3.1,2.9,4.8
		c0.7,1.8,1.1,3.8,1.1,5.7v12.6c0,0.9-0.3,1.7-1,2.3c-0.6,0.6-1.4,0.9-2.2,0.9c-0.3,0-0.7,0-1-0.1c-0.4,0-0.7-0.2-1.1-0.4
		c-0.4-0.2-0.7-0.5-0.9-0.8c-0.3-0.4-0.5-0.9-0.5-1.4c-0.2,0.1-0.6,0.3-1.2,0.6s-1,0.5-1.2,0.7c-0.5,0.2-1,0.4-1.5,0.6
		c-0.5,0.2-1.1,0.3-1.6,0.5c-1.2,0.2-2.3,0.3-3.5,0.3c-3.1,0-6.2-0.9-8.8-2.6c-2.5-1.7-4.5-4.1-5.7-6.8c-0.4-1-0.8-2-1-3
		c-0.2-1.1-0.4-2.2-0.4-3.3c0-1.1,0.1-2.2,0.4-3.3c0.2-1.1,0.6-2.1,1-3.1c1.2-2.8,3.2-5.2,5.7-6.9c2.6-1.7,5.6-2.7,8.8-2.6h0.9
		C130.5,23.9,130.8,23.9,131.1,23.9z M129.2,49.1c1.2,0,2.5-0.2,3.6-0.7c1.1-0.5,2.1-1.1,3-2c0.9-0.9,1.5-1.9,2-3
		c0.5-1.2,0.8-2.4,0.8-3.7c0-1.2-0.3-2.4-0.8-3.6c-0.5-1.1-1.2-2.1-2.1-3c-0.9-0.9-1.9-1.5-3-2.1c-1.1-0.5-2.4-0.8-3.6-0.8
		c-1.2,0-2.4,0.2-3.6,0.8c-1.1,0.5-2.1,1.2-3,2.1c-0.9,0.9-1.6,1.9-2.1,3c-0.5,1.1-0.8,2.4-0.8,3.6c0,1.3,0.3,2.5,0.8,3.7
		c0.5,1.1,1.2,2.1,2.1,3c0.9,0.8,1.9,1.5,3,2C126.9,48.8,128,49.1,129.2,49.1z"/>
	<path id="Path_13" class="st0" d="M298.1,23.9c1.9,0.2,3.8,0.8,5.5,1.7c1.7,0.9,3.2,2.1,4.4,3.5c1.3,1.4,2.2,3.1,2.9,4.8
		c0.7,1.8,1.1,3.8,1.1,5.7v12.6c0,0.9-0.3,1.7-1,2.3c-0.6,0.6-1.4,0.9-2.2,0.9c-0.3,0-0.7,0-1-0.1c-0.4,0-0.7-0.2-1.1-0.4
		c-0.4-0.2-0.7-0.5-1-0.8c-0.3-0.4-0.5-0.9-0.5-1.4c-0.2,0.1-0.6,0.3-1.2,0.6s-1,0.5-1.2,0.7c-0.5,0.2-1,0.4-1.5,0.6
		c-0.5,0.2-1.1,0.3-1.6,0.5c-1.2,0.2-2.3,0.3-3.5,0.3c-3.1,0-6.2-0.9-8.8-2.6c-2.5-1.7-4.5-4.1-5.7-6.8c-0.4-1-0.8-2-1-3
		c-0.2-1.1-0.4-2.2-0.4-3.3c0-1.1,0.1-2.2,0.4-3.3c0.2-1.1,0.6-2.1,1-3.1c1.2-2.8,3.2-5.2,5.7-6.9c2.6-1.7,5.6-2.7,8.8-2.6h0.9
		C297.5,23.9,297.8,23.9,298.1,23.9z M296.2,49.1c1.2,0,2.5-0.2,3.6-0.7c1.1-0.5,2.1-1.1,3-2c0.9-0.9,1.5-1.9,2-3
		c0.5-1.2,0.8-2.4,0.7-3.7c0-1.2-0.3-2.4-0.7-3.6c-0.5-1.1-1.2-2.1-2.1-3c-0.9-0.9-1.9-1.5-3-2.1c-2.3-1-4.9-1-7.1,0
		c-1.1,0.5-2.1,1.2-3,2.1c-0.9,0.9-1.6,1.9-2.1,3c-0.5,1.1-0.8,2.4-0.8,3.6c0,1.3,0.3,2.5,0.8,3.7c0.5,1.1,1.2,2.1,2.1,3
		c0.9,0.8,1.9,1.5,3,2C293.8,48.8,295,49.1,296.2,49.1L296.2,49.1z"/>
	<path id="Path_14" class="st0" d="M85.5,9.6c0.4,1.1,1.1,2,2,2.7c-1.2,1.6-2.1,3.3-2.7,5.2c2.1-0.7,3.1-2.3,4.7-3.5
		c1,1.2,1.5,2.8,2.7,3.8c0.6-1-0.4-3.2-0.8-4.3c1.1-0.6,2.9-0.5,3.9-1.2c-0.5-1-2.4-0.5-3.8-0.5c-0.4-0.4,0.8-0.9,0.5-1.9
		c-1.3,0-1.8,0.8-2.6,1.3C88.1,10.8,86.7,9.5,85.5,9.6z"/>
	<path id="Path_15" class="st0" d="M82.9,20.7c1,1.2,2.2,2.2,3.7,2.8c-0.8,2.5-1.7,5-1.7,7.9c2.5-1.7,3.3-4.2,4.9-6.3
		c1.7,1.2,3,3.2,4.9,4c0.4-1.5-1.6-4.1-2.6-5.4c1.2-1.2,3.7-1.7,4.7-2.9c-1-1.2-3.3,0.1-5.2,0.7c-0.7-0.4,0.7-1.5-0.1-2.7
		c-1.7,0.5-2.1,1.7-2.9,2.6C86.8,21.4,84.4,20.1,82.9,20.7z"/>
	<path id="Path_16" class="st0" d="M109.8,0c0,0,2.1,3.5-0.9,5.7c0,0,5.4-0.4,7.2,1.8c0,0-0.8,2.7-7.1,1.6c0,0,1.2,5.6,0,7.8
		c0,0-3.4,0.1-3.6-8.1c0,0-5.9,6.7-10.7,7.3c1.5-3.8,4-7.2,7.2-9.8c0,0-4.4-2.1-3.9-5.8c0,0,4.6,0.9,7.5,3.6
		C105.4,4.3,107.1,0.2,109.8,0z"/>
	<path id="Path_17" class="st0" d="M123.1,69.8c0.2,0.4,0.6,0.8,1,1c0.4,0.2,0.9,0.3,1.4,0.3c0.3,0,0.6,0,0.9-0.1
		c0.3-0.1,0.5-0.2,0.7-0.4c0.2-0.2,0.4-0.4,0.5-0.6c0.1-0.3,0.2-0.6,0.2-0.9c0-0.3-0.1-0.6-0.2-0.9c-0.2-0.2-0.4-0.4-0.6-0.6
		c-0.3-0.2-0.6-0.3-0.9-0.4c-0.3-0.1-0.7-0.2-1-0.3c-0.3-0.1-0.7-0.2-1-0.4c-0.3-0.1-0.6-0.3-0.9-0.5c-0.3-0.2-0.5-0.5-0.6-0.8
		c-0.2-0.4-0.2-0.8-0.2-1.2c0-0.4,0.1-0.9,0.3-1.2c0.2-0.4,0.4-0.7,0.7-0.9c0.3-0.2,0.7-0.4,1.1-0.5c0.4-0.1,0.8-0.2,1.3-0.2
		c0.5,0,1.1,0.1,1.6,0.3c0.5,0.2,0.9,0.6,1.3,1l-0.8,0.6c-0.2-0.3-0.5-0.6-0.9-0.8c-0.4-0.2-0.8-0.3-1.2-0.3c-0.3,0-0.6,0-0.9,0.1
		c-0.3,0.1-0.5,0.2-0.7,0.4c-0.2,0.2-0.4,0.4-0.5,0.6c-0.1,0.3-0.2,0.6-0.2,0.9c0,0.4,0.1,0.9,0.4,1.2c0.3,0.3,0.6,0.5,1,0.7
		c0.4,0.2,0.9,0.3,1.3,0.4c0.5,0.1,0.9,0.3,1.3,0.5c0.4,0.2,0.7,0.5,1,0.9c0.3,0.5,0.4,1,0.4,1.5c0,0.4-0.1,0.9-0.3,1.3
		c-0.2,0.4-0.4,0.7-0.7,0.9c-0.3,0.3-0.7,0.4-1,0.6c-0.4,0.1-0.8,0.2-1.2,0.2c-0.7,0-1.3-0.1-1.9-0.4c-0.6-0.3-1.1-0.7-1.5-1.2
		L123.1,69.8z"/>
	<path id="Path_18" class="st0" d="M130.8,62.2c0-0.4,0.3-0.7,0.7-0.6c0.4,0,0.7,0.3,0.6,0.7c0,0.4-0.3,0.7-0.7,0.6
		c-0.2,0-0.3-0.1-0.5-0.2C130.8,62.5,130.7,62.4,130.8,62.2z M131,64.9h0.9v6.8H131V64.9z"/>
	<path id="Path_19" class="st0" d="M140.4,70.4c-0.3,0.5-0.8,0.9-1.3,1.1c-0.5,0.2-1.1,0.3-1.7,0.3c-0.5,0-1-0.1-1.4-0.3
		c-0.4-0.2-0.8-0.4-1.1-0.7c-0.3-0.3-0.5-0.7-0.7-1.1c-0.2-0.5-0.3-1-0.2-1.5c0-0.5,0.1-1,0.3-1.4c0.2-0.4,0.4-0.8,0.7-1.1
		c0.3-0.3,0.7-0.6,1.1-0.8c0.4-0.2,0.9-0.3,1.4-0.3c0.5,0,0.9,0.1,1.4,0.3c0.4,0.2,0.7,0.4,1,0.7c0.3,0.3,0.5,0.6,0.6,1
		c0.1,0.4,0.2,0.8,0.2,1.2v0.6h-5.7c0,0.2,0,0.5,0.1,0.7c0.2,0.7,0.6,1.2,1.2,1.6c0.4,0.2,0.8,0.3,1.3,0.3c0.5,0,0.9-0.1,1.3-0.3
		c0.4-0.2,0.7-0.5,1-0.9L140.4,70.4z M139.7,67.7c0-0.3-0.1-0.6-0.2-0.9c-0.1-0.3-0.3-0.5-0.5-0.7c-0.5-0.4-1.1-0.7-1.7-0.7
		c-0.4,0-0.8,0.1-1.2,0.3c-0.3,0.2-0.6,0.4-0.8,0.7c-0.2,0.2-0.3,0.5-0.4,0.7c-0.1,0.2-0.1,0.3-0.1,0.5L139.7,67.7z"/>
	<path id="Path_20" class="st0" d="M142.6,66.8c0-0.1,0-0.3,0-0.5s0-0.4,0-0.6s0-0.4,0-0.5s0-0.3,0-0.4h0.9c0,0.3,0,0.5,0,0.7
		c0,0.2,0,0.3,0,0.5h0c0.2-0.4,0.5-0.7,0.9-1c0.4-0.3,0.9-0.4,1.4-0.4c0.4,0,0.9,0.1,1.2,0.3c0.4,0.3,0.7,0.7,0.8,1.1
		c0.2-0.5,0.5-0.9,1-1.1c0.4-0.2,0.9-0.4,1.4-0.4c0.4,0,0.9,0.1,1.3,0.3c0.3,0.2,0.6,0.4,0.8,0.7c0.2,0.3,0.3,0.6,0.4,0.9
		c0.1,0.4,0.1,0.7,0.1,1.1v4.1H152v-4c0-0.3,0-0.5-0.1-0.8c0-0.2-0.1-0.5-0.3-0.7c-0.1-0.2-0.3-0.4-0.5-0.5
		c-0.3-0.1-0.6-0.2-0.9-0.2c-0.4,0-0.7,0.1-1,0.2c-0.3,0.1-0.5,0.3-0.6,0.6c-0.2,0.2-0.3,0.5-0.3,0.8c-0.1,0.3-0.1,0.5-0.1,0.8v3.8
		h-0.9v-4.1c0-0.5-0.1-1.1-0.3-1.5c-0.2-0.4-0.6-0.6-1.1-0.6c-0.3,0-0.6,0.1-0.9,0.2c-0.3,0.1-0.5,0.3-0.8,0.5
		c-0.2,0.3-0.4,0.6-0.5,0.9c-0.1,0.4-0.2,0.8-0.2,1.2v3.4h-0.9L142.6,66.8z"/>
	<path id="Path_21" class="st0" d="M155,64.9h0.9v1.2h0c0.1-0.2,0.3-0.4,0.5-0.6c0.2-0.2,0.4-0.3,0.7-0.4c0.2-0.1,0.5-0.2,0.8-0.3
		c0.3-0.1,0.5-0.1,0.8-0.1c0.5,0,1,0.1,1.4,0.3c0.9,0.3,1.5,1,1.9,1.9c0.4,0.9,0.4,2,0,2.9c-0.3,0.9-1,1.5-1.9,1.9
		c-0.5,0.2-0.9,0.3-1.4,0.3c-0.3,0-0.5,0-0.8-0.1c-0.3-0.1-0.5-0.1-0.8-0.3c-0.2-0.1-0.5-0.3-0.7-0.4c-0.2-0.2-0.4-0.4-0.5-0.6h0
		v4.6H155V64.9z M155.8,68.3c0,0.4,0.1,0.7,0.2,1.1c0.1,0.3,0.3,0.6,0.6,0.9c0.3,0.3,0.6,0.5,0.9,0.6c0.4,0.2,0.7,0.2,1.1,0.2
		c0.4,0,0.8-0.1,1.1-0.2c0.3-0.1,0.6-0.3,0.9-0.6c0.2-0.3,0.4-0.6,0.5-0.9c0.2-0.7,0.2-1.5,0-2.2c-0.1-0.3-0.3-0.6-0.5-0.9
		c-0.2-0.3-0.5-0.5-0.9-0.6c-0.4-0.2-0.7-0.2-1.1-0.2c-0.4,0-0.8,0.1-1.1,0.2c-0.3,0.1-0.6,0.3-0.9,0.6c-0.3,0.3-0.5,0.6-0.6,0.9
		C155.9,67.6,155.8,67.9,155.8,68.3L155.8,68.3z"/>
	<path id="Path_22" class="st0" d="M164.3,66.8c0-0.1,0-0.3,0-0.5s0-0.4,0-0.6s0-0.4,0-0.5s0-0.3,0-0.4h0.9c0,0.3,0,0.5,0,0.7
		c0,0.2,0,0.3,0,0.5c0.2-0.4,0.5-0.7,0.9-1c0.4-0.3,0.8-0.4,1.3-0.4c0.1,0,0.2,0,0.3,0c0.1,0,0.2,0,0.3,0.1l-0.1,0.9
		c-0.1,0-0.2-0.1-0.3-0.1c-0.3,0-0.7,0.1-1,0.2c-0.3,0.1-0.5,0.3-0.7,0.5c-0.2,0.2-0.3,0.5-0.4,0.8c-0.1,0.3-0.1,0.6-0.1,0.9v3.7
		h-0.9L164.3,66.8z"/>
	<path id="Path_23" class="st0" d="M175,70.4c-0.3,0.5-0.8,0.9-1.3,1.1c-0.5,0.2-1.1,0.3-1.7,0.3c-0.5,0-1-0.1-1.4-0.3
		c-0.4-0.2-0.8-0.4-1.1-0.7c-0.3-0.3-0.5-0.7-0.7-1.1c-0.2-0.5-0.2-1-0.2-1.5c0-0.5,0.1-1,0.3-1.4c0.2-0.4,0.4-0.8,0.7-1.1
		c0.3-0.3,0.7-0.6,1.1-0.8c0.4-0.2,0.9-0.3,1.4-0.3c0.5,0,0.9,0.1,1.4,0.3c0.4,0.2,0.7,0.4,1,0.7c0.3,0.3,0.5,0.6,0.6,1
		c0.1,0.4,0.2,0.8,0.2,1.2v0.6h-5.7c0,0.2,0,0.5,0.1,0.7c0.1,0.3,0.2,0.6,0.4,0.9c0.2,0.3,0.5,0.5,0.8,0.7c0.4,0.2,0.8,0.3,1.3,0.3
		c0.5,0,0.9-0.1,1.3-0.3c0.4-0.2,0.7-0.5,1-0.9L175,70.4z M174.3,67.7c0-0.3-0.1-0.6-0.2-0.9c-0.1-0.3-0.3-0.5-0.5-0.7
		c-0.2-0.2-0.5-0.4-0.8-0.5c-0.3-0.1-0.6-0.2-0.9-0.2c-0.4,0-0.8,0.1-1.2,0.3c-0.3,0.2-0.6,0.4-0.8,0.7c-0.2,0.2-0.3,0.5-0.4,0.7
		c-0.1,0.2-0.1,0.3-0.1,0.5L174.3,67.7z"/>
	<path id="Path_24" class="st0" d="M186.3,68.8c0,0.3,0,0.6,0,0.9s0,0.5,0,0.7s0,0.4,0,0.6s0,0.4,0.1,0.6h-0.8
		c-0.1-0.4-0.1-0.7-0.1-1.1h0c-0.2,0.4-0.6,0.7-1,1c-0.4,0.2-0.9,0.3-1.4,0.3c-0.3,0-0.6,0-0.9-0.1c-0.3-0.1-0.5-0.2-0.8-0.4
		c-0.5-0.4-0.8-0.9-0.8-1.6c0-0.4,0.1-0.9,0.4-1.2c0.3-0.3,0.6-0.5,1-0.7c0.4-0.2,0.8-0.3,1.2-0.3c0.4,0,0.8-0.1,1.2-0.1h1v-0.4
		c0-0.5-0.2-1-0.5-1.3c-0.4-0.3-0.9-0.4-1.4-0.4c-0.8,0-1.5,0.3-2.1,0.8l-0.5-0.6c0.3-0.3,0.8-0.6,1.2-0.7c0.4-0.2,0.9-0.2,1.4-0.2
		c0.7,0,1.4,0.2,2,0.6c0.5,0.5,0.8,1.2,0.7,1.9V68.8z M184.5,68.3c-0.4,0-0.7,0-1.1,0.1c-0.3,0-0.6,0.1-0.9,0.3
		c-0.3,0.1-0.5,0.3-0.7,0.5c-0.3,0.4-0.3,0.9-0.1,1.3c0.1,0.2,0.2,0.3,0.4,0.4c0.2,0.1,0.3,0.2,0.5,0.2c0.2,0.1,0.4,0.1,0.6,0.1
		c0.4,0,0.8-0.1,1.2-0.2c0.3-0.1,0.5-0.3,0.7-0.5c0.2-0.2,0.3-0.5,0.4-0.8c0.1-0.3,0.1-0.6,0.1-0.9v-0.5L184.5,68.3z"/>
	<path id="Path_25" class="st0" d="M188.8,60.5h0.9v11.2h-0.9V60.5z"/>
	<path id="Path_26" class="st0" d="M192.4,60.5h0.9v11.2h-0.9V60.5z"/>
	<path id="Path_27" class="st0" d="M197.1,61.2h1.2l-2,2.1h-0.7L197.1,61.2z M195.9,64.9h0.9v6.8h-0.9V64.9z"/>
	<path id="Path_28" class="st0" d="M199.9,70.4h1l-1.1,3.4h-0.9L199.9,70.4z"/>
	<path id="Path_29" class="st0" d="M207.1,70c0.2,0.4,0.5,0.7,0.8,0.8c0.4,0.2,0.8,0.3,1.2,0.3c0.2,0,0.4,0,0.6-0.1
		c0.2-0.1,0.3-0.1,0.5-0.3c0.1-0.1,0.3-0.2,0.4-0.4c0.1-0.2,0.1-0.3,0.1-0.5c0-0.3-0.1-0.5-0.3-0.7c-0.2-0.2-0.5-0.3-0.7-0.4
		c-0.3-0.1-0.6-0.2-1-0.2c-0.3-0.1-0.7-0.2-1-0.3c-0.3-0.1-0.5-0.3-0.7-0.6c-0.2-0.3-0.3-0.6-0.3-1c0-0.3,0.1-0.6,0.2-0.9
		c0.1-0.2,0.3-0.5,0.5-0.6c0.2-0.2,0.5-0.3,0.7-0.4c0.3-0.1,0.6-0.1,0.8-0.1c0.5,0,1,0.1,1.5,0.3c0.4,0.2,0.8,0.6,1,1l-0.8,0.5
		c-0.1-0.3-0.4-0.5-0.6-0.7c-0.5-0.2-1-0.3-1.5-0.2c-0.2,0-0.3,0.1-0.5,0.2c-0.1,0.1-0.3,0.2-0.3,0.3c-0.1,0.1-0.1,0.3-0.1,0.5
		c0,0.3,0.1,0.5,0.3,0.7c0.2,0.2,0.5,0.3,0.7,0.3c0.3,0.1,0.6,0.2,1,0.2c0.3,0.1,0.7,0.2,1,0.3c0.3,0.1,0.6,0.3,0.8,0.6
		c0.2,0.3,0.3,0.7,0.3,1.1c0,0.3-0.1,0.6-0.2,0.9c-0.1,0.3-0.3,0.5-0.5,0.7c-0.2,0.2-0.5,0.3-0.8,0.4c-0.3,0.1-0.6,0.1-0.9,0.1
		c-0.6,0-1.1-0.1-1.6-0.3c-0.5-0.2-0.9-0.6-1.1-1.1L207.1,70z"/>
	<path id="Path_30" class="st0" d="M213.3,62.2c0-0.4,0.3-0.7,0.7-0.7c0.2,0,0.3,0.1,0.5,0.2c0.3,0.3,0.3,0.7,0,0.9s-0.7,0.3-0.9,0
		C213.3,62.5,213.3,62.4,213.3,62.2z M213.5,64.9h0.9v6.8h-0.9L213.5,64.9z"/>
	<path id="Path_31" class="st0" d="M222.9,70.4c-0.3,0.5-0.8,0.9-1.3,1.1c-0.5,0.2-1.1,0.3-1.7,0.3c-0.5,0-1-0.1-1.4-0.3
		c-0.4-0.2-0.8-0.4-1.1-0.7c-0.3-0.3-0.5-0.7-0.7-1.1c-0.2-0.5-0.2-1-0.2-1.5c0-0.5,0.1-1,0.3-1.4c0.5-1.3,1.8-2.2,3.2-2.2
		c0.5,0,0.9,0.1,1.4,0.3c0.4,0.2,0.7,0.4,1,0.7c0.3,0.3,0.5,0.6,0.6,1c0.1,0.4,0.2,0.8,0.2,1.2v0.6h-5.7c0,0.2,0,0.5,0.1,0.7
		c0.1,0.3,0.2,0.6,0.4,0.9c0.2,0.3,0.5,0.5,0.8,0.7c0.4,0.2,0.8,0.3,1.3,0.3c0.5,0,0.9-0.1,1.3-0.3c0.4-0.2,0.7-0.5,1-0.9
		L222.9,70.4z M222.3,67.7c0-0.3-0.1-0.6-0.2-0.9c-0.1-0.3-0.3-0.5-0.5-0.7c-0.2-0.2-0.5-0.4-0.8-0.5c-0.3-0.1-0.6-0.2-0.9-0.2
		c-0.4,0-0.8,0.1-1.2,0.3c-0.3,0.2-0.6,0.4-0.8,0.7c-0.2,0.2-0.3,0.5-0.4,0.7c-0.1,0.2-0.1,0.3-0.1,0.5L222.3,67.7z"/>
	<path id="Path_32" class="st0" d="M225.1,66.8c0-0.1,0-0.3,0-0.5s0-0.4,0-0.6s0-0.4,0-0.5s0-0.3,0-0.4h0.9c0,0.3,0,0.5,0,0.7
		c0,0.2,0,0.3,0,0.5h0c0.2-0.4,0.5-0.7,0.9-1c0.4-0.3,0.9-0.4,1.4-0.4c0.4,0,0.9,0.1,1.2,0.3c0.4,0.3,0.7,0.7,0.8,1.1
		c0.2-0.5,0.5-0.9,1-1.1c0.4-0.2,0.9-0.4,1.4-0.4c0.4,0,0.9,0.1,1.3,0.3c0.3,0.2,0.6,0.4,0.8,0.7c0.2,0.3,0.3,0.6,0.4,0.9
		c0.1,0.4,0.1,0.7,0.1,1.1v4.1h-0.9v-4c0-0.3,0-0.5-0.1-0.8c0-0.2-0.1-0.5-0.3-0.7c-0.1-0.2-0.3-0.4-0.5-0.5
		c-0.3-0.1-0.6-0.2-0.9-0.2c-0.4,0-0.7,0.1-1,0.2c-0.3,0.1-0.5,0.3-0.6,0.6c-0.2,0.2-0.3,0.5-0.3,0.8c-0.1,0.3-0.1,0.5-0.1,0.8v3.8
		h-0.9v-4.1c0-0.5-0.1-1.1-0.3-1.5c-0.2-0.4-0.6-0.6-1.1-0.6c-0.3,0-0.6,0.1-0.9,0.2c-0.3,0.1-0.5,0.3-0.8,0.5
		c-0.2,0.3-0.4,0.6-0.5,0.9c-0.1,0.4-0.2,0.8-0.2,1.2v3.4h-0.9L225.1,66.8z"/>
	<path id="Path_33" class="st0" d="M237.5,64.9h0.9v1.2h0c0.1-0.2,0.3-0.4,0.5-0.6c0.2-0.2,0.4-0.3,0.7-0.4c0.2-0.1,0.5-0.2,0.8-0.3
		c0.3-0.1,0.5-0.1,0.8-0.1c0.5,0,1,0.1,1.4,0.3c0.9,0.3,1.5,1,1.9,1.9c0.4,0.9,0.4,2,0,2.9c-0.3,0.9-1,1.5-1.9,1.9
		c-0.5,0.2-0.9,0.3-1.4,0.3c-0.3,0-0.5,0-0.8-0.1c-0.3-0.1-0.5-0.1-0.8-0.3c-0.2-0.1-0.5-0.3-0.7-0.4c-0.2-0.2-0.4-0.4-0.5-0.6h0
		v4.6h-0.9L237.5,64.9z M238.3,68.3c0,0.4,0.1,0.7,0.2,1.1c0.1,0.3,0.3,0.6,0.6,0.9c0.3,0.3,0.6,0.5,0.9,0.6
		c0.4,0.2,0.7,0.2,1.1,0.2c0.4,0,0.8-0.1,1.1-0.2c0.3-0.1,0.6-0.3,0.9-0.6c0.2-0.3,0.4-0.6,0.5-0.9c0.2-0.7,0.2-1.5,0-2.2
		c-0.1-0.3-0.3-0.6-0.5-0.9c-0.2-0.3-0.5-0.5-0.9-0.6c-0.4-0.1-0.7-0.2-1.1-0.2c-0.4,0-0.8,0.1-1.1,0.2c-0.3,0.1-0.6,0.3-0.9,0.6
		c-0.3,0.3-0.5,0.6-0.6,0.9C238.4,67.6,238.3,67.9,238.3,68.3L238.3,68.3z"/>
	<path id="Path_34" class="st0" d="M246.8,66.8c0-0.1,0-0.3,0-0.5s0-0.4,0-0.6s0-0.4,0-0.5s0-0.3,0-0.4h0.9c0,0.3,0,0.5,0,0.7
		c0,0.2,0,0.3,0,0.5c0.2-0.4,0.5-0.7,0.9-1c0.4-0.3,0.8-0.4,1.3-0.4c0.1,0,0.2,0,0.3,0c0.1,0,0.2,0,0.3,0.1l-0.1,0.9
		c-0.1,0-0.2-0.1-0.3-0.1c-0.3,0-0.7,0.1-1,0.2c-0.3,0.1-0.5,0.3-0.7,0.5c-0.2,0.2-0.3,0.5-0.4,0.8c-0.1,0.3-0.1,0.6-0.1,0.9v3.7
		h-0.9L246.8,66.8z"/>
	<path id="Path_35" class="st0" d="M257.5,70.4c-0.3,0.5-0.8,0.9-1.3,1.1c-0.5,0.2-1.1,0.3-1.7,0.3c-0.5,0-1-0.1-1.4-0.3
		c-0.4-0.2-0.8-0.4-1.1-0.7c-0.3-0.3-0.5-0.7-0.7-1.1c-0.2-0.5-0.2-1-0.2-1.5c0-0.5,0.1-1,0.3-1.4c0.5-1.3,1.8-2.2,3.2-2.2
		c0.5,0,0.9,0.1,1.4,0.3c0.4,0.2,0.7,0.4,1,0.7c0.3,0.3,0.5,0.6,0.6,1c0.1,0.4,0.2,0.8,0.2,1.2v0.6h-5.7c0,0.2,0,0.5,0.1,0.7
		c0.1,0.3,0.2,0.6,0.4,0.9c0.2,0.3,0.5,0.5,0.8,0.7c0.4,0.2,0.8,0.3,1.3,0.3c0.5,0,0.9-0.1,1.3-0.3c0.4-0.2,0.7-0.5,1-0.9
		L257.5,70.4z M256.8,67.7c0-0.3-0.1-0.6-0.2-0.9c-0.1-0.3-0.3-0.5-0.5-0.7c-0.2-0.2-0.5-0.4-0.8-0.5c-0.3-0.1-0.6-0.2-0.9-0.2
		c-0.4,0-0.8,0.1-1.2,0.3c-0.3,0.2-0.6,0.4-0.8,0.7c-0.2,0.2-0.3,0.5-0.4,0.7c-0.1,0.2-0.1,0.3-0.1,0.5L256.8,67.7z"/>
	<path id="Path_36" class="st0" d="M269.2,70.7c-0.3,0.4-0.7,0.7-1.1,0.9c-0.4,0.2-0.9,0.3-1.4,0.3c-0.5,0-1-0.1-1.5-0.3
		c-0.4-0.2-0.8-0.4-1.1-0.7c-0.3-0.3-0.6-0.7-0.7-1.1c-0.4-0.9-0.4-2,0-2.9c0.2-0.4,0.4-0.8,0.7-1.1c0.3-0.3,0.7-0.6,1.1-0.7
		c0.5-0.2,1-0.3,1.5-0.3c0.5,0,1,0.1,1.4,0.3c0.4,0.2,0.8,0.5,1.1,0.9l-0.7,0.5c-0.2-0.3-0.5-0.5-0.8-0.7c-0.3-0.2-0.6-0.2-1-0.2
		c-0.4,0-0.8,0.1-1.1,0.2c-0.3,0.1-0.6,0.3-0.9,0.6c-0.2,0.3-0.4,0.6-0.5,0.9c-0.2,0.7-0.2,1.5,0,2.2c0.1,0.3,0.3,0.6,0.5,0.9
		c0.2,0.3,0.5,0.5,0.9,0.6c0.4,0.2,0.7,0.2,1.1,0.2c0.4,0,0.7-0.1,1-0.3c0.3-0.2,0.6-0.4,0.8-0.7L269.2,70.7z"/>
	<path id="Path_37" class="st0" d="M270.2,68.3c0-0.5,0.1-1,0.3-1.4c0.2-0.4,0.4-0.8,0.7-1.1c0.3-0.3,0.7-0.6,1.1-0.7
		c0.5-0.2,1-0.3,1.4-0.3c0.5,0,1,0.1,1.4,0.3c0.9,0.3,1.5,1,1.9,1.9c0.4,0.9,0.4,2,0,2.9c-0.2,0.4-0.4,0.8-0.7,1.1
		c-0.3,0.3-0.7,0.6-1.1,0.7c-0.5,0.2-0.9,0.3-1.4,0.3c-0.5,0-1-0.1-1.4-0.3c-0.4-0.2-0.8-0.4-1.1-0.7c-0.3-0.3-0.6-0.7-0.7-1.1
		C270.3,69.3,270.2,68.8,270.2,68.3z M271.1,68.3c0,0.4,0.1,0.7,0.2,1.1c0.1,0.3,0.3,0.6,0.5,0.9c0.2,0.3,0.5,0.5,0.9,0.6
		c0.7,0.3,1.5,0.3,2.2,0c0.3-0.1,0.6-0.3,0.9-0.6c0.2-0.3,0.4-0.6,0.5-0.9c0.2-0.7,0.2-1.5,0-2.2c-0.1-0.3-0.3-0.6-0.5-0.9
		c-0.2-0.3-0.5-0.5-0.9-0.6c-0.7-0.3-1.5-0.3-2.2,0c-0.3,0.1-0.6,0.3-0.9,0.6c-0.2,0.3-0.4,0.6-0.5,0.9
		C271.2,67.6,271.1,67.9,271.1,68.3z"/>
	<path id="Path_38" class="st0" d="M279.4,66.8c0-0.1,0-0.3,0-0.5s0-0.4,0-0.6s0-0.4,0-0.5s0-0.3,0-0.4h0.9c0,0.3,0,0.5,0,0.7
		c0,0.2,0,0.3,0,0.5h0c0.2-0.4,0.5-0.7,0.9-1c0.4-0.3,0.9-0.4,1.4-0.4c0.4,0,0.9,0.1,1.3,0.3c0.3,0.2,0.6,0.4,0.8,0.7
		c0.2,0.3,0.3,0.6,0.4,0.9c0.1,0.4,0.1,0.7,0.1,1.1v4.1h-0.9v-4c0-0.3,0-0.5-0.1-0.8c0-0.2-0.1-0.5-0.3-0.7
		c-0.1-0.2-0.3-0.4-0.5-0.5c-0.3-0.1-0.6-0.2-0.9-0.2c-0.3,0-0.6,0.1-0.9,0.2c-0.3,0.1-0.5,0.3-0.8,0.5c-0.2,0.3-0.4,0.6-0.5,0.9
		c-0.1,0.4-0.2,0.8-0.2,1.2v3.4h-0.9L279.4,66.8z"/>
	<path id="Path_39" class="st0" d="M291,65.7h-2v4.5c0,0.3,0.1,0.5,0.3,0.7c0.2,0.2,0.4,0.3,0.7,0.3c0.2,0,0.3,0,0.5-0.1
		c0.2,0,0.3-0.1,0.5-0.2l0.1,0.8c-0.2,0.1-0.4,0.1-0.6,0.2c-0.2,0-0.4,0.1-0.6,0.1c-0.3,0-0.6,0-0.8-0.1c-0.4-0.2-0.7-0.5-0.9-0.9
		c-0.1-0.2-0.1-0.5-0.1-0.7v-4.5h-1.5v-0.8h1.5v-2h0.9v2h1.9V65.7z"/>
	<path id="Path_40" class="st0" d="M292.5,62.2c0-0.4,0.3-0.7,0.7-0.7c0.4,0,0.7,0.3,0.7,0.7s-0.3,0.7-0.7,0.7
		C292.8,62.8,292.5,62.5,292.5,62.2z M292.7,64.9h0.9v6.8h-0.9V64.9z"/>
	<path id="Path_41" class="st0" d="M303,71.3c0,0.7-0.1,1.4-0.4,2.1c-0.2,0.5-0.5,0.9-0.9,1.2c-0.4,0.3-0.8,0.5-1.2,0.6
		c-0.4,0.1-0.8,0.1-1.2,0.1c-0.3,0-0.7,0-1-0.1c-0.3-0.1-0.6-0.2-0.9-0.3c-0.3-0.1-0.6-0.3-0.8-0.5c-0.2-0.2-0.4-0.4-0.6-0.6
		l0.7-0.7c0.3,0.4,0.7,0.8,1.2,1c0.5,0.2,1,0.3,1.5,0.3c0.4,0,0.8,0,1.1-0.2c0.3-0.1,0.5-0.3,0.8-0.5c0.2-0.2,0.4-0.4,0.5-0.6
		c0.1-0.2,0.2-0.5,0.2-0.7c0.1-0.2,0.1-0.4,0.1-0.7c0-0.2,0-0.4,0-0.5v-0.9h0c-0.3,0.4-0.6,0.8-1,1c-0.5,0.2-1,0.4-1.5,0.4
		c-0.5,0-1-0.1-1.4-0.3c-0.9-0.3-1.6-1-1.9-1.9c-0.4-0.9-0.4-1.9,0-2.7c0.2-0.4,0.5-0.8,0.8-1.1c0.3-0.3,0.7-0.6,1.2-0.8
		c0.4-0.2,0.9-0.3,1.4-0.3c0.5,0,1.1,0.1,1.5,0.4c0.4,0.2,0.8,0.6,1,1h0v-1.2h0.9L303,71.3z M302.1,68.2c0-0.4-0.1-0.7-0.2-1.1
		c-0.3-0.6-0.8-1.2-1.4-1.4c-0.7-0.3-1.4-0.3-2.1,0c-0.6,0.3-1.2,0.8-1.4,1.4c-0.3,0.7-0.3,1.4,0,2.1c0.3,0.6,0.8,1.2,1.4,1.4
		c0.7,0.3,1.4,0.3,2.1,0c0.3-0.1,0.6-0.3,0.9-0.6c0.2-0.2,0.4-0.5,0.6-0.9C302.1,68.9,302.2,68.6,302.1,68.2L302.1,68.2z"/>
	<path id="Path_42" class="st0" d="M304.8,68.3c0-0.5,0.1-1,0.3-1.4c0.2-0.4,0.4-0.8,0.7-1.1c0.3-0.3,0.7-0.6,1.1-0.7
		c0.5-0.2,1-0.3,1.5-0.3c0.5,0,1,0.1,1.4,0.3c0.9,0.3,1.5,1,1.9,1.9c0.4,0.9,0.4,2,0,2.9c-0.3,0.9-1,1.5-1.9,1.9
		c-0.5,0.2-0.9,0.3-1.4,0.3c-0.5,0-1-0.1-1.5-0.3c-0.4-0.2-0.8-0.4-1.1-0.7c-0.3-0.3-0.6-0.7-0.7-1.1
		C304.9,69.3,304.8,68.8,304.8,68.3z M305.7,68.3c0,0.4,0.1,0.7,0.2,1.1c0.1,0.3,0.3,0.6,0.5,0.9c0.2,0.3,0.5,0.5,0.9,0.6
		c0.7,0.3,1.5,0.3,2.2,0c0.3-0.1,0.6-0.3,0.9-0.6c0.2-0.3,0.4-0.6,0.5-0.9c0.2-0.7,0.2-1.5,0-2.2c-0.1-0.3-0.3-0.6-0.5-0.9
		c-0.2-0.3-0.5-0.5-0.9-0.6c-0.7-0.3-1.5-0.3-2.2,0c-0.3,0.1-0.6,0.3-0.9,0.6c-0.2,0.3-0.4,0.6-0.5,0.9
		C305.7,67.6,305.7,67.9,305.7,68.3L305.7,68.3z"/>
</g>
</svg>
