<?xml version="1.0" encoding="utf-8"?>
<!-- Generator: Adobe Illustrator 27.1.1, SVG Export Plug-In . SVG Version: 6.00 Build 0)  -->
<svg version="1.1" id="Layer_1" xmlns="http://www.w3.org/2000/svg" xmlns:xlink="http://www.w3.org/1999/xlink" x="0px" y="0px"
	 viewBox="0 0 245 43" style="enable-background:new 0 0 245 43;" xml:space="preserve">
<style type="text/css">
	.st0{fill:#00539B;}
	.st1{fill-rule:evenodd;clip-rule:evenodd;fill:#878EC2;}
	.st2{fill-rule:evenodd;clip-rule:evenodd;fill:#00539B;}
	.st3{fill-rule:evenodd;clip-rule:evenodd;fill:#CE0E2D;}
	.st4{fill:#28593B;}
	.st5{fill:#3DAE2B;}
	.st6{fill:#1A5632;}
	.st7{fill:none;stroke:#00539B;stroke-width:0.1338;stroke-linecap:round;}
</style>
<g>
	<g>
		<g>
			<g>
				<path class="st0" d="M195.9,18.6c-0.8-0.2-1.2,0.4-1.4,0.9c-0.5,1.9-1.3,4.3-2.3,6c-0.2,0.4-0.7,1.5-1.8,1.5
					c-1,0-1.5-1.1-1.8-1.5c-1-1.7-1.8-4.2-2.3-6c-0.2-0.5-0.6-1.1-1.4-0.9c-0.9,0.2-0.7,1.2-0.6,1.6c0.5,1.7,1.1,3.7,1.9,5.4
					c0.8,1.6,1.8,3.5,4.1,3.5c2.3,0,3.3-1.9,4.1-3.5c0.8-1.6,1.4-3.7,1.9-5.4C196.6,19.8,196.7,18.9,195.9,18.6z"/>
				<path class="st1" d="M163.3,17.6c0.3,0.4,0.7,0.7,1.2,0.9c-0.3,0.8-0.6,1.6-0.6,2.6c0.8-0.5,1.1-1.4,1.6-2.1
					c0.6,0.4,1,1.1,1.6,1.3c0.1-0.5-0.5-1.4-0.9-1.8c0.4-0.4,1.2-0.6,1.6-1c-0.3-0.4-1.1,0-1.7,0.2c-0.2-0.1,0.2-0.5,0-0.9
					c-0.6,0.2-0.7,0.5-1,0.9C164.6,17.8,163.8,17.4,163.3,17.6z"/>
				<path class="st0" d="M154.4,18.6c-2.9,0-5.2,2.3-5.2,5.2c0,2.9,2.3,5.2,5.2,5.2c2.9,0,5.2-2.3,5.2-5.2
					C159.6,20.9,157.2,18.6,154.4,18.6z M154.4,26.8c-1.7,0-3-1.3-3-3c0-1.7,1.3-3,3-3c1.7,0,3,1.3,3,3
					C157.4,25.5,156,26.8,154.4,26.8z"/>
				<path class="st0" d="M154.5,32.4C154.5,32.4,154.5,32.4,154.5,32.4c-4,0-6.8-1.9-8.5-5.7c-0.4-0.9-0.7-1.7-0.9-2.6
					c-0.9-2.8-1.4-3.9-3-3.8c-2.3,0.1-3.6,6.4-3.9,9.5c-0.1,0.6-0.6,1-1.1,0.9c-0.6-0.1-1-0.6-0.9-1.1c0-0.1,0.2-2.7,1-5.3
					c1.1-3.9,2.7-5.9,4.9-6.1c3.4-0.2,4.4,2.8,5.2,5.2c0.3,0.8,0.5,1.6,0.8,2.4c1.4,3,3.5,4.5,6.6,4.5c0,0,0,0,0,0
					c2.6,0,4.3-1.6,4.3-1.6c0.4-0.4,1.1-0.4,1.5,0c0.4,0.4,0.4,1.1,0,1.5C160.1,30.2,158,32.4,154.5,32.4L154.5,32.4z"/>
				<path class="st0" d="M178,15.2C178,15.2,178,15.2,178,15.2c-4,0.4-6.6,2.6-7.9,6.6c-0.3,0.9-0.5,1.8-0.7,2.7
					c-0.6,2.8-1,4-2.6,4.1c-2.3,0.1-4.3-6-4.9-9c-0.1-0.6-0.7-0.9-1.2-0.8c-0.6,0.1-0.9,0.7-0.8,1.2c0,0.1,0.5,2.6,1.5,5.2
					c1.5,3.8,3.3,5.6,5.5,5.5c3.5-0.1,4.1-3.3,4.6-5.7c0.2-0.8,0.3-1.7,0.6-2.5c1-3.2,3-4.8,6.1-5.1c0,0,0,0,0,0
					c2.6-0.3,4.4,1.2,4.4,1.2c0.4,0.4,1.1,0.3,1.5-0.1c0.4-0.4,0.3-1.1-0.1-1.5C183.9,16.7,181.5,14.8,178,15.2L178,15.2z"/>
				<path class="st0" d="M154.4,18.6c-2.9,0-5.2,2.3-5.2,5.2c0,2.9,2.3,5.2,5.2,5.2c2.9,0,5.2-2.3,5.2-5.2
					C159.6,20.9,157.2,18.6,154.4,18.6z M154.4,26.8c-1.7,0-3-1.3-3-3c0-1.7,1.3-3,3-3c1.7,0,3,1.3,3,3
					C157.4,25.5,156,26.8,154.4,26.8z"/>
				<path class="st0" d="M154.5,32.4C154.5,32.4,154.5,32.4,154.5,32.4c-4,0-6.8-1.9-8.5-5.7c-0.4-0.9-0.7-1.7-0.9-2.6
					c-0.9-2.8-1.4-3.9-3-3.8c-2.3,0.1-3.6,6.4-3.9,9.5c-0.1,0.6-0.6,1-1.1,0.9c-0.6-0.1-1-0.6-0.9-1.1c0-0.1,0.2-2.7,1-5.3
					c1.1-3.9,2.7-5.9,4.9-6.1c3.4-0.2,4.4,2.8,5.2,5.2c0.3,0.8,0.5,1.6,0.8,2.4c1.4,3,3.5,4.5,6.6,4.5c0,0,0,0,0,0
					c2.6,0,4.3-1.6,4.3-1.6c0.4-0.4,1.1-0.4,1.5,0c0.4,0.4,0.4,1.1,0,1.5C160.1,30.2,158,32.4,154.5,32.4L154.5,32.4z"/>
				<path class="st0" d="M178,15.2C178,15.2,178,15.2,178,15.2c-4,0.4-6.6,2.6-7.9,6.6c-0.3,0.9-0.5,1.8-0.7,2.7
					c-0.6,2.8-1,4-2.6,4.1c-2.3,0.1-4.3-6-4.9-9c-0.1-0.6-0.7-0.9-1.2-0.8c-0.6,0.1-0.9,0.7-0.8,1.2c0,0.1,0.5,2.6,1.5,5.2
					c1.5,3.8,3.3,5.6,5.5,5.5c3.5-0.1,4.1-3.3,4.6-5.7c0.2-0.8,0.3-1.7,0.6-2.5c1-3.2,3-4.8,6.1-5.1c0,0,0,0,0,0
					c2.6-0.3,4.4,1.2,4.4,1.2c0.4,0.4,1.1,0.3,1.5-0.1c0.4-0.4,0.3-1.1-0.1-1.5C183.9,16.7,181.5,14.8,178,15.2L178,15.2z"/>
				<path class="st0" d="M212.9,18.6c0.7,0,1.3,0.1,1.9,0.4c0.6,0.3,1.1,0.6,1.6,1c0.5,0.4,0.8,1,1.1,1.6c0.3,0.6,0.4,1.3,0.4,2v4.3
					c0,0.3-0.1,0.5-0.3,0.7c-0.2,0.2-0.4,0.3-0.7,0.3c-0.3,0-0.5-0.1-0.7-0.3c-0.2-0.2-0.3-0.4-0.3-0.7v-4.2c0-0.4-0.1-0.8-0.2-1.2
					c-0.2-0.4-0.4-0.7-0.6-1c-0.3-0.3-0.6-0.5-0.9-0.7c-0.4-0.2-0.8-0.2-1.2-0.2c-0.4,0-0.8,0.1-1.1,0.2c-0.3,0.2-0.7,0.4-0.9,0.6
					c-0.3,0.3-0.5,0.6-0.6,0.9c-0.2,0.4-0.2,0.7-0.2,1.2v4.3c0,0.3-0.1,0.5-0.3,0.7c-0.2,0.2-0.4,0.3-0.7,0.3
					c-0.3,0-0.5-0.1-0.7-0.3c-0.2-0.2-0.3-0.4-0.3-0.7v-4.2c0-0.7,0.2-1.4,0.4-2c0.3-0.6,0.6-1.2,1-1.7c0.4-0.5,1-0.8,1.6-1.1
					C211.5,18.7,212.2,18.6,212.9,18.6z"/>
				<path class="st0" d="M220.1,15.4c0.3,0,0.5,0.1,0.7,0.3c0.2,0.2,0.3,0.5,0.3,0.8v1.9h5.7c0.3,0,0.5,0.1,0.7,0.3
					c0.2,0.2,0.3,0.5,0.3,0.8c0,0.3-0.1,0.5-0.3,0.8c-0.2,0.2-0.4,0.3-0.7,0.3h-5.7v3.1c0,0.4,0.1,0.8,0.2,1.2
					c0.1,0.4,0.4,0.7,0.6,1c0.3,0.3,0.6,0.5,0.9,0.7c0.4,0.2,0.7,0.3,1.2,0.3c0.5,0,0.9-0.1,1.2-0.2c0.3-0.1,0.6-0.3,0.8-0.6h0
					c0.2-0.2,0.5-0.3,0.8-0.3c0.3,0,0.5,0.1,0.8,0.3c0.2,0.2,0.3,0.4,0.3,0.7c0,0.1,0,0.2-0.1,0.4c0,0.1-0.1,0.2-0.2,0.3h0
					c-0.5,0.5-1,0.9-1.6,1.1c-0.6,0.3-1.2,0.4-1.8,0.4c-0.7,0-1.4-0.1-2-0.4c-0.6-0.2-1.2-0.6-1.7-1.1c-0.5-0.5-0.8-1-1.1-1.7
					c-0.3-0.6-0.4-1.4-0.4-2.2v-7.2c0-0.3,0.1-0.5,0.3-0.8C219.5,15.5,219.7,15.4,220.1,15.4z"/>
				<path class="st0" d="M206.3,21.9c-0.3-0.6-0.6-1.2-1.1-1.6c-0.5-0.5-1-0.9-1.6-1.1c-0.6-0.3-1.2-0.4-1.9-0.4
					c-0.7,0-1.3,0.1-1.9,0.4c-0.6,0.3-1.1,0.7-1.6,1.1c-0.5,0.5-0.8,1-1.1,1.6c-0.3,0.6-0.4,1.3-0.4,2c0,0.7,0.1,1.4,0.4,2
					c0.3,0.6,0.6,1.2,1.1,1.7c0.5,0.5,1,0.9,1.6,1.1c0.6,0.3,1.2,0.4,1.9,0.4c0.1,0,0.1,0,0.2,0c0.6,0,1.1-0.1,1.6-0.4
					c0.5-0.2,1-0.6,1.5-1l0.1-0.1c0.1-0.1,0.1-0.1,0.1-0.2c0-0.1,0-0.2,0-0.3c0-0.3-0.1-0.5-0.3-0.7c-0.2-0.2-0.4-0.3-0.7-0.3
					c-0.3,0-0.5,0.1-0.7,0.3l0,0c-0.1,0.1-0.2,0.2-0.3,0.3c-0.2,0.1-0.4,0.2-0.7,0.3c-0.2,0-0.4,0.1-0.7,0.1c-0.5,0-1-0.2-1.5-0.5
					c-0.5-0.3-1-0.8-1.4-1.6h6.8c0.3,0,0.6-0.1,0.8-0.3c0.2-0.2,0.3-0.5,0.3-0.8C206.7,23.1,206.6,22.5,206.3,21.9z M198.8,22.7
					C198.8,22.7,198.9,22.7,198.8,22.7c0.3-0.6,0.7-1.1,1.2-1.4c0.5-0.4,1.1-0.5,1.7-0.5c0.6,0,1.2,0.2,1.7,0.5
					c0.5,0.4,0.9,0.8,1.2,1.4v0c0,0,0,0,0,0H198.8z"/>
				<path class="st0" d="M179.2,18.6c0.6,0.1,1.3,0.3,1.8,0.6c0.6,0.3,1.1,0.7,1.5,1.2c0.4,0.5,0.7,1,1,1.6c0.2,0.6,0.4,1.2,0.4,1.9
					v4.2c0,0.3-0.1,0.5-0.3,0.7c-0.2,0.2-0.5,0.3-0.7,0.3c-0.1,0-0.2,0-0.3,0c-0.1,0-0.2-0.1-0.4-0.1c-0.1-0.1-0.2-0.2-0.3-0.3
					c-0.1-0.1-0.1-0.3-0.2-0.5c-0.1,0-0.2,0.1-0.4,0.2c-0.2,0.1-0.3,0.2-0.4,0.2c-0.2,0.1-0.3,0.1-0.5,0.2c-0.2,0.1-0.4,0.1-0.5,0.2
					c-0.4,0.1-0.7,0.1-1.2,0.1c-1.1,0-2-0.3-2.9-0.9c-0.8-0.6-1.5-1.3-1.9-2.3c-0.1-0.3-0.3-0.6-0.3-1c-0.1-0.4-0.1-0.7-0.1-1.1
					c0-0.4,0-0.7,0.1-1.1c0.1-0.3,0.2-0.7,0.3-1c0.4-0.9,1-1.7,1.9-2.3c0.8-0.6,1.8-0.9,2.9-0.9c0.1,0,0.2,0,0.3,0
					C179,18.6,179.1,18.6,179.2,18.6z M178.6,26.9c0.4,0,0.8-0.1,1.2-0.2c0.4-0.2,0.7-0.4,1-0.7c0.3-0.3,0.5-0.6,0.7-1
					c0.2-0.4,0.2-0.8,0.2-1.2c0-0.4-0.1-0.8-0.2-1.2c-0.2-0.4-0.4-0.7-0.7-1c-0.3-0.3-0.6-0.5-1-0.7c-0.4-0.2-0.8-0.3-1.2-0.3
					c-0.4,0-0.8,0.1-1.2,0.2c-0.4,0.2-0.7,0.4-1,0.7c-0.3,0.3-0.5,0.6-0.7,1c-0.2,0.4-0.2,0.8-0.2,1.2c0,0.4,0.1,0.8,0.3,1.2
					c0.2,0.4,0.4,0.7,0.7,1c0.3,0.3,0.6,0.5,1,0.7C177.8,26.8,178.2,26.9,178.6,26.9z"/>
				<path class="st0" d="M234.3,18.6c0.6,0.1,1.3,0.3,1.8,0.6c0.6,0.3,1.1,0.7,1.5,1.2c0.4,0.5,0.7,1,1,1.6c0.2,0.6,0.4,1.2,0.4,1.9
					v4.2c0,0.3-0.1,0.5-0.3,0.7c-0.2,0.2-0.5,0.3-0.7,0.3c-0.1,0-0.2,0-0.3,0c-0.1,0-0.2-0.1-0.4-0.1c-0.1-0.1-0.2-0.2-0.3-0.3
					c-0.1-0.1-0.1-0.3-0.2-0.5c-0.1,0-0.2,0.1-0.4,0.2c-0.2,0.1-0.3,0.2-0.4,0.2c-0.2,0.1-0.3,0.1-0.5,0.2c-0.2,0.1-0.4,0.1-0.5,0.2
					c-0.4,0.1-0.7,0.1-1.2,0.1c-1.1,0-2-0.3-2.9-0.9c-0.8-0.6-1.5-1.3-1.9-2.3c-0.1-0.3-0.3-0.6-0.3-1c-0.1-0.4-0.1-0.7-0.1-1.1
					c0-0.4,0-0.7,0.1-1.1c0.1-0.3,0.2-0.7,0.3-1c0.4-0.9,1-1.7,1.9-2.3c0.8-0.6,1.8-0.9,2.9-0.9c0.1,0,0.2,0,0.3,0
					C234.1,18.6,234.2,18.6,234.3,18.6z M233.7,26.9c0.4,0,0.8-0.1,1.2-0.2c0.4-0.2,0.7-0.4,1-0.7c0.3-0.3,0.5-0.6,0.7-1
					c0.2-0.4,0.2-0.8,0.2-1.2c0-0.4-0.1-0.8-0.2-1.2c-0.2-0.4-0.4-0.7-0.7-1c-0.3-0.3-0.6-0.5-1-0.7c-0.4-0.2-0.8-0.3-1.2-0.3
					c-0.4,0-0.8,0.1-1.2,0.2c-0.4,0.2-0.7,0.4-1,0.7c-0.3,0.3-0.5,0.6-0.7,1c-0.2,0.4-0.2,0.8-0.2,1.2c0,0.4,0.1,0.8,0.3,1.2
					c0.2,0.4,0.4,0.7,0.7,1c0.3,0.3,0.6,0.5,1,0.7C232.9,26.8,233.3,26.9,233.7,26.9z"/>
				<path class="st2" d="M164.2,13.9c0.2,0.4,0.4,0.7,0.7,0.9c-0.3,0.5-0.7,1-0.9,1.7c0.7-0.2,1-0.8,1.5-1.1
					c0.3,0.4,0.5,0.9,0.9,1.3c0.2-0.3-0.1-1.1-0.3-1.4c0.3-0.2,1-0.2,1.3-0.4c-0.2-0.3-0.8-0.2-1.3-0.2c-0.1-0.1,0.3-0.3,0.1-0.6
					c-0.4,0-0.6,0.3-0.8,0.4C165,14.3,164.6,13.8,164.2,13.9z"/>
				<path class="st3" d="M172.3,10.6c0,0,0.7,1.2-0.3,2c0,0,1.9-0.2,2.5,0.6c0,0-0.3,1-2.5,0.6c0,0,0.4,2,0,2.7c0,0-1.2,0-1.3-2.8
					c0,0-2.1,2.4-3.8,2.6c0,0,0.6-2,2.5-3.4c0,0-1.5-0.7-1.4-2c0,0,1.6,0.3,2.6,1.3C170.7,12.1,171.3,10.7,172.3,10.6z"/>
			</g>
		</g>
	</g>
	<g>
		<g>
			<path class="st4" d="M70.2,20.7c-0.2-0.1-0.4-0.1-0.4-0.1c-0.9,0-1.5,0.6-1.5,1.7v8.3c0,1.7,1,2.8,2.8,2.8c1.6,0,2.2-0.6,2.2-1.3
				c0-0.2,0-0.4-0.2-0.6c-0.4,0.2-1,0.3-1.4,0.3c-1,0-1.5-0.4-1.5-1.7v-5.4c0.4-0.1,0.9-0.2,1.4-0.2c0.6,0,1.2,0.1,1.8,0.2
				c0.1-0.2,0.1-0.4,0.1-0.6c0-0.8-0.5-1.2-1.7-1.2c-0.6,0-1.2,0.1-1.6,0.2V20.7z"/>
			<path class="st4" d="M64.1,23.1c-0.2,0-0.4,0-0.7,0.1v7.2c-0.5,0.8-1.5,1.4-2.5,1.4c-1,0-1.5-0.6-1.5-1.7v-5.5
				c0-0.8-0.4-1.4-1.2-1.4c-0.2,0-0.5,0-0.7,0.1v7.2c0,2.2,1.5,3,2.9,3c1.2,0,2.4-0.6,3.1-1.4v0.1c0,0.7,0.3,1.2,1.2,1.2
				c0.2,0,0.6-0.1,0.8-0.2v-8.5C65.4,23.7,65,23.1,64.1,23.1L64.1,23.1z"/>
			<path class="st4" d="M104,22.9c-2.2,0-3.6,0.7-3.6,1.7c0,0.3,0.1,0.6,0.4,0.7c0.8-0.4,1.7-0.7,2.7-0.7c1.7,0,2.6,0.7,2.6,2.6v0.2
				c-0.4-0.1-0.9-0.1-1.4-0.1c-2.9,0-4.7,1.2-4.7,3.2c0,1.7,1.3,2.8,3.1,2.8c1.3,0,2.3-0.6,2.9-1.4c-0.1,0.7,0.4,1.2,1.2,1.2
				c0.2,0,0.6-0.1,0.8-0.2v-6.2C107.9,24.1,106.5,22.9,104,22.9L104,22.9z M106,30.6c-0.4,0.8-1.2,1.4-2.2,1.4
				c-1.1,0-1.8-0.6-1.8-1.4c0-1,0.8-1.8,2.7-1.8c0.4,0,0.8,0,1.3,0.1V30.6z"/>
			<path class="st4" d="M93.2,25.8c0-1,0.8-1.3,2-1.3c1.1,0,1.9,0.3,2.6,0.7c0.2-0.1,0.3-0.4,0.3-0.7c0-0.9-0.7-1.6-3-1.6
				c-2.4,0-4,1.2-4,3.1c0,2.2,1.8,2.7,3.3,3c1.1,0.2,2.1,0.5,2.1,1.5c0,1-0.9,1.3-2.2,1.3c-1.1,0-1.9-0.2-2.8-0.7
				c-0.2,0.2-0.3,0.5-0.3,0.7c0,0.9,0.8,1.6,3,1.6c2.9,0,4.3-1.2,4.3-3.1c0-2.3-1.8-2.7-3.3-3.1C94.2,27,93.2,26.8,93.2,25.8
				L93.2,25.8z"/>
			<path class="st4" d="M79.8,22.9c-0.9,0-2.2,0.8-2.6,1.9c0.2-1.3-0.5-1.7-1.1-1.7c-0.3,0-0.6,0.1-0.8,0.2v8.8
				c0,0.5,0.3,1.2,1.2,1.2c0.2,0,0.5-0.1,0.8-0.2v-6.6c0.3-1.1,1.2-2,2.6-2c0.2,0,0.6,0,0.9,0.1c0.2-0.2,0.2-0.5,0.2-0.7
				C81,23.3,80.7,22.9,79.8,22.9L79.8,22.9z"/>
			<path class="st4" d="M47.6,33.3c0.1,0,0.4,0,0.7-0.1v-7.2c0.5-0.7,1.5-1.4,2.5-1.4c1.2,0,1.8,0.6,1.8,1.9v5.3
				c0,0.8,0.4,1.4,1.2,1.4c0.2,0,0.5,0,0.7-0.1v-7c0-2.2-1.5-3.2-3.2-3.2c-1.4,0-2.4,0.7-3.1,1.4v-0.1c0-0.7-0.3-1.2-1.2-1.2
				c-0.2,0-0.6,0.1-0.8,0.2v8.5C46.3,32.7,46.7,33.3,47.6,33.3L47.6,33.3z"/>
			<path class="st4" d="M89.7,26c0-1.8-1.3-3.1-3.8-3.1c-2.7,0-4.6,2.1-4.6,5.3c0,3.3,1.9,5.2,5,5.2c1.9,0,3.3-0.6,3.3-1.6
				c0-0.2-0.1-0.5-0.3-0.7c-0.7,0.5-1.6,0.7-2.5,0.7c-1.8,0-3.4-1.1-3.5-3.2c0.6,0.2,1.2,0.2,1.8,0.2C87.9,28.9,89.7,27.8,89.7,26
				L89.7,26z M85.9,24.5c1.2,0,1.8,0.6,1.8,1.4c0,0.9-0.9,1.5-2.7,1.5c-0.5,0-1.1-0.1-1.6-0.2C83.5,25.5,84.5,24.5,85.9,24.5z"/>
		</g>
		<path class="st5" d="M10.1,15.5c0.7-0.1,1.2-0.8,1.1-1.5c-0.1-0.7-0.8-1.2-1.5-1.1c-0.7,0.1-1.2,0.8-1.1,1.5
			C8.7,15.1,9.4,15.6,10.1,15.5z M17.5,10.4c0.7-0.1,1.2-0.8,1.1-1.6c-0.1-0.7-0.8-1.2-1.6-1.1c-0.7,0.1-1.2,0.8-1.1,1.6
			C16,10,16.7,10.5,17.5,10.4z M26.1,10.4c0.7,0,1.4-0.5,1.4-1.3c0-0.7-0.5-1.4-1.3-1.4c-0.7,0-1.4,0.5-1.4,1.3
			C24.7,9.7,25.3,10.3,26.1,10.4z M33.4,15.5c0.7,0.2,1.4-0.3,1.6-1c0.2-0.7-0.3-1.4-1-1.6c-0.7-0.2-1.4,0.3-1.6,1
			C32.2,14.7,32.6,15.4,33.4,15.5z M36.5,20.9c-0.7-0.1-1.4,0.4-1.5,1.2c-0.1,0.7,0.4,1.4,1.2,1.5c0.7,0.1,1.4-0.4,1.5-1.2
			C37.8,21.6,37.3,21,36.5,20.9z M7.7,23.9c0.7-0.1,1.2-0.8,1.1-1.6c-0.1-0.7-0.9-1.2-1.6-1.1c-0.7,0.1-1.2,0.8-1.1,1.6
			C6.3,23.6,7,24.1,7.7,23.9z M19.8,22.4c0.1-0.1,0.1-0.2,0-0.4c-2.6-4-7.3-5.1-9.5-5.1c-1.4,0-2.2,0.6-2.2,0.6
			c6.7,0.1,11.3,4.8,11.3,4.8C19.5,22.4,19.6,22.5,19.8,22.4z M13.8,16.6c0.2,0.1,0.3,0.2,0.4,0.1c0.1,0,0.1-0.2,0-0.3
			c-1.4-2.1-0.9-4.6-0.9-4.6S11.2,14.5,13.8,16.6z M19.6,18.1c0,0.2,0.1,0.3,0.3,0.3c0.2,0,0.2-0.1,0.2-0.4c-0.1-4.6-4-8.2-6.6-7.3
			C16.7,11.9,18.8,15.1,19.6,18.1z M19.3,12.7c0.2,0,0.2-0.2,0.1-0.3c-0.2-2.9,1.6-4.4,1.6-4.4l-0.4,0.1c-1.8,0.5-2,2.7-1.6,4.3
			C19.1,12.7,19.2,12.7,19.3,12.7z M23,20.8c0.2-0.1,0.2-0.4,0.2-0.4c-0.5-5.3,3.5-8.5,5.1-9.3c-3-0.2-5.7,2.5-6.1,6
			c-0.1,1.2,0.1,2.4,0.5,3.4C22.8,20.7,22.9,20.8,23,20.8z M23.4,12.1c0,0,0,0.3,0.1,0.3c0.1,0.1,0.3,0,0.4-0.2
			c0.5-1.1,0.7-3.2-1.2-4.9C22.7,7.3,23.7,9.5,23.4,12.1z M27.4,19c0,0-0.3,0.2-0.2,0.4c0.1,0.1,0.2,0.2,0.4,0.1
			c1.8-0.9,3.1-2.5,3.7-4.5c0.4-1.7,0.2-3.4-0.5-4.8c0.2,1.2,0.1,2.5-0.2,3.8C30.1,16.1,28.9,17.8,27.4,19z M31.4,17.1
			c-0.2,0.2-0.2,0.3-0.1,0.4c0.1,0.1,0.2,0.1,0.4,0.1c2.6-0.9,4.8-0.4,4.8-0.4C34.3,15.8,32.4,16.4,31.4,17.1z M28.4,22.7
			c-0.1,0-0.2,0.1-0.2,0.1c0,0.1,0.1,0.2,0.3,0.2c3.7,0.4,7.4-2,6.7-4.6C34.4,20.1,31.7,22.3,28.4,22.7z M32.7,23.1
			c-0.2,0-0.3,0.1-0.3,0.2c0,0.2,0.1,0.3,0.2,0.3c2.5,0.9,3.9,2.8,3.9,2.8C35.8,24,33.9,23.2,32.7,23.1z M8.1,19.4
			c0,0,0.3,1,1.2,1.9c1.2,1.2,3.5,2.3,5.7,2c0.2,0,0.3-0.1,0.3-0.3c0-0.2-0.1-0.2-0.3-0.2C11.8,22.7,8.1,19.4,8.1,19.4z M11.6,23.9
			c0-0.1-0.1-0.2-0.4-0.3c-1.3-0.1-3.2,0.5-4.2,2.9c0,0,1.8-1.8,4.2-2.3C11.5,24.2,11.7,24.1,11.6,23.9z M34.1,35.5
			c-0.4-0.3-4.5-2.3-10.1-2.7c-1.8-5.7,1.4-10.3,1.5-10.5c0.1-0.2,0.1-0.3,0.1-0.4c-0.1-0.1-0.2,0-0.4,0.1c0,0-5,4.4-2.2,10.7
			c-0.3,0-2,0-2.6,0c1.2-1.8,1-4.2-0.1-5.6C20.1,27,20.1,27,20,27.1c-0.1,0.1-0.1,0.2-0.1,0.3c0,0,1.1,2.8-0.5,5.4
			c-5.3,0.5-9.2,2.5-9.4,2.6c0,0-0.1,0.1-0.1,0.1c0,0,0.1,0.1,0.2,0c0.1,0,5.1-1.8,11.9-1.8c4.3,0,8.4,0.7,12,1.8c0.1,0,0.1,0,0.2,0
			C34.2,35.6,34.2,35.5,34.1,35.5z"/>
		<g>
			<path class="st6" d="M50.1,14.3h-1.2v-0.6h2v2.5c0,0.1-0.1,0.1-0.2,0.2c-0.1,0.1-0.2,0.2-0.4,0.2c-0.2,0.1-0.4,0.1-0.6,0.2
				c-0.2,0.1-0.5,0.1-0.8,0.1c-0.4,0-0.8-0.1-1.2-0.2c-0.3-0.2-0.6-0.4-0.8-0.6c-0.2-0.3-0.4-0.6-0.5-1c-0.1-0.4-0.2-0.8-0.2-1.2
				c0-0.4,0.1-0.8,0.2-1.2c0.1-0.4,0.3-0.7,0.5-1c0.2-0.3,0.5-0.5,0.8-0.6c0.3-0.2,0.7-0.2,1.2-0.2c0.2,0,0.4,0,0.6,0.1
				c0.2,0,0.4,0.1,0.5,0.2c0.2,0.1,0.3,0.2,0.4,0.3c0.1,0.1,0.1,0.2,0.1,0.3c0,0.1,0,0.1-0.1,0.2c0,0.1-0.1,0.2-0.2,0.2h-0.1
				c-0.1-0.1-0.1-0.1-0.2-0.2c-0.1-0.1-0.2-0.1-0.3-0.2c-0.1-0.1-0.2-0.1-0.4-0.1c-0.1,0-0.3-0.1-0.5-0.1c-0.4,0-0.7,0.1-0.9,0.2
				c-0.2,0.1-0.4,0.3-0.6,0.5c-0.1,0.2-0.2,0.5-0.3,0.7C47,13.2,47,13.5,47,13.8c0,0.3,0,0.6,0.1,0.9c0.1,0.3,0.2,0.6,0.3,0.8
				c0.1,0.2,0.3,0.4,0.6,0.6c0.2,0.1,0.5,0.2,0.9,0.2c0.2,0,0.3,0,0.5,0c0.1,0,0.3-0.1,0.4-0.1c0.1,0,0.2-0.1,0.3-0.1
				s0.1-0.1,0.2-0.1V14.3z"/>
			<path class="st6" d="M52,12.6c0.1,0,0.1,0,0.2,0c0.1,0,0.3,0,0.4,0.1c0.1,0.1,0.2,0.2,0.2,0.3c0.1-0.1,0.2-0.2,0.4-0.3
				c0.2-0.1,0.4-0.2,0.6-0.2c0.1,0,0.1,0,0.2,0c0.1,0,0.1,0,0.2,0.1c0.1,0,0.1,0.1,0.2,0.1c0,0,0.1,0.1,0.1,0.2c0,0.1,0,0.2-0.1,0.3
				c0,0.1-0.1,0.2-0.1,0.3c-0.1-0.1-0.2-0.1-0.2-0.2c-0.1,0-0.2-0.1-0.3-0.1c-0.1,0-0.2,0-0.3,0c-0.1,0-0.2,0.1-0.2,0.1
				c-0.1,0.1-0.1,0.1-0.2,0.2c0,0.1-0.1,0.1-0.1,0.2v2.9H52V12.6z"/>
			<path class="st6" d="M55,12.6c0.1,0,0.1,0,0.2,0c0.2,0,0.3,0,0.4,0.1c0.1,0.1,0.2,0.2,0.2,0.5v2c0,0.2,0,0.4,0,0.5
				c0,0.1,0.1,0.2,0.2,0.3c0.1,0.1,0.2,0.1,0.3,0.1c0.1,0,0.2,0,0.4,0c0.2,0,0.3,0,0.4-0.1c0.1,0,0.2-0.1,0.3-0.2
				c0.1-0.1,0.2-0.1,0.2-0.2c0.1-0.1,0.1-0.1,0.1-0.2v-3c0.1,0,0.1,0,0.2,0c0.2,0,0.3,0,0.4,0.1c0.1,0.1,0.2,0.2,0.2,0.5v3.6h-0.7
				v-0.4c-0.1,0.1-0.3,0.3-0.5,0.4c-0.2,0.1-0.5,0.2-0.8,0.2c-0.3,0-0.6-0.1-0.8-0.2c-0.2-0.1-0.3-0.2-0.4-0.4
				c-0.1-0.2-0.1-0.3-0.2-0.5c0-0.2,0-0.4,0-0.6V12.6z"/>
			<path class="st6" d="M59.8,12.6c0.1,0,0.1,0,0.2,0c0.1,0,0.3,0,0.4,0.1c0.1,0.1,0.2,0.2,0.2,0.3c0.1-0.1,0.3-0.2,0.5-0.3
				c0.2-0.1,0.4-0.1,0.7-0.1c0.2,0,0.4,0,0.6,0.1c0.2,0.1,0.4,0.2,0.5,0.4c0.2,0.2,0.3,0.4,0.4,0.6c0.1,0.3,0.1,0.6,0.1,1
				c0,0.4-0.1,0.8-0.2,1.1c-0.1,0.3-0.2,0.5-0.4,0.7c-0.2,0.2-0.4,0.3-0.6,0.4c-0.2,0.1-0.4,0.1-0.6,0.1c-0.3,0-0.6-0.1-0.7-0.2
				c-0.2-0.1-0.3-0.2-0.4-0.3v2.2h-0.7V12.6z M60.5,15.8c0,0,0.1,0.1,0.1,0.2c0.1,0.1,0.1,0.1,0.2,0.2c0.1,0,0.2,0.1,0.3,0.1
				c0.1,0,0.2,0.1,0.3,0.1c0.4,0,0.6-0.1,0.8-0.4c0.2-0.3,0.3-0.7,0.3-1.2c0-0.2,0-0.4-0.1-0.6c0-0.2-0.1-0.3-0.2-0.5
				c-0.1-0.1-0.2-0.2-0.3-0.3c-0.1-0.1-0.3-0.1-0.5-0.1c-0.3,0-0.5,0.1-0.7,0.2c-0.2,0.1-0.3,0.3-0.3,0.4V15.8z"/>
			<path class="st6" d="M64.7,16.2c-0.2-0.2-0.3-0.4-0.3-0.7c-0.1-0.3-0.1-0.5-0.1-0.8c0-0.3,0-0.6,0.1-0.8c0.1-0.3,0.2-0.5,0.4-0.7
				c0.2-0.2,0.4-0.4,0.6-0.5c0.2-0.1,0.5-0.2,0.9-0.2c0.3,0,0.6,0.1,0.9,0.2c0.2,0.1,0.4,0.3,0.6,0.5c0.2,0.2,0.3,0.4,0.3,0.7
				c0.1,0.3,0.1,0.5,0.1,0.8c0,0.3,0,0.6-0.1,0.8c-0.1,0.3-0.2,0.5-0.3,0.7c-0.2,0.2-0.4,0.4-0.6,0.5c-0.2,0.1-0.5,0.2-0.9,0.2
				c-0.4,0-0.6-0.1-0.9-0.2C65.1,16.6,64.9,16.4,64.7,16.2z M65.6,16.1c0.1,0.1,0.3,0.1,0.6,0.1c0.2,0,0.4,0,0.6-0.1
				c0.2-0.1,0.3-0.2,0.4-0.4c0.1-0.1,0.1-0.3,0.2-0.5c0-0.2,0-0.4,0-0.6c0-0.2,0-0.4,0-0.5c0-0.2-0.1-0.3-0.2-0.5
				c-0.1-0.1-0.2-0.3-0.3-0.3c-0.1-0.1-0.3-0.1-0.6-0.1c-0.2,0-0.4,0-0.6,0.1c-0.1,0.1-0.3,0.2-0.4,0.3c-0.1,0.1-0.2,0.3-0.2,0.5
				c0,0.2-0.1,0.4-0.1,0.5c0,0.2,0,0.4,0,0.6c0,0.2,0.1,0.4,0.2,0.5C65.4,15.9,65.5,16,65.6,16.1z"/>
		</g>
	</g>
	<line class="st7" x1="122" y1="35.5" x2="122" y2="7.5"/>
</g>
</svg>
