<?xml version="1.0" encoding="utf-8"?>
<!-- Generator: Adobe Illustrator 27.1.1, SVG Export Plug-In . SVG Version: 6.00 Build 0)  -->
<svg version="1.1" id="Layer_1" xmlns="http://www.w3.org/2000/svg" xmlns:xlink="http://www.w3.org/1999/xlink" x="0px" y="0px"
	 viewBox="0 0 57 88.5" style="enable-background:new 0 0 57 88.5;" xml:space="preserve">
<style type="text/css">
	.st0{fill:#FFFFFF;}
	.st1{fill:none;stroke:#FFFFFF;stroke-width:0.9539;stroke-miterlimit:10;}
</style>
<g>
	<g>
		<g>
			<path class="st0" d="M22.7,86.7v-3l5.9-2.1v0l-5.9-2.1v-3h9.1v2h-7v0l7,2.4v1.5l-7,2.3v0h7v2H22.7z"/>
			<path class="st0" d="M31,70.9L31,70.9c0.3,0.2,0.6,0.5,0.7,0.9c0.1,0.4,0.2,0.7,0.2,1.1c0,0.3,0,0.6-0.1,0.8
				c-0.1,0.3-0.2,0.5-0.4,0.7c-0.2,0.2-0.4,0.4-0.6,0.5c-0.2,0.1-0.5,0.2-0.8,0.2c-0.4,0-0.7-0.1-0.9-0.2c-0.2-0.1-0.5-0.3-0.6-0.5
				c-0.2-0.2-0.3-0.5-0.4-0.8s-0.2-0.6-0.2-0.9s-0.1-0.6-0.1-0.9s0-0.6,0-0.9c-0.3,0-0.6,0.1-0.8,0.4c-0.2,0.2-0.3,0.5-0.3,0.9
				c0,0.3,0.1,0.6,0.2,0.9c0.1,0.3,0.3,0.5,0.5,0.7l-1.1,1c-0.3-0.4-0.6-0.8-0.8-1.3s-0.3-1-0.3-1.5c0-0.6,0.1-1,0.2-1.4
				c0.1-0.4,0.3-0.7,0.6-0.9c0.3-0.2,0.6-0.4,1-0.5c0.4-0.1,0.9-0.1,1.4-0.1h3.2v1.8H31z M29,71.4c0,0.1,0,0.3,0,0.5
				c0,0.2,0,0.4,0.1,0.6c0.1,0.2,0.1,0.4,0.3,0.5c0.1,0.1,0.3,0.2,0.5,0.2c0.2,0,0.4-0.1,0.5-0.3c0.1-0.2,0.2-0.4,0.2-0.6
				c0-0.2,0-0.4-0.1-0.5c-0.1-0.2-0.1-0.3-0.2-0.5s-0.2-0.2-0.4-0.3c-0.1-0.1-0.3-0.1-0.5-0.1H29V71.4z"/>
			<path class="st0" d="M27.3,64.4c-0.4,0.3-0.5,0.7-0.5,1.1c0,0.2,0,0.3,0.1,0.5c0.1,0.2,0.2,0.2,0.4,0.2c0.2,0,0.3-0.1,0.3-0.2
				s0.1-0.4,0.2-0.6c0.1-0.2,0.1-0.5,0.2-0.8c0.1-0.3,0.2-0.5,0.3-0.8c0.1-0.2,0.3-0.4,0.6-0.6c0.2-0.2,0.5-0.2,0.9-0.2
				c0.4,0,0.7,0.1,1,0.3s0.5,0.4,0.6,0.7c0.2,0.3,0.3,0.6,0.3,0.9c0.1,0.3,0.1,0.7,0.1,1c0,0.4-0.1,0.9-0.2,1.3
				c-0.1,0.4-0.3,0.8-0.7,1.1l-1.3-1.2c0.2-0.2,0.4-0.4,0.5-0.6c0.1-0.2,0.2-0.5,0.2-0.8c0-0.2,0-0.4-0.1-0.6
				c-0.1-0.2-0.2-0.3-0.4-0.3c-0.2,0-0.3,0.1-0.4,0.2c-0.1,0.2-0.1,0.4-0.2,0.6s-0.1,0.5-0.2,0.8c-0.1,0.3-0.2,0.5-0.3,0.8
				s-0.3,0.4-0.5,0.6c-0.2,0.2-0.5,0.2-0.9,0.2c-0.4,0-0.7-0.1-1-0.2c-0.3-0.1-0.5-0.3-0.7-0.6c-0.2-0.2-0.3-0.5-0.4-0.8
				c-0.1-0.3-0.1-0.6-0.1-1c0-0.4,0.1-0.8,0.2-1.2c0.1-0.4,0.3-0.8,0.6-1.1L27.3,64.4z"/>
			<path class="st0" d="M27.5,57.7c-0.1,0.1-0.3,0.2-0.3,0.4c-0.1,0.2-0.1,0.4-0.1,0.6c0,0.5,0.1,0.9,0.4,1.1s0.7,0.4,1.1,0.4
				c0.5,0,0.9-0.1,1.1-0.4s0.4-0.6,0.4-1.1c0-0.2,0-0.4-0.1-0.6c-0.1-0.2-0.2-0.3-0.3-0.4l1.3-1.3c0.3,0.3,0.5,0.7,0.6,1.1
				s0.2,0.8,0.2,1.2c0,0.5-0.1,0.9-0.2,1.4c-0.2,0.4-0.4,0.8-0.7,1.1s-0.6,0.6-1,0.7s-0.9,0.3-1.3,0.3c-0.5,0-0.9-0.1-1.3-0.3
				s-0.7-0.4-1-0.7s-0.5-0.7-0.7-1.1c-0.2-0.4-0.2-0.9-0.2-1.4c0-0.4,0.1-0.8,0.2-1.2c0.1-0.4,0.3-0.8,0.6-1.1L27.5,57.7z"/>
			<path class="st0" d="M28.6,56c-0.5,0-0.9-0.1-1.3-0.3s-0.7-0.4-1-0.7s-0.5-0.7-0.7-1.1c-0.2-0.4-0.2-0.9-0.2-1.4s0.1-0.9,0.2-1.4
				c0.2-0.4,0.4-0.8,0.7-1.1s0.6-0.6,1-0.7s0.9-0.3,1.3-0.3c0.5,0,0.9,0.1,1.3,0.3s0.7,0.4,1,0.7s0.5,0.7,0.7,1.1
				c0.2,0.4,0.2,0.9,0.2,1.4s-0.1,0.9-0.2,1.4c-0.2,0.4-0.4,0.8-0.7,1.1s-0.6,0.6-1,0.7S29.1,56,28.6,56z M28.6,54.1
				c0.5,0,0.9-0.1,1.1-0.4s0.4-0.6,0.4-1.1c0-0.5-0.1-0.9-0.4-1.1c-0.3-0.3-0.7-0.4-1.1-0.4c-0.5,0-0.9,0.1-1.1,0.4
				C27.2,51.7,27,52,27,52.5c0,0.5,0.1,0.9,0.4,1.1S28.2,54.1,28.6,54.1z"/>
			<path class="st0" d="M27,43.7v1.7h2.1c0.2,0,0.3,0,0.5,0c0.1,0,0.3-0.1,0.4-0.1c0.1-0.1,0.2-0.2,0.2-0.3s0.1-0.3,0.1-0.5
				c0-0.1,0-0.2,0-0.4c0-0.2-0.1-0.3-0.1-0.4h1.6c0.1,0.2,0.1,0.4,0.2,0.7c0,0.2,0,0.5,0,0.7c0,0.3,0,0.6-0.1,0.9
				c-0.1,0.3-0.2,0.5-0.3,0.7s-0.3,0.4-0.6,0.5c-0.2,0.1-0.5,0.2-0.9,0.2h-3v1.2h-1.5v-1.2h-1.8v-1.9h1.8v-1.7H27z"/>
			<path class="st0" d="M31,38.8L31,38.8c0.3,0.2,0.6,0.5,0.7,0.9c0.1,0.4,0.2,0.7,0.2,1.1c0,0.3,0,0.6-0.1,0.8
				c-0.1,0.3-0.2,0.5-0.4,0.7c-0.2,0.2-0.4,0.4-0.6,0.5C30.6,43,30.3,43,30,43c-0.4,0-0.7-0.1-0.9-0.2c-0.2-0.1-0.5-0.3-0.6-0.5
				c-0.2-0.2-0.3-0.5-0.4-0.8s-0.2-0.6-0.2-0.9s-0.1-0.6-0.1-0.9s0-0.6,0-0.9c-0.3,0-0.6,0.1-0.8,0.4c-0.2,0.2-0.3,0.5-0.3,0.9
				c0,0.3,0.1,0.6,0.2,0.9c0.1,0.3,0.3,0.5,0.5,0.7l-1.1,1c-0.3-0.4-0.6-0.8-0.8-1.3s-0.3-1-0.3-1.5c0-0.6,0.1-1,0.2-1.4
				c0.1-0.4,0.3-0.7,0.6-0.9c0.3-0.2,0.6-0.4,1-0.5c0.4-0.1,0.9-0.1,1.4-0.1h3.2v1.8H31z M29,39.3c0,0.1,0,0.3,0,0.5
				c0,0.2,0,0.4,0.1,0.6c0.1,0.2,0.1,0.4,0.3,0.5c0.1,0.1,0.3,0.2,0.5,0.2c0.2,0,0.4-0.1,0.5-0.3c0.1-0.2,0.2-0.4,0.2-0.6
				c0-0.2,0-0.4-0.1-0.5c-0.1-0.2-0.1-0.3-0.2-0.5s-0.2-0.2-0.4-0.3c-0.1-0.1-0.3-0.1-0.5-0.1H29V39.3z"/>
			<path class="st0" d="M27.3,32.3c-0.4,0.3-0.5,0.7-0.5,1.1c0,0.2,0,0.3,0.1,0.5c0.1,0.2,0.2,0.2,0.4,0.2c0.2,0,0.3-0.1,0.3-0.2
				s0.1-0.4,0.2-0.6c0.1-0.2,0.1-0.5,0.2-0.8c0.1-0.3,0.2-0.5,0.3-0.8c0.1-0.2,0.3-0.4,0.6-0.6c0.2-0.2,0.5-0.2,0.9-0.2
				c0.4,0,0.7,0.1,1,0.3s0.5,0.4,0.6,0.7c0.2,0.3,0.3,0.6,0.3,0.9c0.1,0.3,0.1,0.7,0.1,1c0,0.4-0.1,0.9-0.2,1.3
				c-0.1,0.4-0.3,0.8-0.7,1.1L29.8,35c0.2-0.2,0.4-0.4,0.5-0.6c0.1-0.2,0.2-0.5,0.2-0.8c0-0.2,0-0.4-0.1-0.6
				c-0.1-0.2-0.2-0.3-0.4-0.3c-0.2,0-0.3,0.1-0.4,0.2c-0.1,0.2-0.1,0.4-0.2,0.6s-0.1,0.5-0.2,0.8c-0.1,0.3-0.2,0.5-0.3,0.8
				s-0.3,0.4-0.5,0.6c-0.2,0.2-0.5,0.2-0.9,0.2c-0.4,0-0.7-0.1-1-0.2c-0.3-0.1-0.5-0.3-0.7-0.6c-0.2-0.2-0.3-0.5-0.4-0.8
				c-0.1-0.3-0.1-0.6-0.1-1c0-0.4,0.1-0.8,0.2-1.2c0.1-0.4,0.3-0.8,0.6-1.1L27.3,32.3z"/>
		</g>
	</g>
	<g>
		<path class="st1" d="M29.7,16.4c-0.4,0.1-0.7,0.3-0.9,0.6l-0.4,0.6L27.9,17c-0.2-0.3-0.5-0.5-0.9-0.6c-1.5-0.4-2.8,0.2-2.8,1.7
			c0,1.6,4.1,4,4.1,4s4.1-2.4,4.1-4C32.5,16.7,31.2,16,29.7,16.4z M27.6,13c2.2-0.4,4.4,1.4,5.7,3.1c1.6,2.1,4.5,7.2,0.5,8.3
			c-1.7,0.4-3.1-0.7-4.4-0.8c-3.2-0.2-7.5,2.7-8.8-0.3C19.3,20,24.6,13.6,27.6,13z M37,9.3c6.5-1.7,2.2,10.9-2.1,7.8
			C32.3,15.2,34.6,9.9,37,9.3z M18.5,7.9c5.5-1,5.7,11.8,0,7.6C16.2,13.8,15.3,8.5,18.5,7.9z M32.4,1.1c4.9-1.2,3.5,9.9-1,9.2
			C27.3,9.6,29.6,1.8,32.4,1.1z M23.5,0.9c4.8-1.9,6.1,8.7,2.3,9.3C21.9,10.8,20.1,2.2,23.5,0.9z"/>
	</g>
</g>
</svg>
