<?xml version="1.0" encoding="utf-8"?>
<!-- Generator: Adobe Illustrator 27.1.1, SVG Export Plug-In . SVG Version: 6.00 Build 0)  -->
<svg version="1.1" id="Layer_1" xmlns="http://www.w3.org/2000/svg" xmlns:xlink="http://www.w3.org/1999/xlink" x="0px" y="0px"
	 viewBox="0 0 57 88.5" style="enable-background:new 0 0 57 88.5;" xml:space="preserve">
<style type="text/css">
	.st0{fill:#00ACB9;}
</style>
<g>
	<g>
		<g>
			<path class="st0" d="M22.5,64.6v-2.7l6.3-3.9v0h-6.3v-2h9.1v2.6l-6.5,4v0h6.5v2H22.5z"/>
			<path class="st0" d="M23.4,54.5c-0.3,0-0.6-0.1-0.8-0.3c-0.2-0.2-0.3-0.5-0.3-0.8c0-0.3,0.1-0.6,0.3-0.8c0.2-0.2,0.5-0.3,0.8-0.3
				c0.3,0,0.6,0.1,0.8,0.3c0.2,0.2,0.3,0.5,0.3,0.8c0,0.3-0.1,0.6-0.3,0.8C24,54.4,23.7,54.5,23.4,54.5z M25.4,54.4v-1.9h6.2v1.9
				H25.4z"/>
			<path class="st0" d="M24.3,50.6c-0.2,0-0.4-0.1-0.6-0.2c-0.2-0.1-0.4-0.2-0.6-0.3s-0.3-0.3-0.4-0.5s-0.2-0.4-0.2-0.6
				c0-0.2,0-0.4,0.1-0.6c0.1-0.2,0.1-0.4,0.2-0.5c0-0.1,0.1-0.2,0.1-0.4c0-0.1,0.1-0.2,0.1-0.4c0-0.1,0-0.3-0.1-0.3
				s-0.2-0.2-0.3-0.2v-1c0.2,0,0.5,0.1,0.7,0.2s0.4,0.2,0.6,0.3s0.3,0.3,0.4,0.5c0.1,0.2,0.1,0.4,0.1,0.7c0,0.2,0,0.4-0.1,0.5
				s-0.1,0.3-0.2,0.5c-0.1,0.1-0.1,0.3-0.2,0.4s-0.1,0.3-0.1,0.4c0,0.1,0.1,0.3,0.2,0.3c0.1,0.1,0.2,0.2,0.4,0.2V50.6z M25.4,51.1
				v-1.8h0.8v0c-0.1-0.1-0.2-0.1-0.4-0.3s-0.2-0.2-0.3-0.4c-0.1-0.2-0.2-0.3-0.2-0.5c-0.1-0.2-0.1-0.4-0.1-0.6
				c0-0.5,0.1-0.9,0.2-1.2c0.1-0.3,0.4-0.5,0.6-0.7c0.3-0.2,0.6-0.3,0.9-0.3c0.4-0.1,0.7-0.1,1.2-0.1h3.4V47h-3.1
				c-0.2,0-0.4,0-0.6,0c-0.2,0-0.4,0.1-0.5,0.1c-0.2,0.1-0.3,0.2-0.4,0.3s-0.2,0.3-0.2,0.6c0,0.2,0,0.4,0.1,0.6s0.2,0.3,0.4,0.4
				c0.2,0.1,0.3,0.1,0.5,0.2s0.4,0,0.6,0h3.1v1.9H25.4z"/>
			<path class="st0" d="M28.5,43.9c-0.5,0-0.9-0.1-1.3-0.3s-0.7-0.4-1-0.7c-0.3-0.3-0.5-0.7-0.7-1.1s-0.2-0.9-0.2-1.4
				s0.1-0.9,0.2-1.4s0.4-0.8,0.7-1.1c0.3-0.3,0.6-0.6,1-0.7S28,37,28.5,37c0.5,0,0.9,0.1,1.3,0.3c0.4,0.2,0.7,0.4,1,0.7
				s0.5,0.7,0.7,1.1s0.2,0.9,0.2,1.4s-0.1,0.9-0.2,1.4s-0.4,0.8-0.7,1.1s-0.6,0.6-1,0.7C29.4,43.8,29,43.9,28.5,43.9z M28.5,42
				c0.5,0,0.9-0.1,1.1-0.4s0.4-0.6,0.4-1.1c0-0.5-0.1-0.9-0.4-1.1c-0.3-0.3-0.7-0.4-1.1-0.4s-0.9,0.1-1.1,0.4
				c-0.3,0.3-0.4,0.6-0.4,1.1c0,0.5,0.1,0.9,0.4,1.1S28,42,28.5,42z"/>
			<path class="st0" d="M27.2,32.3c-0.4,0.3-0.5,0.7-0.5,1.1c0,0.2,0,0.3,0.1,0.5c0.1,0.2,0.2,0.2,0.4,0.2c0.2,0,0.3-0.1,0.3-0.2
				c0.1-0.2,0.1-0.4,0.2-0.6s0.1-0.5,0.2-0.8c0.1-0.3,0.2-0.5,0.3-0.8c0.1-0.2,0.3-0.4,0.6-0.6c0.2-0.2,0.6-0.2,0.9-0.2
				c0.4,0,0.7,0.1,1,0.3s0.5,0.4,0.6,0.7c0.2,0.3,0.3,0.6,0.3,0.9s0.1,0.7,0.1,1c0,0.4-0.1,0.9-0.2,1.3c-0.1,0.4-0.3,0.8-0.7,1.1
				l-1.3-1.2c0.2-0.2,0.4-0.4,0.5-0.6c0.1-0.2,0.2-0.5,0.2-0.8c0-0.2,0-0.4-0.1-0.6s-0.2-0.3-0.4-0.3c-0.2,0-0.3,0.1-0.4,0.2
				s-0.2,0.4-0.2,0.6s-0.1,0.5-0.2,0.8s-0.2,0.5-0.3,0.8c-0.1,0.2-0.3,0.4-0.5,0.6c-0.2,0.2-0.6,0.2-0.9,0.2c-0.4,0-0.7-0.1-1-0.2
				c-0.3-0.1-0.5-0.3-0.7-0.6c-0.2-0.2-0.3-0.5-0.4-0.8c-0.1-0.3-0.1-0.6-0.1-1c0-0.4,0.1-0.8,0.2-1.2c0.1-0.4,0.3-0.8,0.6-1.1
				L27.2,32.3z"/>
		</g>
	</g>
	<g>
		<g>
			<g>
				<path class="st0" d="M28.9,24.3c-2,0-4-0.1-4.5-0.2l0,0c-5.4-1-6.4-5.1-6.5-5.3l0-0.1l0-0.1l0.1-10.6c0-0.1,0.7-7.7,10.1-7.4
					c9.3,0.3,11,7.2,11,7.3l0,0.1l0.1,9.9l0,0.1c-0.4,1.7-3,4.6-5,5.6C33.4,24.2,31.1,24.3,28.9,24.3z M24.7,23.1
					c0.7,0.1,7.6,0.5,9.3-0.3c1.8-0.9,4.1-3.5,4.4-4.8l-0.1-9.8C38.1,7.6,36.4,2,28.2,1.7c-8.4-0.3-9.1,6-9.1,6.5l-0.1,10.4
					C19.1,19.1,20.2,22.3,24.7,23.1L24.7,23.1z"/>
				<path class="st0" d="M28.5,9.5c-2.1,0-3-1-3.3-1.5c-0.4-0.8-0.4-1.8,0-2.6c0.9-1.3,2.7-1.2,2.8-1.2c0.3,0,0.5,0.3,0.4,0.5
					c0,0.3-0.3,0.5-0.5,0.4c0,0-1.3-0.1-1.9,0.7c-0.2,0.4-0.3,1,0,1.6c0.4,0.7,1.3,1.1,2.6,1c0.9,0,1.6-0.4,1.8-1.2
					c0.4-1.2-0.1-2.8-0.6-3.2c-1.2-1-1.9-2.7-1.9-2.7c-0.1-0.2,0-0.5,0.3-0.6c0.2-0.1,0.5,0,0.6,0.3c0,0,0.6,1.5,1.6,2.4
					c0.9,0.7,1.4,2.8,0.9,4.3C31,8.8,30,9.5,28.7,9.5C28.6,9.5,28.6,9.5,28.5,9.5z"/>
				<path class="st0" d="M18.1,18c-0.3,0-1.3-0.1-2.1-0.8c-0.6-0.6-0.9-1.4-0.9-2.5c0-1,0.3-1.9,0.9-2.4c1-1,2.4-0.9,2.4-0.9l0,1
					c0,0-1.1,0-1.8,0.7c-0.4,0.4-0.6,1-0.6,1.7c0,0.8,0.2,1.4,0.6,1.8c0.6,0.6,1.5,0.5,1.5,0.5L18.1,18C18.2,18,18.2,18,18.1,18z
					 M39.1,17.9v-1c0.2,0,1.6-0.1,1.6-2.5c0-0.9-0.2-1.5-0.6-1.8c-0.4-0.3-0.9-0.2-0.9-0.2L39,11.6c0,0,1-0.3,1.8,0.3
					c0.6,0.5,0.9,1.3,0.9,2.5C41.7,17.9,39.1,17.9,39.1,17.9z"/>
				<path class="st0" d="M23.9,15.7c0,0.5-0.4,0.9-0.9,0.9s-0.9-0.4-0.9-0.9c0-0.5,0.4-0.9,0.9-0.9S23.9,15.2,23.9,15.7"/>
				<path class="st0" d="M23,17c-0.8,0-1.4-0.6-1.4-1.4c0-0.8,0.6-1.4,1.4-1.4c0.8,0,1.4,0.6,1.4,1.4C24.4,16.4,23.7,17,23,17z
					 M23,15.2c-0.2,0-0.4,0.2-0.4,0.4c0,0.2,0.2,0.4,0.4,0.4c0.2,0,0.4-0.2,0.4-0.4C23.4,15.4,23.2,15.2,23,15.2z"/>
				<path class="st0" d="M34.5,15.7c0,0.5-0.4,0.9-0.9,0.9c-0.5,0-0.9-0.4-0.9-0.9c0-0.5,0.4-0.9,0.9-0.9
					C34.1,14.8,34.5,15.2,34.5,15.7"/>
				<path class="st0" d="M33.7,17c-0.8,0-1.4-0.6-1.4-1.4c0-0.8,0.6-1.4,1.4-1.4s1.4,0.6,1.4,1.4C35,16.4,34.4,17,33.7,17z
					 M33.7,15.2c-0.2,0-0.4,0.2-0.4,0.4c0,0.2,0.2,0.4,0.4,0.4s0.4-0.2,0.4-0.4C34.1,15.4,33.9,15.2,33.7,15.2z"/>
				<path class="st0" d="M28.9,19.2c-0.1,0-0.2,0-0.3,0C27,19,26,17.5,26,17.4c-0.1-0.2-0.1-0.5,0.1-0.7c0.2-0.1,0.5-0.1,0.7,0.1
					c0,0,0.8,1.2,1.9,1.3c0.7,0.1,1.4-0.2,2-0.9c0.2-0.2,0.5-0.2,0.7,0c0.2,0.2,0.2,0.5,0,0.7C30.6,18.8,29.8,19.2,28.9,19.2z"/>
			</g>
		</g>
	</g>
</g>
</svg>
