<?xml version="1.0" encoding="utf-8"?>
<!-- Generator: Adobe Illustrator 27.1.1, SVG Export Plug-In . SVG Version: 6.00 Build 0)  -->
<svg version="1.1" id="Layer_1" xmlns="http://www.w3.org/2000/svg" xmlns:xlink="http://www.w3.org/1999/xlink" x="0px" y="0px"
	 viewBox="0 0 75 68" style="enable-background:new 0 0 75 68;" xml:space="preserve">
<style type="text/css">
	.st0{fill:#FFFFFF;}
	.st1{fill:#1B93A6;}
</style>
<g>
	<path class="st0" d="M35.8,10.2c-1.2,0.9-1.2,1.9-1.7,2.9c-1.2,0.3-2.9,0.1-4.1,0.5c-0.3,0.1-0.5,0.2-0.7,0.4
		c1.2,0.7,2.4,1.2,3.7,1.3c0,0,0,0,0,0c0,0,0,0,0,0c0,2.2-0.1,4.3,0.7,6.6c0,0.1,0,0.1,0.1,0.2c1.6-2,1.5-4.2,2.3-6.3
		c1.7,0.5,3.3,1.8,5,2c0-0.6-0.5-1.2-1.1-1.7c-0.8-0.7-1.8-1.4-2.5-1.8c0,0,0,0,0,0l0,0c0.6-1.3,2.5-2.3,3-3.6
		c-0.3-0.2-0.7-0.2-1.1-0.1c-0.9,0.3-1.9,1.3-2.9,2c-0.1,0-0.1-0.1-0.2-0.1c-0.3-0.3,0.2-1.3-0.5-1.9C35.8,10.2,35.8,10.2,35.8,10.2
		"/>
	<path class="st1" d="M27,35.2c-2.7,2-2.8,4.3-3.8,6.5c-2.8,0.7-6.6,0.3-9.3,1.1c-0.6,0.2-1.1,0.5-1.6,0.8c2.7,1.7,5.5,2.7,8.3,2.9
		c0,0,0,0,0,0c0,0,0,0,0.1,0c0,4.9-0.2,9.8,1.5,14.9c0,0.1,0.1,0.3,0.1,0.4c3.6-4.5,3.4-9.6,5.2-14.4c3.8,1.2,7.4,4.1,11.4,4.4
		c0-1.3-1.1-2.7-2.4-4c-1.8-1.7-4.1-3.2-5.6-4.2c0,0,0,0,0,0l-0.1,0c1.4-2.8,5.6-5.3,6.8-8.2c-0.7-0.4-1.6-0.4-2.4-0.1
		c-2.1,0.7-4.4,3-6.6,4.5c-0.2,0-0.3-0.1-0.4-0.2c-0.8-0.7,0.4-2.9-1.1-4.4C27.2,35.4,27.1,35.3,27,35.2"/>
	<path class="st0" d="M57.2,33.3c0,0,2.8,0.1,2.9,2.7c0,0,1.8-3.2,3.8-3.4c0,0,1.2,1.5-1.8,4.7c0,0,3.7,1.4,4.4,3c0,0-1.2,1.9-6-1
		c0,0,1.6,5.9,0.1,8.8c0,0-2.5-3.2-2.8-7.8c0,0-2.8,1.7-4.8,0c0,0,2.2-2.3,4.9-2.9C58,37.4,56.3,34.9,57.2,33.3"/>
</g>
</svg>
