<?xml version="1.0" encoding="utf-8"?>
<!-- Generator: Adobe Illustrator 27.1.1, SVG Export Plug-In . SVG Version: 6.00 Build 0)  -->
<svg version="1.1" id="Layer_1" xmlns="http://www.w3.org/2000/svg" xmlns:xlink="http://www.w3.org/1999/xlink" x="0px" y="0px"
	 viewBox="0 0 88 92" style="enable-background:new 0 0 88 92;" xml:space="preserve">
<style type="text/css">
	.st0{fill:#EC2377;}
	.st1{fill:#FFFFFF;}
</style>
<g>
	<path class="st0" d="M46.8,59.2c1-0.7,1-1.5,1.3-2.3c1-0.3,2.3-0.1,3.2-0.4c0.2-0.1,0.4-0.2,0.6-0.3c-0.9-0.6-1.9-0.9-2.9-1
		c0,0,0,0,0,0c0,0,0,0,0,0c0-1.7,0.1-3.4-0.5-5.2c0,0,0-0.1,0-0.1c-1.3,1.6-1.2,3.4-1.8,5c-1.3-0.4-2.6-1.4-4-1.5
		c0,0.5,0.4,0.9,0.8,1.4c0.6,0.6,1.4,1.1,1.9,1.5c0,0,0,0,0,0l0,0c-0.5,1-2,1.9-2.4,2.9c0.3,0.1,0.5,0.1,0.8,0
		c0.7-0.2,1.5-1.1,2.3-1.6c0.1,0,0.1,0,0.1,0.1C46.6,57.8,46.2,58.6,46.8,59.2C46.7,59.1,46.8,59.1,46.8,59.2"/>
	<path class="st0" d="M49.9,6.1c0,0.7,0.4,1,0.7,1.5c-0.2,0.6-0.8,1.2-1,1.7c0,0.1-0.1,0.3-0.1,0.4c0.6-0.2,1.2-0.6,1.6-1.1
		c0,0,0,0,0,0c0,0,0,0,0,0c0.8,0.6,1.7,1.3,2.8,1.6c0,0,0.1,0,0.1,0c-0.3-1.2-1.2-1.8-1.8-2.7c0.7-0.5,1.6-0.8,2.2-1.4
		c-0.2-0.2-0.6-0.2-1-0.1c-0.5,0.1-1.1,0.3-1.4,0.4c0,0,0,0,0,0l0,0c-0.3-0.6-0.2-1.6-0.6-2.2c-0.2,0.1-0.3,0.2-0.3,0.4
		c-0.1,0.4,0,1.1-0.1,1.7c0,0-0.1,0-0.1,0C50.6,6.5,50.4,6,49.9,6.1C49.9,6.1,49.9,6.1,49.9,6.1"/>
	<path class="st1" d="M5.5,78.1c0,0.7,0.4,1,0.7,1.5c-0.2,0.6-0.8,1.2-1,1.7c0,0.1-0.1,0.3-0.1,0.4c0.6-0.2,1.2-0.6,1.6-1.1
		c0,0,0,0,0,0c0,0,0,0,0,0c0.8,0.6,1.7,1.3,2.8,1.6c0,0,0.1,0,0.1,0c-0.3-1.2-1.2-1.8-1.8-2.7c0.7-0.5,1.6-0.8,2.2-1.4
		C9.7,78,9.4,78,9,78c-0.5,0.1-1.1,0.3-1.4,0.4c0,0,0,0,0,0l0,0c-0.3-0.6-0.2-1.6-0.6-2.2c-0.2,0.1-0.3,0.2-0.3,0.4
		c-0.1,0.4,0,1.1-0.1,1.7c0,0-0.1,0-0.1,0C6.3,78.5,6.1,78,5.5,78.1C5.6,78.1,5.6,78.1,5.5,78.1"/>
	<path class="st0" d="M74.8,44.5c0.4,1.1,1.2,1.4,1.8,1.9c0,1-0.6,2.2-0.5,3.2c0,0.2,0,0.4,0.1,0.6c0.8-0.7,1.4-1.6,1.8-2.5
		c0,0,0,0,0,0c0,0,0,0,0,0c1.6,0.5,3.3,1,5.2,0.9c0.1,0,0.1,0,0.2,0c-1.2-1.6-2.9-2.1-4.3-3.1c0.8-1.2,2.1-2.1,2.6-3.4
		c-0.4-0.1-1,0.1-1.6,0.4c-0.7,0.4-1.5,1.1-1.9,1.5c0,0,0,0,0,0l0,0c-0.8-0.8-1.2-2.4-2.1-3.1c-0.2,0.2-0.3,0.5-0.3,0.8
		c0,0.8,0.6,1.8,0.9,2.7c0,0.1-0.1,0.1-0.1,0.1c-0.3,0.2-0.9-0.4-1.6-0.1C74.9,44.5,74.9,44.5,74.8,44.5"/>
	<path class="st1" d="M50.8,84.1c0,0-2-5.8,3.2-8.2c0,0-8.2-1.1-10.1-5c0,0,2.1-3.8,11.1-0.1c0,0,0-8.8,2.5-11.5c0,0,5,0.9,2.8,13.2
		c0,0,10.9-8.1,18.2-7.5c0,0-4.5,7.7-13.8,12.2c0,0,5.9,4.5,3.9,9.8c0,0-6.6-2.8-10-7.8C58.7,79.2,54.9,84.6,50.8,84.1"/>
	<path class="st1" d="M65.8,44.8c0,0-4.9-0.2-5.1-4.8c0,0-3.2,5.7-6.7,6c0,0-2.2-2.7,3.2-8.3c0,0-6.5-2.5-7.7-5.2
		c0,0,2.2-3.4,10.6,1.8c0,0-2.8-10.5-0.2-15.7c0,0,4.4,5.6,5,13.8c0,0,5-3,8.4,0c0,0-4,4.1-8.7,5.1C64.5,37.5,67.4,42,65.8,44.8"/>
	<path class="st0" d="M28.7,84.8c0,0-2.2-0.1-2.3-2.1c0,0-1.4,2.6-3,2.7c0,0-1-1.2,1.4-3.7c0,0-2.9-1.1-3.5-2.3c0,0,1-1.5,4.7,0.8
		c0,0-1.2-4.7-0.1-7c0,0,2,2.5,2.2,6.2c0,0,2.3-1.3,3.8,0c0,0-1.8,1.8-3.9,2.3C28.1,81.6,29.4,83.6,28.7,84.8"/>
</g>
</svg>
