<?xml version="1.0" encoding="utf-8"?>
<!-- Generator: Adobe Illustrator 27.1.1, SVG Export Plug-In . SVG Version: 6.00 Build 0)  -->
<svg version="1.1" id="Layer_1" xmlns="http://www.w3.org/2000/svg" xmlns:xlink="http://www.w3.org/1999/xlink" x="0px" y="0px"
	 viewBox="0 0 88 92" style="enable-background:new 0 0 88 92;" xml:space="preserve">
<style type="text/css">
	.st0{fill:#EC2377;}
	.st1{fill:#FFFFFF;}
</style>
<g>
	<path class="st0" d="M41.2,32.1c-1,0.7-1,1.5-1.3,2.3c-1,0.3-2.3,0.1-3.2,0.4c-0.2,0.1-0.4,0.2-0.6,0.3c0.9,0.6,1.9,0.9,2.9,1
		c0,0,0,0,0,0c0,0,0,0,0,0c0,1.7-0.1,3.4,0.5,5.2c0,0,0,0.1,0,0.1c1.3-1.6,1.2-3.4,1.8-5c1.3,0.4,2.6,1.4,4,1.5
		c0-0.5-0.4-0.9-0.8-1.4c-0.6-0.6-1.4-1.1-1.9-1.5c0,0,0,0,0,0l0,0c0.5-1,2-1.9,2.4-2.9c-0.3-0.1-0.5-0.1-0.8,0
		c-0.7,0.2-1.5,1.1-2.3,1.6c-0.1,0-0.1,0-0.1-0.1C41.4,33.5,41.8,32.7,41.2,32.1C41.3,32.1,41.2,32.1,41.2,32.1"/>
	<path class="st0" d="M38.1,85.2c0-0.7-0.4-1-0.7-1.5c0.2-0.6,0.8-1.2,1-1.7c0-0.1,0.1-0.3,0.1-0.4c-0.6,0.2-1.2,0.6-1.6,1.1
		c0,0,0,0,0,0c0,0,0,0,0,0c-0.8-0.6-1.7-1.3-2.8-1.6c0,0-0.1,0-0.1,0c0.3,1.2,1.2,1.8,1.8,2.7c-0.7,0.5-1.6,0.8-2.2,1.4
		c0.2,0.2,0.6,0.2,1,0.1c0.5-0.1,1.1-0.3,1.4-0.4c0,0,0,0,0,0l0,0c0.3,0.6,0.2,1.6,0.6,2.2c0.2-0.1,0.3-0.2,0.3-0.4
		c0.1-0.4,0-1.1,0.1-1.7c0,0,0.1,0,0.1,0C37.4,84.8,37.6,85.2,38.1,85.2C38.1,85.2,38.1,85.2,38.1,85.2"/>
	<path class="st1" d="M82.5,13.2c0-0.7-0.4-1-0.7-1.5c0.2-0.6,0.8-1.2,1-1.7c0-0.1,0.1-0.3,0.1-0.4c-0.6,0.2-1.2,0.6-1.6,1.1
		c0,0,0,0,0,0c0,0,0,0,0,0C80.4,10,79.6,9.4,78.5,9c0,0-0.1,0-0.1,0c0.3,1.2,1.2,1.8,1.8,2.7c-0.7,0.5-1.6,0.8-2.2,1.4
		c0.2,0.2,0.6,0.2,1,0.1c0.5-0.1,1.1-0.3,1.4-0.4c0,0,0,0,0,0l0,0c0.3,0.6,0.2,1.6,0.6,2.2c0.2-0.1,0.3-0.2,0.3-0.4
		c0.1-0.4,0-1.1,0.1-1.7c0,0,0.1,0,0.1,0C81.7,12.8,81.9,13.3,82.5,13.2C82.4,13.2,82.4,13.2,82.5,13.2"/>
	<path class="st0" d="M13.2,46.8c-0.4-1.1-1.2-1.4-1.8-1.9c0-1,0.6-2.2,0.5-3.2c0-0.2,0-0.4-0.1-0.6c-0.8,0.7-1.4,1.6-1.8,2.5
		c0,0,0,0,0,0c0,0,0,0,0,0c-1.6-0.5-3.3-1-5.2-0.9c-0.1,0-0.1,0-0.2,0c1.2,1.6,2.9,2.1,4.3,3.1c-0.8,1.2-2.1,2.1-2.6,3.4
		c0.4,0.1,1-0.1,1.6-0.4c0.7-0.4,1.5-1.1,1.9-1.5c0,0,0,0,0,0l0,0c0.8,0.8,1.2,2.4,2.1,3.1c0.2-0.2,0.3-0.5,0.3-0.8
		c0-0.8-0.6-1.8-0.9-2.7c0-0.1,0.1-0.1,0.1-0.1c0.3-0.2,0.9,0.4,1.6,0.1C13.1,46.8,13.1,46.8,13.2,46.8"/>
	<path class="st1" d="M37.2,7.1c0,0,2,5.8-3.2,8.2c0,0,8.2,1.1,10.1,5c0,0-2.1,3.8-11.1,0.1c0,0,0,8.8-2.5,11.5c0,0-5-0.9-2.8-13.2
		c0,0-10.9,8.1-18.2,7.5c0,0,4.5-7.7,13.8-12.2c0,0-5.9-4.5-3.9-9.8c0,0,6.6,2.8,10,7.8C29.3,12,33.1,6.6,37.2,7.1"/>
	<path class="st1" d="M22.2,46.4c0,0,4.9,0.2,5.1,4.8c0,0,3.2-5.7,6.7-6c0,0,2.2,2.7-3.2,8.3c0,0,6.5,2.5,7.7,5.2
		c0,0-2.2,3.4-10.6-1.8c0,0,2.8,10.5,0.2,15.7c0,0-4.4-5.6-5-13.8c0,0-5,3-8.4,0c0,0,4-4.1,8.7-5.1C23.5,53.7,20.6,49.3,22.2,46.4"
		/>
	<path class="st0" d="M59.3,6.4c0,0,2.2,0.1,2.3,2.1c0,0,1.4-2.6,3-2.7c0,0,1,1.2-1.4,3.7c0,0,2.9,1.1,3.5,2.3c0,0-1,1.5-4.7-0.8
		c0,0,1.2,4.7,0.1,7c0,0-2-2.5-2.2-6.2c0,0-2.3,1.3-3.8,0c0,0,1.8-1.8,3.9-2.3C59.9,9.7,58.6,7.7,59.3,6.4"/>
</g>
</svg>
