<?xml version="1.0" encoding="utf-8"?>
<!-- Generator: Adobe Illustrator 27.1.1, SVG Export Plug-In . SVG Version: 6.00 Build 0)  -->
<svg version="1.1" id="Layer_1" xmlns="http://www.w3.org/2000/svg" xmlns:xlink="http://www.w3.org/1999/xlink" x="0px" y="0px"
	 viewBox="0 0 73 60" style="enable-background:new 0 0 73 60;" xml:space="preserve">
<style type="text/css">
	.st0{fill:#F16531;}
	.st1{fill:#1B93A6;}
</style>
<g>
	<path class="st0" d="M13,2.4c-0.1,0-0.1,0.1-0.3,0c-0.8,0.8-0.2,1.9-0.6,2.3c0,0-0.1,0.1-0.2,0.1c-1.1-0.7-2.3-1.9-3.4-2.3
		C8.1,2.4,7.7,2.4,7.3,2.6c0.6,1.5,2.8,2.7,3.5,4.2l0,0l0,0C10,7.3,8.8,8.1,7.9,9c-0.7,0.6-1.2,1.3-1.2,2c2.1-0.2,3.9-1.7,5.9-2.3
		c0.9,2.5,0.8,5.2,2.7,7.5c0.1-0.1,0.1-0.1,0.1-0.2c0.9-2.6,0.8-5.2,0.8-7.7l0,0l0,0c1.5-0.1,2.9-0.6,4.3-1.5
		c-0.2-0.2-0.5-0.3-0.8-0.4c-1.4-0.5-3.4-0.2-4.8-0.6C14.5,4.6,14.4,3.4,13,2.4"/>
	<path class="st1" d="M3.7,54.2c0.1,0,0.1,0,0.2,0.1c0.6,0.1,1-0.6,1.3-0.5l0.1,0.1c0.1,0.8-0.1,1.8,0.1,2.5
		c0.1,0.3,0.3,0.5,0.5,0.6c0.5-0.9,0.3-2.4,0.8-3.3l0,0l0,0c0.5,0.1,1.3,0.5,2.1,0.6c0.6,0.1,1.2,0.1,1.5-0.1
		c-0.9-1-2.3-1.3-3.3-2.1c0.9-1.3,2.2-2.2,2.7-4H9.6c-1.6,0.5-2.8,1.5-4.1,2.4l0,0l0,0c-0.6-0.7-1.4-1.2-2.3-1.6
		c0,0.1,0,0.3,0.1,0.5c0.2,0.9,1.1,1.8,1.4,2.6C4.3,52.7,3.7,53.1,3.7,54.2"/>
	<path class="st0" d="M54.5,24.1c0,0,0.1,0.1,0,0.1c0.9,0.5,1.8-0.4,2.3-0.1c0.1,0.1,0.2,0.1,0.2,0.2c-0.4,1.3-1.3,2.8-1.3,3.9
		c0,0.5,0.1,0.9,0.4,1.2c1.3-1,1.9-3.5,3.1-4.6l0,0l0,0c0.7,0.6,1.8,1.6,2.9,2.2c0.8,0.5,1.6,0.8,2.3,0.6c-0.7-1.9-2.7-3.3-3.8-5
		c2.1-1.6,4.7-2.3,6.4-4.7c0,0-0.1,0-0.2,0c-2.8-0.1-5.2,0.7-7.6,1.4l0,0l0,0c-0.5-1.4-1.4-2.6-2.6-3.7c-0.1,0.3-0.2,0.6-0.2,0.9
		c0,1.5,0.8,3.3,0.8,4.8C56.2,22.1,55.1,22.5,54.5,24.1"/>
	<path class="st1" d="M41.1,18.1c2.4,4.2-1.9,10.8-1.9,10.8c7,1.6,12.9,7.6,12.9,7.6c-5,4.5-12.5,0-12.5,0
		c-0.9,12.1-7.4,20.4-7.4,20.4c-3.8-7.7,0.3-23.2,0.3-23.2c-12.5,7.7-15.7,2.6-15.7,2.6c1.9-4,11.5-7.8,11.5-7.8
		c-7.9-8.2-4.7-12.2-4.7-12.2c5.2,0.4,9.9,8.9,9.9,8.9C33.8,18.4,41.1,18.1,41.1,18.1"/>
</g>
</svg>
