<?xml version="1.0" encoding="utf-8"?>
<!-- Generator: Adobe Illustrator 27.1.1, SVG Export Plug-In . SVG Version: 6.00 Build 0)  -->
<svg version="1.1" id="Layer_1" xmlns="http://www.w3.org/2000/svg" xmlns:xlink="http://www.w3.org/1999/xlink" x="0px" y="0px"
	 viewBox="0 0 57 88.5" style="enable-background:new 0 0 57 88.5;" xml:space="preserve">
<style type="text/css">
	.st0{fill:#FFFFFF;}
</style>
<g>
	<g>
		<path class="st0" d="M21.5,85.1v2.2H20v-6.2h1.5v2.2h6.3v1.7H21.5z"/>
		<path class="st0" d="M26.9,75.3c0.3,0.3,0.6,0.6,0.8,1s0.3,0.8,0.3,1.3c0,0.4-0.1,0.8-0.2,1.2c-0.1,0.4-0.3,0.7-0.6,1
			c-0.2,0.3-0.5,0.5-0.9,0.6c-0.3,0.2-0.7,0.2-1.2,0.2c-0.4,0-0.8-0.1-1.2-0.2c-0.3-0.2-0.6-0.4-0.9-0.6c-0.2-0.3-0.4-0.6-0.6-1
			c-0.1-0.4-0.2-0.8-0.2-1.2c0-0.4,0.1-0.7,0.2-1.1c0.1-0.3,0.3-0.6,0.6-0.8c0.2-0.2,0.5-0.4,0.9-0.5s0.7-0.2,1.2-0.2h0.5v3.9
			c0.3-0.1,0.6-0.2,0.8-0.4s0.3-0.5,0.3-0.8c0-0.3-0.1-0.5-0.2-0.7c-0.1-0.2-0.3-0.4-0.5-0.5L26.9,75.3z M24.5,76.7
			c-0.3,0-0.5,0.1-0.7,0.3s-0.3,0.4-0.3,0.7c0,0.2,0,0.3,0.1,0.5c0.1,0.1,0.1,0.3,0.2,0.4c0.1,0.1,0.2,0.2,0.3,0.2
			c0.1,0.1,0.2,0.1,0.4,0.1V76.7z"/>
		<path class="st0" d="M24.2,70.4c-0.1,0.1-0.2,0.2-0.3,0.3c-0.1,0.1-0.1,0.3-0.1,0.5c0,0.4,0.1,0.8,0.4,1c0.3,0.2,0.6,0.4,1,0.4
			s0.7-0.1,1-0.4c0.3-0.2,0.4-0.6,0.4-1c0-0.2,0-0.3-0.1-0.5c-0.1-0.1-0.2-0.2-0.3-0.3l1.2-1.1c0.3,0.3,0.5,0.6,0.6,0.9
			c0.1,0.4,0.2,0.7,0.2,1c0,0.4-0.1,0.8-0.2,1.2c-0.1,0.4-0.3,0.7-0.6,1c-0.2,0.3-0.5,0.5-0.9,0.6c-0.3,0.2-0.7,0.2-1.2,0.2
			c-0.4,0-0.8-0.1-1.2-0.2c-0.3-0.2-0.6-0.4-0.9-0.6c-0.2-0.3-0.4-0.6-0.6-1c-0.1-0.4-0.2-0.8-0.2-1.2c0-0.3,0.1-0.7,0.2-1
			c0.1-0.4,0.3-0.7,0.6-0.9L24.2,70.4z"/>
		<path class="st0" d="M22.4,68.7v-1.6h0.7v0c-0.1-0.1-0.2-0.1-0.3-0.2c-0.1-0.1-0.2-0.2-0.3-0.3c-0.1-0.1-0.1-0.3-0.2-0.5
			c-0.1-0.2-0.1-0.4-0.1-0.6c0-0.4,0.1-0.8,0.2-1c0.1-0.3,0.3-0.5,0.5-0.6c0.2-0.1,0.5-0.2,0.8-0.3c0.3-0.1,0.6-0.1,1-0.1h3v1.7
			h-2.6c-0.2,0-0.3,0-0.5,0s-0.3,0-0.5,0.1s-0.3,0.1-0.3,0.3s-0.1,0.3-0.1,0.5s0,0.4,0.1,0.5c0.1,0.1,0.2,0.2,0.3,0.3
			s0.3,0.1,0.4,0.1c0.2,0,0.3,0,0.5,0h2.7v1.7H22.4z"/>
		<path class="st0" d="M25.2,62.5c-0.4,0-0.8-0.1-1.2-0.2c-0.3-0.2-0.6-0.4-0.9-0.6c-0.2-0.3-0.4-0.6-0.6-1
			c-0.1-0.4-0.2-0.8-0.2-1.2c0-0.4,0.1-0.8,0.2-1.2c0.1-0.4,0.3-0.7,0.6-1c0.2-0.3,0.5-0.5,0.9-0.6c0.3-0.2,0.7-0.2,1.2-0.2
			c0.4,0,0.8,0.1,1.2,0.2c0.3,0.2,0.6,0.4,0.9,0.6c0.2,0.3,0.4,0.6,0.6,1c0.1,0.4,0.2,0.8,0.2,1.2c0,0.4-0.1,0.8-0.2,1.2
			c-0.1,0.4-0.3,0.7-0.6,1c-0.2,0.3-0.5,0.5-0.9,0.6C26,62.4,25.6,62.5,25.2,62.5z M25.2,60.8c0.4,0,0.7-0.1,1-0.4
			c0.3-0.2,0.4-0.6,0.4-1s-0.1-0.8-0.4-1c-0.3-0.2-0.6-0.4-1-0.4s-0.7,0.1-1,0.4c-0.3,0.2-0.4,0.6-0.4,1s0.1,0.8,0.4,1
			C24.4,60.7,24.7,60.8,25.2,60.8z"/>
		<path class="st0" d="M19.4,55.5v-1.7h8.4v1.7H19.4z"/>
		<path class="st0" d="M25.2,52.8c-0.4,0-0.8-0.1-1.2-0.2c-0.3-0.2-0.6-0.4-0.9-0.6c-0.2-0.3-0.4-0.6-0.6-1
			c-0.1-0.4-0.2-0.8-0.2-1.2c0-0.4,0.1-0.8,0.2-1.2c0.1-0.4,0.3-0.7,0.6-1c0.2-0.3,0.5-0.5,0.9-0.6c0.3-0.2,0.7-0.2,1.2-0.2
			c0.4,0,0.8,0.1,1.2,0.2c0.3,0.2,0.6,0.4,0.9,0.6c0.2,0.3,0.4,0.6,0.6,1c0.1,0.4,0.2,0.8,0.2,1.2c0,0.4-0.1,0.8-0.2,1.2
			c-0.1,0.4-0.3,0.7-0.6,1c-0.2,0.3-0.5,0.5-0.9,0.6C26,52.7,25.6,52.8,25.2,52.8z M25.2,51.1c0.4,0,0.7-0.1,1-0.4
			c0.3-0.2,0.4-0.6,0.4-1s-0.1-0.8-0.4-1c-0.3-0.2-0.6-0.4-1-0.4s-0.7,0.1-1,0.4c-0.3,0.2-0.4,0.6-0.4,1s0.1,0.8,0.4,1
			C24.4,51,24.7,51.1,25.2,51.1z"/>
		<path class="st0" d="M27.4,40.1c1,0,1.8,0.3,2.3,0.8s0.8,1.3,0.8,2.4c0,0.5-0.1,1-0.2,1.4S30,45.6,29.7,46l-1.4-0.9
			c0.2-0.3,0.4-0.5,0.5-0.8c0.1-0.3,0.2-0.6,0.2-0.9c0-0.5-0.1-0.9-0.4-1.1c-0.2-0.2-0.6-0.4-1-0.4h-0.5v0c0.3,0.2,0.4,0.4,0.6,0.7
			c0.1,0.3,0.2,0.6,0.2,0.8c0,0.4-0.1,0.8-0.2,1.1c-0.1,0.3-0.3,0.6-0.6,0.8c-0.2,0.2-0.5,0.4-0.9,0.5C25.9,46,25.5,46,25.1,46
			c-0.4,0-0.7-0.1-1-0.2c-0.3-0.1-0.6-0.3-0.9-0.5c-0.3-0.2-0.5-0.5-0.6-0.8c-0.2-0.3-0.2-0.6-0.2-1c0-0.2,0-0.5,0.1-0.7
			c0.1-0.2,0.1-0.4,0.2-0.5c0.1-0.2,0.2-0.3,0.3-0.4c0.1-0.1,0.2-0.2,0.3-0.3v0h-0.7v-1.5H27.4z M25.1,44.4c0.2,0,0.3,0,0.5-0.1
			s0.3-0.2,0.4-0.3c0.1-0.1,0.2-0.3,0.3-0.4c0.1-0.2,0.1-0.3,0.1-0.5c0-0.2,0-0.4-0.1-0.5c-0.1-0.2-0.2-0.3-0.3-0.4
			c-0.1-0.1-0.3-0.2-0.4-0.3s-0.3-0.1-0.5-0.1c-0.2,0-0.3,0-0.5,0.1s-0.3,0.2-0.4,0.3c-0.1,0.1-0.2,0.3-0.3,0.4
			c-0.1,0.2-0.1,0.3-0.1,0.5c0,0.2,0,0.4,0.1,0.5c0.1,0.2,0.2,0.3,0.3,0.4c0.1,0.1,0.3,0.2,0.4,0.3S24.9,44.4,25.1,44.4z"/>
		<path class="st0" d="M20,37.9v-2.3l1.6,1.9v1.5L20,37.9z M22.4,38.8v-1.7h5.4v1.7H22.4z"/>
		<path class="st0" d="M27.2,32.5L27.2,32.5c0.3,0.2,0.5,0.5,0.6,0.8s0.2,0.6,0.2,1c0,0.3,0,0.5-0.1,0.7c-0.1,0.2-0.2,0.4-0.3,0.6
			c-0.1,0.2-0.3,0.3-0.5,0.4s-0.4,0.2-0.7,0.2c-0.3,0-0.6-0.1-0.8-0.2c-0.2-0.1-0.4-0.3-0.5-0.5c-0.1-0.2-0.2-0.4-0.3-0.7
			s-0.1-0.5-0.2-0.8c0-0.3-0.1-0.5-0.1-0.8c0-0.3,0-0.5,0-0.8c-0.3,0-0.5,0.1-0.7,0.3c-0.2,0.2-0.3,0.5-0.3,0.8
			c0,0.3,0.1,0.5,0.2,0.8c0.1,0.2,0.3,0.4,0.5,0.6l-0.9,0.9c-0.3-0.3-0.5-0.7-0.7-1.1c-0.1-0.4-0.2-0.8-0.2-1.3
			c0-0.5,0.1-0.9,0.2-1.2c0.1-0.3,0.3-0.6,0.5-0.8c0.2-0.2,0.5-0.3,0.9-0.4c0.3-0.1,0.7-0.1,1.2-0.1h2.7v1.5H27.2z M25.5,32.9
			c0,0.1,0,0.3,0,0.5c0,0.2,0,0.4,0.1,0.5c0.1,0.2,0.1,0.3,0.2,0.4c0.1,0.1,0.2,0.2,0.4,0.2c0.2,0,0.3-0.1,0.4-0.3
			c0.1-0.2,0.1-0.3,0.1-0.5c0-0.2,0-0.3-0.1-0.5s-0.1-0.3-0.2-0.4c-0.1-0.1-0.2-0.2-0.3-0.3c-0.1-0.1-0.3-0.1-0.4-0.1h-0.4V32.9z"/>
		<path class="st0" d="M39,84.1c0.3,0.1,0.5,0.2,0.8,0.3c0.2,0.1,0.4,0.2,0.6,0.4c0.2,0.2,0.3,0.4,0.3,0.6c0.1,0.2,0.1,0.6,0.1,1
			c0,0.4-0.1,0.8-0.2,1.2l-1.4-0.2c0.1-0.3,0.2-0.5,0.2-0.8c0-0.2,0-0.3-0.1-0.5c0-0.1-0.1-0.2-0.2-0.3s-0.2-0.1-0.3-0.2
			s-0.2-0.1-0.4-0.2l-0.3-0.1l-5.5,2.4V86l3.6-1.4v0l-3.6-1.2v-1.7L39,84.1z"/>
		<path class="st0" d="M38.1,72.1v1.5h-0.7v0c0.1,0.1,0.2,0.2,0.3,0.3c0.1,0.1,0.2,0.2,0.3,0.4c0.1,0.1,0.1,0.3,0.2,0.5
			c0.1,0.2,0.1,0.4,0.1,0.5c0,0.4-0.1,0.8-0.2,1.1c-0.1,0.3-0.3,0.6-0.6,0.8c-0.2,0.2-0.5,0.4-0.9,0.5c-0.3,0.1-0.7,0.2-1.1,0.2
			c-0.4,0-0.7-0.1-1.1-0.2c-0.3-0.1-0.7-0.3-0.9-0.5c-0.3-0.2-0.5-0.5-0.6-0.8c-0.2-0.3-0.2-0.6-0.2-1c0-0.3,0.1-0.7,0.2-1
			s0.3-0.5,0.6-0.7v0h-3.6v-1.7H38.1z M35.4,73.6c-0.4,0-0.7,0.1-1,0.4c-0.3,0.2-0.4,0.6-0.4,1s0.1,0.8,0.4,1c0.3,0.2,0.6,0.4,1,0.4
			s0.7-0.1,1-0.4c0.3-0.2,0.4-0.6,0.4-1s-0.1-0.8-0.4-1C36.2,73.7,35.8,73.6,35.4,73.6z"/>
		<path class="st0" d="M37.2,65.6c0.3,0.3,0.6,0.6,0.8,1s0.3,0.8,0.3,1.3c0,0.4-0.1,0.8-0.2,1.2c-0.1,0.4-0.3,0.7-0.6,1
			c-0.2,0.3-0.5,0.5-0.9,0.6c-0.3,0.2-0.7,0.2-1.2,0.2c-0.4,0-0.8-0.1-1.2-0.2c-0.3-0.2-0.6-0.4-0.9-0.6c-0.2-0.3-0.4-0.6-0.6-1
			c-0.1-0.4-0.2-0.8-0.2-1.2c0-0.4,0.1-0.7,0.2-1.1c0.1-0.3,0.3-0.6,0.6-0.8c0.2-0.2,0.5-0.4,0.9-0.5s0.7-0.2,1.2-0.2h0.5v3.9
			c0.3-0.1,0.6-0.2,0.8-0.4S37,68.3,37,68c0-0.3-0.1-0.5-0.2-0.7c-0.1-0.2-0.3-0.4-0.5-0.5L37.2,65.6z M34.8,67
			c-0.3,0-0.5,0.1-0.7,0.3s-0.3,0.4-0.3,0.7c0,0.2,0,0.3,0.1,0.5c0.1,0.1,0.1,0.3,0.2,0.4c0.1,0.1,0.2,0.2,0.3,0.2
			c0.1,0.1,0.2,0.1,0.4,0.1V67z"/>
		<path class="st0" d="M32.7,64.2v-1.5h0.7v0c-0.1-0.1-0.2-0.2-0.3-0.3c-0.1-0.1-0.2-0.2-0.3-0.4c-0.1-0.1-0.1-0.3-0.2-0.5
			c-0.1-0.2-0.1-0.4-0.1-0.5c0-0.4,0.1-0.8,0.2-1.1c0.1-0.3,0.3-0.6,0.6-0.8c0.2-0.2,0.5-0.4,0.9-0.5c0.3-0.1,0.7-0.2,1.1-0.2
			c0.4,0,0.7,0.1,1.1,0.2c0.3,0.1,0.7,0.3,0.9,0.5c0.3,0.2,0.5,0.5,0.6,0.8c0.2,0.3,0.2,0.6,0.2,1c0,0.3-0.1,0.7-0.2,1
			c-0.1,0.3-0.3,0.5-0.6,0.7v0h3.1v1.7H32.7z M35.4,62.6c0.4,0,0.7-0.1,1-0.4c0.3-0.2,0.4-0.6,0.4-1s-0.1-0.8-0.4-1
			c-0.3-0.2-0.6-0.4-1-0.4s-0.7,0.1-1,0.4c-0.3,0.2-0.4,0.6-0.4,1s0.1,0.8,0.4,1C34.7,62.5,35,62.6,35.4,62.6z"/>
		<path class="st0" d="M35.4,57.5c-0.4,0-0.8-0.1-1.2-0.2c-0.3-0.2-0.6-0.4-0.9-0.6c-0.2-0.3-0.4-0.6-0.6-1
			c-0.1-0.4-0.2-0.8-0.2-1.2c0-0.4,0.1-0.8,0.2-1.2c0.1-0.4,0.3-0.7,0.6-1c0.2-0.3,0.5-0.5,0.9-0.6c0.3-0.2,0.7-0.2,1.2-0.2
			c0.4,0,0.8,0.1,1.2,0.2c0.3,0.2,0.6,0.4,0.9,0.6c0.2,0.3,0.4,0.6,0.6,1c0.1,0.4,0.2,0.8,0.2,1.2c0,0.4-0.1,0.8-0.2,1.2
			c-0.1,0.4-0.3,0.7-0.6,1c-0.2,0.3-0.5,0.5-0.9,0.6C36.2,57.5,35.9,57.5,35.4,57.5z M35.4,55.9c0.4,0,0.7-0.1,1-0.4
			c0.3-0.2,0.4-0.6,0.4-1s-0.1-0.8-0.4-1c-0.3-0.2-0.6-0.4-1-0.4s-0.7,0.1-1,0.4c-0.3,0.2-0.4,0.6-0.4,1s0.1,0.8,0.4,1
			C34.7,55.7,35,55.9,35.4,55.9z"/>
		<path class="st0" d="M32.7,50.5v-1.7h0.9v0c-0.3-0.2-0.6-0.4-0.8-0.6c-0.2-0.2-0.2-0.6-0.2-0.9c0-0.1,0-0.2,0-0.3
			c0-0.1,0-0.2,0-0.3h1.5c0,0.1-0.1,0.2-0.1,0.4c0,0.1,0,0.2,0,0.4c0,0.3,0,0.6,0.1,0.8s0.2,0.3,0.4,0.4c0.2,0.1,0.4,0.2,0.6,0.2
			s0.5,0,0.7,0h2.3v1.7H32.7z"/>
		<path class="st0" d="M34.1,42.3v1.5h1.8c0.1,0,0.3,0,0.4,0c0.1,0,0.2,0,0.3-0.1s0.2-0.1,0.2-0.2c0-0.1,0.1-0.3,0.1-0.4
			c0-0.1,0-0.2,0-0.4s-0.1-0.3-0.1-0.3h1.4c0.1,0.2,0.1,0.4,0.1,0.6c0,0.2,0,0.4,0,0.6c0,0.3,0,0.5-0.1,0.8
			c-0.1,0.2-0.2,0.4-0.3,0.6c-0.1,0.2-0.3,0.3-0.5,0.4c-0.2,0.1-0.5,0.2-0.8,0.2h-2.6v1.1h-1.3v-1.1h-1.6v-1.7h1.6v-1.5H34.1z"/>
		<path class="st0" d="M37.2,36.4c0.3,0.3,0.6,0.6,0.8,1s0.3,0.8,0.3,1.3c0,0.4-0.1,0.8-0.2,1.2c-0.1,0.4-0.3,0.7-0.6,1
			c-0.2,0.3-0.5,0.5-0.9,0.6c-0.3,0.2-0.7,0.2-1.2,0.2c-0.4,0-0.8-0.1-1.2-0.2c-0.3-0.2-0.6-0.4-0.9-0.6c-0.2-0.3-0.4-0.6-0.6-1
			c-0.1-0.4-0.2-0.8-0.2-1.2c0-0.4,0.1-0.7,0.2-1.1c0.1-0.3,0.3-0.6,0.6-0.8c0.2-0.2,0.5-0.4,0.9-0.5s0.7-0.2,1.2-0.2h0.5V40
			c0.3-0.1,0.6-0.2,0.8-0.4S37,39,37,38.7c0-0.3-0.1-0.5-0.2-0.7c-0.1-0.2-0.3-0.4-0.5-0.5L37.2,36.4z M34.8,37.8
			c-0.3,0-0.5,0.1-0.7,0.3s-0.3,0.4-0.3,0.7c0,0.2,0,0.3,0.1,0.5c0.1,0.1,0.1,0.3,0.2,0.4c0.1,0.1,0.2,0.2,0.3,0.2
			c0.1,0.1,0.2,0.1,0.4,0.1V37.8z"/>
		<path class="st0" d="M34.3,32c-0.3,0.2-0.5,0.6-0.5,1c0,0.1,0,0.3,0.1,0.4c0.1,0.1,0.2,0.2,0.3,0.2c0.1,0,0.2-0.1,0.3-0.2
			c0.1-0.1,0.1-0.3,0.2-0.5c0-0.2,0.1-0.4,0.2-0.7c0.1-0.2,0.1-0.5,0.3-0.7c0.1-0.2,0.3-0.4,0.5-0.5c0.2-0.1,0.5-0.2,0.8-0.2
			c0.3,0,0.6,0.1,0.9,0.2c0.2,0.2,0.4,0.3,0.5,0.6s0.2,0.5,0.3,0.8c0.1,0.3,0.1,0.6,0.1,0.9c0,0.4-0.1,0.8-0.2,1.1
			c-0.1,0.4-0.3,0.7-0.6,1l-1.1-1c0.2-0.2,0.3-0.3,0.4-0.5c0.1-0.2,0.2-0.4,0.2-0.7c0-0.2,0-0.4-0.1-0.5c-0.1-0.2-0.2-0.2-0.3-0.2
			c-0.1,0-0.2,0.1-0.3,0.2c-0.1,0.1-0.1,0.3-0.2,0.5c0,0.2-0.1,0.4-0.2,0.7s-0.1,0.5-0.2,0.7c-0.1,0.2-0.3,0.4-0.5,0.5
			s-0.5,0.2-0.8,0.2c-0.3,0-0.6-0.1-0.8-0.2c-0.2-0.1-0.4-0.3-0.6-0.5c-0.1-0.2-0.3-0.5-0.3-0.7s-0.1-0.6-0.1-0.8
			c0-0.4,0.1-0.7,0.2-1.1c0.1-0.4,0.3-0.7,0.6-0.9L34.3,32z"/>
	</g>
	<g>
		<polygon class="st0" points="18.7,4.3 18.4,4.2 19.3,1.6 19.6,1.7 		"/>
		<polygon class="st0" points="23.9,6.4 23.6,6.3 24.5,3.6 24.8,3.7 		"/>
		<path class="st0" d="M20.4,21.9c-0.1,0-0.3,0-0.4-0.1L10.3,18c-0.5-0.2-0.8-0.8-0.6-1.3l4.8-12.4C14.6,4,14.8,3.8,15,3.7
			c0.3-0.1,0.5-0.1,0.8,0l9.7,3.8c0.5,0.2,0.8,0.8,0.6,1.3l-4.8,12.4c-0.1,0.3-0.3,0.5-0.5,0.6C20.7,21.8,20.5,21.9,20.4,21.9z
			 M15.5,4.3c-0.1,0-0.1,0-0.2,0c-0.1,0-0.2,0.1-0.2,0.2l-4.8,12.4c-0.1,0.2,0,0.4,0.2,0.5l9.7,3.8c0.1,0,0.2,0,0.3,0
			c0.1,0,0.2-0.1,0.2-0.2l4.8-12.4c0.1-0.2,0-0.4-0.2-0.5l-9.7-3.8C15.6,4.3,15.5,4.3,15.5,4.3z"/>
		<path class="st0" d="M23.9,7.2c-0.1,0-0.2,0-0.4-0.1l-5.6-2.2c-0.3-0.1-0.5-0.3-0.6-0.5c-0.1-0.3-0.1-0.5,0-0.8l0.9-2.2
			c0.2-0.5,0.8-0.8,1.3-0.6L25.1,3c0.3,0.1,0.5,0.3,0.6,0.5c0.1,0.3,0.1,0.5,0,0.8l-0.9,2.2C24.7,6.9,24.3,7.2,23.9,7.2z M19.1,1.4
			c-0.2,0-0.3,0.1-0.4,0.2l-0.9,2.2c0,0.1,0,0.2,0,0.3c0,0.1,0.1,0.2,0.2,0.2l5.6,2.2c0.2,0.1,0.4,0,0.5-0.2l0.9-2.2
			c0-0.1,0-0.2,0-0.3c0-0.1-0.1-0.2-0.2-0.2l-5.6-2.2C19.2,1.4,19.2,1.4,19.1,1.4z"/>
		<path class="st0" d="M14.9,22.8c-0.1,0-0.3,0-0.4-0.1L14,22.5c-0.5-0.2-0.8-0.8-0.6-1.3l0.3-0.7c0.1-0.3,0.3-0.5,0.5-0.6
			c0.3-0.1,0.5-0.1,0.8,0l0.5,0.2c0.5,0.2,0.8,0.8,0.6,1.3l-0.3,0.7c-0.1,0.3-0.3,0.5-0.5,0.6C15.2,22.7,15,22.8,14.9,22.8z
			 M14.7,20.4c-0.1,0-0.1,0-0.2,0c-0.1,0-0.2,0.1-0.2,0.2L14,21.4c-0.1,0.2,0,0.4,0.2,0.5l0.5,0.2c0.1,0,0.2,0,0.3,0
			c0.1,0,0.2-0.1,0.2-0.2l0.3-0.7c0.1-0.2,0-0.4-0.2-0.5l-0.5-0.2C14.8,20.4,14.7,20.4,14.7,20.4z"/>
		<path class="st0" d="M11.5,24.5c-0.1,0-0.1,0-0.2,0c-1.3,0-2.6-0.5-4-1c-2.7-0.9-4.8-1.9-7.3,0.3l0-0.8c2.6-2,4.9-1,7.5-0.1
			c1.3,0.5,2.6,0.9,3.8,1c1.9,0.1,2.6-1.2,2.6-1.3l0.6,0.3C14.5,22.9,13.8,24.5,11.5,24.5z"/>
		<path class="st0" d="M19.2,17.4c-0.1,0-0.2,0-0.3-0.1l-4.8-1.9c-0.4-0.2-0.7-0.7-0.5-1.1L16,8.3c0.1-0.2,0.2-0.4,0.5-0.5
			c0.2-0.1,0.5-0.1,0.7,0l4.8,1.9c0.4,0.2,0.7,0.7,0.5,1.1L20,16.9c-0.1,0.2-0.2,0.4-0.5,0.5C19.4,17.4,19.3,17.4,19.2,17.4z
			 M16.8,8.1c-0.2,0-0.4,0.1-0.5,0.4v0l-2.4,6.1c-0.1,0.3,0,0.6,0.3,0.7l4.8,1.9c0.1,0.1,0.3,0.1,0.4,0c0.1-0.1,0.2-0.2,0.3-0.3
			l2.4-6.1c0.1-0.3,0-0.6-0.3-0.7L17,8.1C16.9,8.1,16.8,8.1,16.8,8.1z"/>
		<path class="st0" d="M29.4,18.3c-0.2,0-0.4,0-0.5-0.1c-0.2-0.1-0.4-0.4-0.5-0.6l-0.2-0.7c-0.1-0.5,0.2-1.1,0.7-1.2
			c0.3-0.1,0.5,0,0.8,0.1c0.2,0.1,0.4,0.4,0.5,0.6l0.2,0.7c0.1,0.5-0.2,1.1-0.7,1.2C29.5,18.2,29.5,18.3,29.4,18.3z M29.2,16.1
			c0,0-0.1,0-0.1,0c-0.2,0.1-0.4,0.3-0.3,0.5l0.2,0.7c0,0.1,0.1,0.2,0.2,0.3c0.1,0.1,0.2,0.1,0.3,0c0.2-0.1,0.4-0.3,0.3-0.5
			l-0.2-0.7c0-0.1-0.1-0.2-0.2-0.3C29.3,16.1,29.3,16.1,29.2,16.1z"/>
		<path class="st0" d="M33,23.7c-0.9,0-1.7-0.6-1.9-1.4l-2.4-8.7c-0.4-1.3-0.2-2.6,0.4-3.7c0.6-0.9,1.4-1.6,2.5-1.8h0L32,8
			c2-0.5,4.1,0.8,4.7,2.8l1.9,6.8c0.4,1.3,0.2,2.6-0.4,3.7c-0.6,0.9-1.4,1.6-2.5,1.8l-2.3,0.5C33.3,23.7,33.2,23.7,33,23.7z
			 M31.9,9.2c-0.7,0.2-1.3,0.6-1.7,1.3c-0.5,0.8-0.6,1.8-0.3,2.8l2.4,8.7c0.1,0.4,0.5,0.7,0.9,0.6l2.3-0.5c0.7-0.2,1.3-0.6,1.7-1.3
			c0.5-0.8,0.6-1.8,0.3-2.8l-1.9-6.8c-0.4-1.4-1.9-2.3-3.3-2L31.9,9.2z"/>
		<path class="st0" d="M50.7,19.2c-0.9,0-1.7-0.6-1.9-1.4l-2.4-8.7c-0.4-1.3-0.2-2.6,0.4-3.7c0.6-0.9,1.4-1.6,2.5-1.8l0.4-0.1
			c2-0.5,4.1,0.8,4.7,2.8l1.9,6.8c0.4,1.3,0.2,2.6-0.4,3.7c-0.6,0.9-1.4,1.6-2.5,1.8l-2.3,0.5C51,19.2,50.8,19.2,50.7,19.2z
			 M50.6,4.6c-0.2,0-0.4,0-0.6,0.1l-0.4,0.1c-0.7,0.2-1.3,0.6-1.7,1.3c-0.5,0.8-0.6,1.8-0.3,2.8l2.4,8.7c0.1,0.4,0.5,0.7,0.9,0.6
			l2.3-0.5c0.7-0.2,1.3-0.6,1.7-1.3c0.5-0.8,0.6-1.8,0.3-2.8l-1.9-6.8C52.9,5.4,51.8,4.6,50.6,4.6z"/>
		<path class="st0" d="M38.1,16.1c-0.4,0-0.9-0.3-1-0.8l-0.2-0.8c-0.1-0.3,0-0.5,0.1-0.8c0.1-0.2,0.4-0.4,0.6-0.5l9.1-2.3
			c0.5-0.1,1.1,0.2,1.2,0.7l0.2,0.8c0.1,0.3,0,0.5-0.1,0.8c-0.1,0.2-0.4,0.4-0.6,0.5L38.3,16C38.2,16.1,38.2,16.1,38.1,16.1z
			 M37.5,14.3l0.2,0.8c0.1,0.2,0.3,0.4,0.5,0.3l9.1-2.3c0.1,0,0.2-0.1,0.3-0.2c0.1-0.1,0.1-0.2,0-0.3l-0.2-0.8
			c-0.1-0.2-0.3-0.4-0.5-0.3l-9.1,2.3c-0.1,0-0.2,0.1-0.3,0.2C37.4,14.1,37.4,14.2,37.5,14.3L37.5,14.3z"/>
		<path class="st0" d="M55.7,11.6c-0.2,0-0.4,0-0.5-0.1c-0.2-0.1-0.4-0.4-0.5-0.6l-0.2-0.7c-0.1-0.5,0.2-1.1,0.7-1.2
			c0.3-0.1,0.5,0,0.8,0.1c0.2,0.1,0.4,0.4,0.5,0.6l0.2,0.7c0.1,0.5-0.2,1.1-0.7,1.2C55.9,11.5,55.8,11.6,55.7,11.6z M55.2,9.9
			l0.2,0.7c0,0.1,0.1,0.2,0.2,0.3c0.1,0.1,0.2,0.1,0.3,0c0.2-0.1,0.4-0.3,0.3-0.5L56,9.7c0-0.1-0.1-0.2-0.2-0.3
			c-0.1-0.1-0.2-0.1-0.3,0C55.2,9.5,55.1,9.7,55.2,9.9L55.2,9.9z"/>
	</g>
</g>
</svg>
