<?xml version="1.0" encoding="utf-8"?>
<!-- Generator: Adobe Illustrator 27.1.1, SVG Export Plug-In . SVG Version: 6.00 Build 0)  -->
<svg version="1.1" id="Layer_1" xmlns="http://www.w3.org/2000/svg" xmlns:xlink="http://www.w3.org/1999/xlink" x="0px" y="0px"
	 viewBox="0 0 23 23" style="enable-background:new 0 0 23 23;" xml:space="preserve">
<style type="text/css">
	.st0{fill:#FFFFFF;}
</style>
<g id="S7nvO9_00000173140501429270552460000009889265133376445589_">
	<g>
		<path class="st0" d="M11.9,1.4c0.5,0.1,1,0.1,1.6,0.3c1.6,0.4,3.1,1.1,4.4,2.2c1.9,1.7,3.1,3.7,3.6,6.3c0.5,2.8-0.1,5.4-1.7,7.7
			c-1.7,2.5-4,4-7,4.5c-3.3,0.5-6.2-0.3-8.8-2.5C2,18.2,0.9,16,0.5,13.5c0-0.2-0.1-0.4-0.1-0.6c0-0.6,0-1.2,0-1.8c0,0,0-0.1,0-0.1
			C0.5,10.1,0.7,9.2,1,8.4C2.3,5,4.7,2.8,8.1,1.8C8.8,1.6,9.4,1.5,10,1.4C10.6,1.4,11.2,1.4,11.9,1.4z M20.5,12
			c-0.1-5.3-4.2-9.5-9.5-9.5c-5.3,0-9.5,4.2-9.5,9.5c0,5.3,4.2,9.5,9.5,9.5C16.2,21.5,20.4,17.3,20.5,12z"/>
		<path class="st0" d="M4.8,8.8c0-0.7,0.2-1.3,0.6-1.8c0.1-0.1,0.2-0.2,0.3-0.3C6.3,6.3,7,6,7.7,5.8c0.5-0.2,1,0,1.3,0.5
			C9.4,7,9.8,7.8,10.2,8.5c0.3,0.5,0.1,1.2-0.4,1.6c-0.1,0.1-0.1,0.1-0.2,0.2c-0.4,0.3-0.5,0.7-0.2,1.1c0.6,0.8,1.3,1.5,2.1,2.1
			c0.4,0.3,0.8,0.2,1.1-0.2c0.2-0.3,0.4-0.5,0.7-0.6c0.4-0.2,0.8-0.2,1.1,0c0.7,0.4,1.4,0.8,2.1,1.2c0.5,0.3,0.7,0.9,0.5,1.5
			c-0.2,0.5-0.4,1-0.6,1.5c-0.4,0.7-1,1.1-1.8,1.2c-1,0.1-1.8-0.1-2.7-0.5c-1.2-0.5-2.2-1.3-3.2-2.2c-1.2-1.1-2.2-2.3-3-3.7
			c-0.5-0.8-0.9-1.7-1-2.7C4.8,9,4.8,8.9,4.8,8.8z M14.1,17.1c0.1,0,0.1,0,0.2,0c0.6,0,1-0.2,1.3-0.8c0.2-0.4,0.3-0.7,0.5-1.1
			c0.1-0.2,0.1-0.3-0.2-0.5c-0.6-0.3-1.2-0.7-1.7-1c-0.3-0.2-0.4-0.1-0.5,0.1c-0.6,1-1.9,1.1-2.7,0.5c-0.8-0.7-1.6-1.4-2.3-2.3
			c-0.7-0.8-0.6-2.1,0.4-2.7C9.3,9.2,9.4,9,9.2,8.8C8.9,8.2,8.5,7.6,8.2,7C8.1,6.8,7.9,6.8,7.8,6.9C7.4,7,7,7.2,6.6,7.3
			C6.1,7.6,5.8,8,5.8,8.6c0,0.9,0.3,1.7,0.7,2.4c1.3,2.3,3.1,4.1,5.4,5.4C12.6,16.8,13.3,17.1,14.1,17.1z"/>
	</g>
</g>
</svg>
